<?xml version="1.0" encoding="UTF-8" standalone="no"?>
<!-- Created with Inkscape (http://www.inkscape.org/) -->

<svg
   xmlns:dc="http://purl.org/dc/elements/1.1/"
   xmlns:cc="http://creativecommons.org/ns#"
   xmlns:rdf="http://www.w3.org/1999/02/22-rdf-syntax-ns#"
   xmlns:svg="http://www.w3.org/2000/svg"
   xmlns="http://www.w3.org/2000/svg"
   xmlns:sodipodi="http://sodipodi.sourceforge.net/DTD/sodipodi-0.dtd"
   xmlns:inkscape="http://www.inkscape.org/namespaces/inkscape"
   width="18mm"
   height="22mm"
   viewBox="0 0 63.779528 77.952758"
   id="svg2"
   version="1.1"
   inkscape:version="0.91 r13725"
   sodipodi:docname="en.svg">
  <defs
     id="defs4" />
  <sodipodi:namedview
     id="base"
     pagecolor="#ffffff"
     bordercolor="#666666"
     borderopacity="1.0"
     inkscape:pageopacity="0.0"
     inkscape:pageshadow="2"
     inkscape:zoom="10.288491"
     inkscape:cx="28.773109"
     inkscape:cy="39.780016"
     inkscape:document-units="px"
     inkscape:current-layer="layer1"
     showgrid="false"
     inkscape:window-width="1366"
     inkscape:window-height="705"
     inkscape:window-x="-8"
     inkscape:window-y="-8"
     inkscape:window-maximized="1" />
  <metadata
     id="metadata7">
    <rdf:RDF>
      <cc:Work
         rdf:about="">
        <dc:format>image/svg+xml</dc:format>
        <dc:type
           rdf:resource="http://purl.org/dc/dcmitype/StillImage" />
        <dc:title />
      </cc:Work>
    </rdf:RDF>
  </metadata>
  <g
     inkscape:label="Layer 1"
     inkscape:groupmode="layer"
     id="layer1"
     transform="translate(0,-974.40946)">
    <g
       id="g4583"
       transform="translate(0.10173322,3.870266)">
      <path
         style="fill:#fcfbfb"
         d="m 1.4270037,1006.9684 0,-16.08937 30.5493913,0 30.549391,0 0,16.08937 0,16.0893 -30.549391,0 -30.5493913,0 0,-16.0893 z"
         id="path4599"
         inkscape:connector-curvature="0" />
      <path
         style="fill:#ff0000"
         d="m 1.4270037,1021.8157 c 0,-1.0855 0.010144,-1.2458 0.080538,-1.2729 0.1053099,-0.04 60.8323963,-0.04 60.9377053,0 0.0704,0.027 0.08054,0.1874 0.08054,1.2729 l 0,1.242 -30.549391,0 -30.549391,0 z m 0.063645,-3.6796 c -0.048466,-0.02 -0.063645,-0.3209 -0.063645,-1.2634 0,-1.0817 0.010154,-1.2417 0.080538,-1.2687 0.1053099,-0.04 60.8323963,-0.04 60.9377053,0 0.07038,0.027 0.08054,0.1869 0.08054,1.2675 0,1.0806 -0.01016,1.2404 -0.08054,1.2674 -0.0964,0.037 -60.8629,0.034 -60.9545984,0 z m 0,-4.9388 c -0.048466,-0.02 -0.063645,-0.3209 -0.063645,-1.2634 0,-1.0817 0.010154,-1.2417 0.080538,-1.2687 0.1053099,-0.04 60.8323963,-0.04 60.9377053,0 0.07038,0.027 0.08054,0.1869 0.08054,1.2674 0,1.0806 -0.01016,1.2405 -0.08054,1.2675 -0.0964,0.037 -60.8629,0.034 -60.9545984,0 z m 24.4297443,-5.552 0.209317,-16.81487 5.846685,0.0486 30.549391,0 0,1.24199 c 0,1.08556 -0.01014,1.24587 -0.08054,1.27289 -0.0443,0.017 -8.281176,0.0309 -18.304176,0.0309 l -18.223639,0 0,1.17106 0,1.17106 18.223639,0 c 10.023,0 18.25988,0.0139 18.304176,0.0309 0.07038,0.027 0.08054,0.18685 0.08054,1.26744 0,1.08059 -0.01016,1.24044 -0.08054,1.26744 -0.0443,0.017 -8.281176,0.0309 -18.304176,0.0309 l -18.223639,0 0,1.17106 0,1.17103 18.223639,0 c 10.023,0 18.25988,0.014 18.304176,0.031 0.07038,0.027 0.08054,0.1868 0.08054,1.2674 0,1.0806 -0.01016,1.2404 -0.08054,1.2674 -0.0443,0.017 -8.281598,0.031 -18.305114,0.031 l -18.224578,0 0.01367,1.1838 0.01367,1.1838 18.291448,0.013 18.291448,0.013 0,1.2728 0,1.2729 -30.549391,0 -30.5493913,0 z"
         id="path4597"
         inkscape:connector-curvature="0"
         sodipodi:nodetypes="sccscccscsccsccccsccscccccccscscccscscscccscscscccccccccc" />
      <path
         style="fill:#393a6b"
         d="m 1.4270037,999.53469 0,-8.65566 12.2231873,0 12.704284,-0.0687 -0.03849,0.11456 c -0.02117,0.063 -0.03931,3.93514 -0.04035,8.60474 l -0.0019,8.69637 -12.613021,0.069 c -8.0538855,0.044 -12.131924,0.017 -12.131924,0.051 0,0.028 -0.022912,0.051 -0.050916,0.051 -0.033744,0 -0.050916,-3.1253 -0.050916,-8.86178 z m 1.8663751,7.63191 0.2299639,-0.1583 0.2203164,0.1583 c 0.2309849,0.1658 0.4327898,0.207 0.4327898,0.088 0,-0.038 -0.034368,-0.1674 -0.076373,-0.2864 -0.107541,-0.3048 -0.102904,-0.3201 0.152747,-0.5037 0.2192977,-0.1575 0.3090251,-0.3562 0.1654758,-0.3664 -0.035004,0 -0.1667487,-0.01 -0.292765,-0.013 -0.2959736,-0.01 -0.329689,-0.036 -0.406687,-0.3114 -0.1148827,-0.4103 -0.2723127,-0.4077 -0.4109458,0.01 -0.088929,0.2658 -0.1613055,0.3079 -0.5443608,0.3169 -0.2985483,0.01 -0.2936957,0.1469 0.012729,0.367 0.2556509,0.1836 0.2602879,0.1989 0.1527469,0.5037 -0.042005,0.119 -0.076373,0.2479 -0.076373,0.2864 0,0.118 0.1989158,0.078 0.4407369,-0.088 z m 4.0571757,3e-4 0.2239749,-0.1579 0.2179358,0.1579 c 0.3836016,0.2779 0.4981221,0.1763 0.3320103,-0.2945 l -0.07431,-0.2106 0.2525152,-0.1885 c 0.3425024,-0.2557 0.3380662,-0.3686 -0.014793,-0.3764 -0.147019,0 -0.2997028,-0.01 -0.3392974,-0.013 -0.03964,0 -0.1152501,-0.1364 -0.1682589,-0.2952 -0.1475663,-0.4421 -0.2654548,-0.4412 -0.4248784,0 l -0.098607,0.2748 -0.3054939,0.022 c -0.4661848,0.033 -0.4915618,0.1332 -0.1002891,0.3961 0.1250458,0.084 0.2274066,0.167 0.2274672,0.1845 5.1e-5,0.017 -0.034257,0.1292 -0.076262,0.2483 -0.1571797,0.4455 -0.044418,0.5262 0.3482869,0.2494 z m 4.0487945,0 0.216601,-0.1593 0.221807,0.1593 c 0.251884,0.1809 0.434281,0.2088 0.434281,0.067 0,-0.051 -0.03709,-0.2016 -0.08242,-0.3346 -0.08169,-0.2398 -0.08135,-0.2427 0.03819,-0.3251 0.211938,-0.1462 0.408377,-0.3649 0.375534,-0.418 -0.0175,-0.028 -0.165131,-0.052 -0.328071,-0.052 -0.332242,0 -0.37072,-0.029 -0.464452,-0.3443 -0.119827,-0.4036 -0.249464,-0.39 -0.396245,0.042 -0.08444,0.2483 -0.109646,0.2776 -0.242108,0.2812 -0.503717,0.014 -0.529725,0.02 -0.529725,0.1208 0,0.061 0.08966,0.1611 0.22912,0.257 0.256075,0.1762 0.25776,0.182 0.15285,0.5278 -0.04134,0.1363 -0.06265,0.268 -0.04736,0.2928 0.05301,0.086 0.206454,0.044 0.422002,-0.1143 z m 4.056414,0 0.221808,-0.1593 0.2166,0.1593 c 0.359315,0.2642 0.502067,0.2052 0.376401,-0.1556 -0.113707,-0.3264 -0.09948,-0.3783 0.151091,-0.5507 0.13169,-0.091 0.229121,-0.1975 0.229121,-0.2515 0,-0.109 -0.192143,-0.1734 -0.378193,-0.1267 -0.219851,0.055 -0.311251,-0.014 -0.402876,-0.3046 -0.04758,-0.151 -0.12038,-0.2874 -0.161776,-0.3033 -0.09003,-0.035 -0.203993,0.1287 -0.252593,0.3618 -0.04317,0.2071 -0.08143,0.2298 -0.430411,0.2549 -0.155919,0.011 -0.303845,0.04 -0.328725,0.065 -0.04637,0.045 0.148252,0.2654 0.369506,0.418 0.119534,0.082 0.119874,0.085 0.03819,0.3251 -0.04533,0.133 -0.08242,0.2836 -0.08242,0.3346 0,0.1423 0.182396,0.1144 0.434277,-0.067 z m 4.045292,0 0.217936,-0.1579 0.223975,0.1579 c 0.392705,0.2768 0.505466,0.1961 0.348287,-0.2494 -0.04201,-0.1191 -0.07632,-0.2308 -0.07626,-0.2483 5.1e-5,-0.018 0.102661,-0.1005 0.228001,-0.1845 0.12534,-0.084 0.231831,-0.1699 0.236647,-0.1909 0.03379,-0.1474 0.0021,-0.1668 -0.311664,-0.191 l -0.330603,-0.025 -0.09896,-0.2801 c -0.158972,-0.4499 -0.276776,-0.4522 -0.425764,-0.01 l -0.09681,0.2884 -0.249658,0 c -0.137312,0 -0.289754,0.01 -0.33876,0.013 -0.165295,0.016 -0.09069,0.1896 0.163412,0.3793 l 0.252515,0.1885 -0.07431,0.2106 c -0.166112,0.4708 -0.05159,0.5724 0.33201,0.2945 z m 4.048806,-3e-4 0.220317,-0.1583 0.229963,0.1583 c 0.241822,0.1663 0.440737,0.2062 0.440737,0.088 0,-0.038 -0.03437,-0.1674 -0.07637,-0.2864 -0.107541,-0.3048 -0.102904,-0.3201 0.152747,-0.5037 0.282744,-0.2031 0.310586,-0.3616 0.06364,-0.3625 -0.09101,-3e-4 -0.247678,-0.014 -0.348148,-0.031 -0.168858,-0.028 -0.187518,-0.049 -0.24677,-0.2803 -0.06732,-0.2627 -0.207815,-0.3978 -0.296853,-0.2856 -0.02729,0.034 -0.07851,0.1542 -0.113813,0.2663 -0.08874,0.2815 -0.145776,0.3385 -0.326936,0.3265 -0.511585,-0.034 -0.584894,0.095 -0.207678,0.3663 0.255651,0.1836 0.260288,0.1989 0.152747,0.5037 -0.04201,0.119 -0.07637,0.2479 -0.07637,0.2864 0,0.1188 0.201805,0.078 0.43279,-0.088 z m -18.2345791,-1.7318 0.2253284,-0.1588 0.2308458,0.1588 c 0.3789043,0.2607 0.5036972,0.1949 0.3666781,-0.1935 -0.1103893,-0.3129 -0.1037955,-0.3355 0.1513142,-0.5187 0.2337731,-0.1679 0.2929254,-0.3155 0.1485828,-0.3709 -0.044296,-0.017 -0.2025628,-0.031 -0.3517044,-0.031 l -0.2711666,0 -0.065818,-0.2568 c -0.1161563,-0.4533 -0.2555777,-0.4561 -0.4059424,-0.01 -0.078434,0.2336 -0.086209,0.24 -0.3054939,0.2531 -0.5330054,0.032 -0.5989388,0.1563 -0.2250119,0.4249 0.1260163,0.091 0.2291205,0.1806 0.2291205,0.2004 0,0.02 -0.034368,0.1333 -0.076373,0.2523 -0.1573594,0.446 -0.044431,0.5263 0.3496404,0.2485 z m 4.0464831,0.01 c 0.1159737,-0.084 0.2227143,-0.1527 0.2372008,-0.1527 0.014487,0 0.1212271,0.069 0.2372007,0.1527 0.3779775,0.2738 0.4685125,0.1954 0.3250145,-0.2814 -0.07151,-0.2376 -0.07017,-0.2495 0.03669,-0.3243 0.06101,-0.043 0.17955,-0.139 0.263425,-0.214 0.218937,-0.1956 0.121652,-0.3004 -0.278796,-0.3004 l -0.295016,0 -0.097588,-0.2928 c -0.073545,-0.2206 -0.1216319,-0.2928 -0.1951765,-0.2928 -0.073172,0 -0.1228081,0.073 -0.1983893,0.2928 l -0.1008008,0.2928 -0.2641733,0 c -0.1452954,0 -0.3004155,0.014 -0.3447111,0.031 -0.1254745,0.048 -0.0949,0.2028 0.05948,0.3009 0.07701,0.049 0.1897484,0.134 0.25053,0.1891 0.1042722,0.095 0.1064285,0.1118 0.038187,0.3052 -0.1629728,0.4619 -0.04782,0.5655 0.3269197,0.294 z m 4.06028,-0.01 0.224715,-0.1614 0.224715,0.1614 c 0.234821,0.1686 0.437189,0.2109 0.437189,0.091 0,-0.038 -0.03437,-0.1674 -0.07637,-0.2865 -0.10764,-0.305 -0.103055,-0.3199 0.155605,-0.5057 0.170663,-0.1226 0.227858,-0.1955 0.216391,-0.2759 -0.01364,-0.096 -0.05645,-0.1126 -0.34241,-0.1348 l -0.326823,-0.025 -0.0805,-0.2397 c -0.04428,-0.1318 -0.109142,-0.2681 -0.144146,-0.3029 -0.08908,-0.089 -0.170423,0 -0.271416,0.3029 -0.07843,0.2336 -0.08621,0.24 -0.305494,0.2531 -0.533323,0.032 -0.602063,0.16 -0.225012,0.4194 0.25435,0.175 0.261838,0.1999 0.152747,0.5091 -0.042,0.1191 -0.07637,0.248 -0.07637,0.2865 0,0.1195 0.202367,0.077 0.437188,-0.091 z m 4.035309,0.01 c 0.115973,-0.084 0.228243,-0.1521 0.249488,-0.1513 0.02124,8e-4 0.12863,0.07 0.238632,0.1527 0.360714,0.273 0.475052,0.1633 0.311915,-0.2991 l -0.07361,-0.2086 0.187043,-0.1542 c 0.102873,-0.085 0.20319,-0.1541 0.222926,-0.1541 0.01974,0 0.05133,-0.049 0.07022,-0.1082 0.04692,-0.1479 -0.04658,-0.1956 -0.384915,-0.1966 l -0.281067,-7e-4 -0.100801,-0.2928 c -0.07558,-0.2195 -0.125216,-0.2928 -0.198389,-0.2928 -0.07354,0 -0.121632,0.072 -0.195176,0.2928 l -0.09759,0.2928 -0.295016,0 c -0.400448,0 -0.497733,0.1048 -0.278796,0.3004 0.08387,0.075 0.203577,0.1721 0.266002,0.2158 0.10959,0.077 0.110855,0.087 0.03669,0.2972 -0.16757,0.4749 -0.05613,0.5809 0.322444,0.3067 z m 4.06471,-0.01 0.230846,-0.1588 0.225328,0.1588 c 0.394071,0.2778 0.507,0.1975 0.349641,-0.2485 -0.04201,-0.119 -0.07637,-0.2326 -0.07637,-0.2523 0,-0.02 0.104391,-0.1109 0.231979,-0.2025 0.170662,-0.1226 0.227858,-0.1955 0.216391,-0.2759 -0.01364,-0.096 -0.05645,-0.1126 -0.342562,-0.1348 l -0.326975,-0.025 -0.09732,-0.2928 c -0.137772,-0.4144 -0.279794,-0.3868 -0.396606,0.077 l -0.06073,0.2412 -0.269828,0 c -0.148405,0 -0.306069,0.014 -0.350365,0.031 -0.144343,0.055 -0.08519,0.203 0.148583,0.3709 0.25511,0.1832 0.261703,0.2058 0.151314,0.5187 -0.137019,0.3884 -0.01223,0.4542 0.366678,0.1935 z m -18.2314114,-1.7342 0.2255373,-0.162 0.2297868,0.162 c 0.3985707,0.2809 0.5120452,0.2023 0.3540987,-0.2454 -0.042005,-0.1191 -0.076373,-0.2354 -0.076373,-0.2585 0,-0.023 0.1044337,-0.114 0.2320748,-0.2018 0.1729118,-0.1189 0.2280766,-0.1877 0.2163915,-0.2697 -0.013759,-0.097 -0.055798,-0.1132 -0.3426583,-0.1356 l -0.3269751,-0.025 -0.097322,-0.2928 c -0.1368392,-0.4116 -0.2381986,-0.3957 -0.3984581,0.063 l -0.080502,0.2302 -0.3268236,0.025 c -0.2806386,0.022 -0.3289337,0.04 -0.3417554,0.1298 -0.010639,0.074 0.051577,0.1521 0.2163915,0.2705 0.2574156,0.1849 0.2639918,0.2072 0.1535171,0.5203 -0.1372454,0.389 -0.00792,0.4568 0.3630699,0.1904 z m 4.0207677,0.011 c 0.1100022,-0.083 0.2187876,-0.152 0.2417454,-0.1528 0.022958,-7e-4 0.1416469,0.067 0.2637523,0.1514 0.1221054,0.084 0.2579779,0.1527 0.301939,0.1527 0.1014224,0 0.1039672,-0.1736 0.00659,-0.4496 l -0.073339,-0.2079 0.2515437,-0.2106 c 0.3711822,-0.3108 0.3308387,-0.4048 -0.1737059,-0.4048 l -0.2641733,0 -0.1008008,-0.2927 c -0.075581,-0.2196 -0.1252169,-0.2928 -0.1983893,-0.2928 -0.073545,0 -0.1216319,0.072 -0.1951765,0.2928 l -0.097589,0.2927 -0.2950165,0 c -0.2094242,0 -0.3148104,0.024 -0.3632409,0.082 -0.07255,0.088 -0.023297,0.1482 0.3259259,0.4023 0.1409477,0.1026 0.1409966,0.1028 0.062733,0.3246 -0.1679453,0.4761 -0.057472,0.5884 0.3072011,0.3125 z m 4.0659347,0 c 0.110002,-0.083 0.219032,-0.1514 0.24229,-0.1514 0.02326,0 0.137174,0.069 0.253148,0.1528 0.379859,0.2751 0.47539,0.1907 0.315391,-0.2789 l -0.08385,-0.2461 0.147498,-0.1061 c 0.472338,-0.3398 0.461855,-0.4891 -0.03434,-0.4891 l -0.296658,0 -0.09013,-0.2859 c -0.138683,-0.4399 -0.314314,-0.4268 -0.424305,0.032 l -0.05993,0.2499 -0.339135,0.015 c -0.296042,0.013 -0.341015,0.028 -0.353931,0.1183 -0.01051,0.073 0.05219,0.1505 0.216392,0.2662 0.256443,0.1808 0.264853,0.2096 0.15338,0.5256 -0.135054,0.3828 0.0059,0.4616 0.354184,0.1982 z m 4.043373,0 c 0.115973,-0.084 0.22989,-0.1528 0.253147,-0.1528 0.02326,0 0.132288,0.068 0.24229,0.1514 0.348243,0.2634 0.489238,0.1846 0.354184,-0.1982 -0.110475,-0.3131 -0.103899,-0.3354 0.153517,-0.5203 0.164815,-0.1184 0.22703,-0.1961 0.216391,-0.2705 -0.01309,-0.091 -0.05685,-0.1062 -0.354067,-0.1193 l -0.339135,-0.015 -0.05993,-0.2499 c -0.109991,-0.4584 -0.285622,-0.4715 -0.424306,-0.032 l -0.09013,0.2859 -0.296658,0 c -0.210935,0 -0.316372,0.024 -0.364882,0.082 -0.0728,0.088 -0.02371,0.1479 0.331454,0.4064 l 0.146586,0.1066 -0.08385,0.2461 c -0.159999,0.4696 -0.06447,0.554 0.315392,0.2789 z m 4.055874,0 c 0.122106,-0.084 0.235265,-0.1528 0.251464,-0.1528 0.0162,0 0.124342,0.069 0.240315,0.1528 0.379837,0.2751 0.490049,0.1683 0.32092,-0.3111 -0.07826,-0.2218 -0.07821,-0.222 0.06273,-0.3246 0.349223,-0.2541 0.398476,-0.3148 0.325926,-0.4023 -0.04843,-0.058 -0.153817,-0.082 -0.363241,-0.082 l -0.295016,0 -0.09759,-0.2927 c -0.07354,-0.2207 -0.121632,-0.2928 -0.195176,-0.2928 -0.07317,0 -0.122808,0.073 -0.19839,0.2928 l -0.1008,0.2927 -0.316249,0 c -0.452861,0 -0.496711,0.1573 -0.116966,0.4196 0.220012,0.1519 0.238705,0.2261 0.133283,0.5287 -0.125432,0.36 -0.0085,0.4177 0.348786,0.1719 z m 4.071764,-0.01 0.230609,-0.1626 0.230609,0.1626 c 0.373421,0.2632 0.493601,0.1992 0.356354,-0.1898 -0.110475,-0.3131 -0.103899,-0.3354 0.153516,-0.5203 0.164815,-0.1184 0.227031,-0.1961 0.216392,-0.2705 -0.01282,-0.09 -0.06112,-0.1079 -0.341755,-0.1298 l -0.326824,-0.025 -0.0805,-0.2302 c -0.16026,-0.4583 -0.261619,-0.4742 -0.398459,-0.063 l -0.09732,0.2928 -0.326975,0.025 c -0.28686,0.022 -0.328899,0.039 -0.342658,0.1356 -0.01168,0.082 0.04348,0.1508 0.216392,0.2697 0.127641,0.088 0.232074,0.1786 0.232074,0.2018 0,0.023 -0.03437,0.1394 -0.07637,0.2585 -0.158054,0.448 -0.04448,0.5263 0.354921,0.2448 z m -18.2598529,-1.7214 c 0.1159735,-0.084 0.2305337,-0.1527 0.2545782,-0.1527 0.024044,0 0.1386047,0.069 0.2545783,0.1527 0.3528981,0.2557 0.4756848,0.1837 0.3404646,-0.1996 -0.1106549,-0.3136 -0.1035274,-0.3384 0.1506723,-0.5243 0.1557881,-0.1139 0.2246331,-0.1995 0.2163916,-0.2689 -0.010315,-0.087 -0.059996,-0.1056 -0.3389107,-0.1273 l -0.3268236,-0.026 -0.080502,-0.2396 c -0.1511332,-0.45 -0.2907015,-0.4575 -0.4276114,-0.023 l -0.089375,0.2835 -0.3163717,0.015 c -0.2741888,0.013 -0.3183627,0.029 -0.3313035,0.1195 -0.010639,0.074 0.051577,0.1521 0.2163915,0.2705 0.1272278,0.091 0.2313233,0.1847 0.2313233,0.2074 0,0.023 -0.034368,0.1388 -0.076373,0.2579 -0.1554995,0.4407 -0.049492,0.5243 0.3228716,0.2545 z m 4.0522156,0 c 0.1100023,-0.083 0.2245625,-0.1507 0.2545783,-0.1499 0.030016,8e-4 0.144576,0.069 0.2545783,0.1528 0.3646727,0.2759 0.4751467,0.1635 0.3072007,-0.3125 -0.07826,-0.2218 -0.07821,-0.2221 0.06273,-0.3246 0.306518,-0.223 0.389082,-0.3156 0.356667,-0.4001 -0.02552,-0.067 -0.101962,-0.084 -0.360692,-0.084 l -0.328307,0 -0.097588,-0.2928 c -0.073545,-0.2206 -0.1216319,-0.2927 -0.1951765,-0.2927 -0.073172,0 -0.1228081,0.073 -0.1983893,0.2927 l -0.1008008,0.2928 -0.320851,0 c -0.4877974,0 -0.4776469,0.1763 0.029315,0.5092 0.1134869,0.074 0.1143983,0.082 0.037421,0.2991 -0.1684473,0.4757 -0.063264,0.5848 0.2993102,0.3104 z m 4.0433733,0 c 0.115973,-0.084 0.236402,-0.1527 0.267619,-0.1527 0.03122,0 0.143545,0.069 0.249617,0.1527 0.33973,0.2691 0.458965,0.1865 0.332533,-0.2303 -0.04227,-0.1393 -0.0771,-0.2691 -0.0774,-0.2884 -3.06e-4,-0.019 0.103544,-0.1098 0.230772,-0.2011 0.164815,-0.1184 0.22703,-0.1962 0.216391,-0.2705 -0.01282,-0.09 -0.06111,-0.1079 -0.341907,-0.1298 l -0.326974,-0.026 -0.09732,-0.2927 c -0.07132,-0.2146 -0.122258,-0.2928 -0.190668,-0.2928 -0.06841,0 -0.119343,0.078 -0.190667,0.2928 l -0.09732,0.2927 -0.326974,0.026 c -0.280792,0.022 -0.329084,0.04 -0.341907,0.1298 -0.01064,0.074 0.05158,0.1521 0.216392,0.2705 0.127227,0.091 0.231323,0.1835 0.231323,0.2048 0,0.021 -0.03666,0.1463 -0.08147,0.2778 -0.139858,0.4104 -0.02541,0.4932 0.32796,0.2372 z m 4.055874,0 c 0.122106,-0.084 0.242441,-0.1527 0.267411,-0.1527 0.02497,0 0.135402,0.068 0.245404,0.1513 0.362282,0.2741 0.467505,0.1655 0.299884,-0.3096 -0.07826,-0.2218 -0.07822,-0.2221 0.06273,-0.3246 0.306518,-0.223 0.389083,-0.3156 0.356668,-0.4001 -0.02541,-0.066 -0.101449,-0.084 -0.353238,-0.084 l -0.320851,0 -0.100801,-0.2928 c -0.07755,-0.2252 -0.124294,-0.2927 -0.202632,-0.2927 -0.07928,0 -0.122353,0.065 -0.194501,0.2927 l -0.09267,0.2928 -0.328983,0 c -0.25936,0 -0.335836,0.018 -0.361368,0.084 -0.03242,0.084 0.05015,0.1771 0.356668,0.4001 0.140947,0.1025 0.140996,0.1028 0.06273,0.3246 -0.102034,0.2892 -0.101431,0.4638 0.0016,0.4638 0.04396,0 0.179833,-0.069 0.301949,-0.1528 z m 4.055875,0 c 0.115973,-0.084 0.230534,-0.1527 0.254578,-0.1527 0.02404,0 0.138605,0.069 0.254578,0.1527 0.380049,0.2753 0.475402,0.1908 0.315167,-0.2795 -0.08367,-0.2456 -0.08349,-0.2472 0.03819,-0.3429 0.370906,-0.2917 0.415244,-0.3444 0.352889,-0.4195 -0.03786,-0.046 -0.178729,-0.079 -0.370951,-0.089 l -0.309911,-0.015 -0.07544,-0.2719 c -0.11828,-0.4262 -0.270286,-0.4146 -0.420385,0.032 l -0.0805,0.2396 -0.326823,0.026 c -0.278915,0.022 -0.328596,0.04 -0.338911,0.1273 -0.0082,0.069 0.0606,0.155 0.216392,0.2689 0.254199,0.1859 0.261327,0.2107 0.150672,0.5243 -0.13522,0.3833 -0.01243,0.4553 0.340465,0.1996 z m -18.243964,-1.7311 c 0.1159735,-0.084 0.2396995,-0.1521 0.2749465,-0.1513 0.035247,8e-4 0.1540871,0.07 0.2640892,0.1527 0.3457738,0.2617 0.4510008,0.1711 0.3065554,-0.26379 l -0.088413,-0.26618 0.1982519,-0.16774 c 0.1090386,-0.0923 0.2170295,-0.16807 0.2399799,-0.16849 0.02295,-4.1e-4 0.034406,-0.0523 0.025458,-0.11532 -0.014507,-0.10214 -0.051975,-0.11732 -0.3456697,-0.14002 l -0.3293996,-0.0254 -0.083865,-0.28004 c -0.062111,-0.2074 -0.1106921,-0.28408 -0.1872895,-0.29562 -0.085226,-0.0128 -0.1207175,0.0364 -0.2017002,0.28003 l -0.098276,0.29563 -0.3269751,0.0254 c -0.2911765,0.0227 -0.3287564,0.038 -0.3432452,0.14002 -0.00895,0.063 0.00251,0.1149 0.025458,0.11532 0.02295,4.1e-4 0.1298301,0.0753 0.2375105,0.16642 l 0.1957825,0.16566 -0.084641,0.29112 c -0.1265088,0.4352 -0.037823,0.5019 0.3214424,0.2416 z m 4.0522157,0 c 0.1100022,-0.083 0.2268526,-0.1513 0.2596678,-0.1513 0.032815,0 0.1545514,0.069 0.270525,0.1527 0.3645123,0.2641 0.4491229,0.1931 0.3115605,-0.26122 l -0.086836,-0.2868 0.2511852,-0.18753 c 0.3490146,-0.26056 0.3204295,-0.35458 -0.1136839,-0.37393 l -0.3321631,-0.0148 -0.1000935,-0.29069 c -0.1377681,-0.4001 -0.2590135,-0.39946 -0.3928591,0.002 l -0.097589,0.29277 -0.3283066,0 c -0.2585854,0 -0.3351768,0.0179 -0.360657,0.0843 -0.032394,0.0844 -0.015827,0.10292 0.3347816,0.37394 l 0.164673,0.12729 -0.079207,0.22279 c -0.1690155,0.47538 -0.063643,0.58478 0.2990017,0.31038 z m 4.0514533,0 c 0.106072,-0.084 0.219801,-0.1527 0.252731,-0.1527 0.03293,0 0.162638,0.071 0.288239,0.1571 0.224627,0.1545 0.375512,0.1673 0.375512,0.032 0,-0.038 -0.03784,-0.1799 -0.08408,-0.31562 -0.08367,-0.24557 -0.08349,-0.24722 0.03819,-0.34291 0.330349,-0.25978 0.401259,-0.33935 0.371519,-0.41685 -0.02381,-0.062 -0.105772,-0.0809 -0.35229,-0.0809 l -0.321261,0 -0.09733,-0.29276 c -0.07222,-0.21721 -0.124528,-0.29679 -0.20271,-0.30835 -0.08757,-0.013 -0.121984,0.0344 -0.203651,0.28003 l -0.09828,0.29563 -0.326974,0.0254 c -0.281988,0.022 -0.326976,0.0392 -0.326976,0.12512 0,0.0584 0.08826,0.16377 0.213281,0.25458 0.238792,0.17345 0.252654,0.22636 0.141696,0.54083 -0.134539,0.3813 5.3e-4,0.4624 0.332385,0.1996 z m 4.051453,0 c 0.110002,-0.083 0.228842,-0.1519 0.264089,-0.1527 0.03525,-8e-4 0.158973,0.067 0.274947,0.1513 0.347081,0.2514 0.459108,0.1825 0.324304,-0.1996 -0.11253,-0.31894 -0.09886,-0.36751 0.156289,-0.55526 0.32353,-0.23808 0.290254,-0.3326 -0.128593,-0.36528 l -0.326366,-0.0254 -0.0805,-0.23967 c -0.151411,-0.45076 -0.290694,-0.45752 -0.428362,-0.0208 l -0.09013,0.28591 -0.322903,0 c -0.248017,0 -0.330098,0.0188 -0.353931,0.0809 -0.02965,0.0773 0.04197,0.15785 0.367607,0.41368 0.115738,0.0909 0.116598,0.098 0.03893,0.32111 -0.165864,0.47641 -0.06052,0.58221 0.304619,0.30591 z m 4.052216,0 c 0.115973,-0.084 0.23771,-0.1527 0.270525,-0.1527 0.03281,0 0.149665,0.068 0.259668,0.1513 0.362644,0.2744 0.468017,0.165 0.299001,-0.31041 l -0.07921,-0.2228 0.164673,-0.12728 c 0.350608,-0.27102 0.367175,-0.28952 0.334781,-0.37394 -0.02548,-0.0664 -0.102071,-0.0843 -0.360657,-0.0843 l -0.328306,0 -0.09759,-0.29276 c -0.133845,-0.40154 -0.255091,-0.40218 -0.392859,-0.002 l -0.100093,0.29069 -0.332163,0.0148 c -0.433864,0.0193 -0.462679,0.11338 -0.114401,0.3734 l 0.250469,0.18699 -0.08855,0.2862 c -0.139693,0.45151 -0.04957,0.52681 0.314711,0.26291 z m 4.043372,0 c 0.110003,-0.083 0.228843,-0.1519 0.26409,-0.1527 0.03525,-8e-4 0.158973,0.067 0.274946,0.1513 0.347081,0.2514 0.459109,0.1825 0.324305,-0.1996 -0.113388,-0.32137 -0.09952,-0.36997 0.153737,-0.53867 0.162291,-0.10811 0.225204,-0.18251 0.215272,-0.25458 -0.01194,-0.0866 -0.06283,-0.10563 -0.341008,-0.12729 l -0.326975,-0.0254 -0.09827,-0.29563 c -0.0823,-0.24757 -0.115708,-0.29309 -0.205526,-0.28004 -0.08184,0.0119 -0.126334,0.0819 -0.18781,0.29563 l -0.08056,0.28004 -0.328879,0.0254 c -0.287398,0.0223 -0.330835,0.0392 -0.344381,0.13416 -0.01111,0.0779 0.03421,0.13941 0.159752,0.217 0.292108,0.18053 0.309248,0.2221 0.212142,0.51446 -0.141812,0.42692 -0.03438,0.51592 0.309165,0.25592 z m -18.2037543,-1.75474 0.2435317,-0.17496 0.2460851,0.17496 c 0.3806472,0.27063 0.48845,0.21594 0.3496747,-0.17739 -0.1125298,-0.31894 -0.098859,-0.36751 0.1562886,-0.55527 0.3235701,-0.2381 0.2902641,-0.3326 -0.1287438,-0.36527 l -0.3265181,-0.0255 -0.098276,-0.29562 c -0.081667,-0.24567 -0.116084,-0.29299 -0.2036511,-0.28004 -0.078182,0.0116 -0.1304939,0.0911 -0.2027092,0.30836 l -0.097333,0.29276 -0.3212614,0 c -0.3669007,0 -0.460891,0.0881 -0.2674102,0.25066 0.062402,0.0524 0.1796845,0.15081 0.260627,0.21862 l 0.1471681,0.1233 -0.088244,0.26567 c -0.089403,0.26917 -0.079552,0.41464 0.028079,0.41464 0.032539,0 0.168751,-0.0787 0.3026933,-0.17496 z m 4.0457663,-8.4e-4 0.2472663,-0.1758 0.2394868,0.1758 c 0.3967669,0.29126 0.4988039,0.20055 0.3248429,-0.28877 l -0.07921,-0.22279 0.164673,-0.12729 c 0.350609,-0.27101 0.367176,-0.28952 0.334782,-0.37393 -0.02537,-0.0661 -0.101556,-0.0843 -0.353202,-0.0843 l -0.3208514,0 -0.1008007,-0.29276 c -0.077545,-0.22522 -0.1242943,-0.29277 -0.2026321,-0.29277 -0.078252,0 -0.1250076,0.0673 -0.2019254,0.29069 l -0.1000935,0.29069 -0.332163,0.0148 c -0.4323289,0.0193 -0.4595174,0.11031 -0.1096433,0.36714 l 0.2541083,0.18653 -0.073364,0.20794 c -0.092696,0.26273 -0.095525,0.50062 -0.00595,0.50062 0.037076,0 0.1786808,-0.0791 0.3146761,-0.1758 z m 4.066368,-2.5e-4 0.247589,-0.17603 0.230539,0.17603 c 0.370374,0.2828 0.492078,0.20802 0.348282,-0.214 -0.04481,-0.1315 -0.08097,-0.26366 -0.08035,-0.29367 6.16e-4,-0.03 0.104307,-0.12332 0.230424,-0.20733 0.162291,-0.1081 0.225204,-0.1825 0.215273,-0.25457 -0.01195,-0.0868 -0.06283,-0.10561 -0.343433,-0.12729 l -0.329399,-0.0255 -0.08415,-0.28004 c -0.07072,-0.23532 -0.103109,-0.28003 -0.202887,-0.28003 -0.100189,0 -0.131355,0.0437 -0.19951,0.28003 l -0.08077,0.28004 -0.328879,0.0255 c -0.280082,0.0217 -0.330961,0.0406 -0.342912,0.12729 -0.0099,0.0721 0.05298,0.14647 0.215272,0.25457 0.126118,0.084 0.229808,0.17731 0.230424,0.20733 6.17e-4,0.03 -0.03554,0.16217 -0.08035,0.29367 -0.08488,0.24912 -0.06976,0.39003 0.04185,0.39003 0.03597,0 0.17682,-0.0792 0.312987,-0.17603 z m 4.053736,-0.002 0.242042,-0.17767 0.232695,0.17767 c 0.385756,0.29455 0.471606,0.216 0.31781,-0.2908 l -0.07264,-0.23936 0.254687,-0.18298 c 0.355029,-0.25506 0.326184,-0.35195 -0.110573,-0.37142 l -0.332163,-0.0148 -0.100093,-0.29069 c -0.07692,-0.22336 -0.123673,-0.29067 -0.201926,-0.29067 -0.07834,0 -0.125087,0.0675 -0.202632,0.29277 l -0.1008,0.29276 -0.320852,0 c -0.251646,0 -0.327829,0.0182 -0.353201,0.0843 -0.03239,0.0844 -0.01583,0.10292 0.334781,0.37393 l 0.164673,0.12729 -0.07921,0.2228 c -0.103899,0.29224 -0.102759,0.46456 0.0031,0.46456 0.04525,0 0.1912,-0.08 0.324324,-0.17767 z m 4.040348,0.003 0.246085,-0.17496 0.250789,0.18017 c 0.243489,0.17493 0.402317,0.1959 0.402317,0.0531 0,-0.0379 -0.03786,-0.18 -0.08412,-0.31579 l -0.08412,-0.24688 0.147766,-0.12381 c 0.08127,-0.0681 0.201021,-0.16862 0.26611,-0.22338 0.181274,-0.15249 0.06752,-0.24639 -0.29854,-0.24639 l -0.295016,0 -0.09733,-0.29276 c -0.07221,-0.21722 -0.124527,-0.29679 -0.202709,-0.30836 -0.08757,-0.013 -0.121984,0.0344 -0.203651,0.28004 l -0.09828,0.29562 -0.326975,0.0255 c -0.278643,0.0217 -0.328898,0.0405 -0.339986,0.12729 -0.0091,0.0715 0.0552,0.14727 0.216281,0.25458 0.252384,0.16813 0.265727,0.21551 0.151707,0.53867 -0.138775,0.39334 -0.03097,0.44802 0.349675,0.17739 z m -18.235402,-1.73648 0.250974,-0.18031 0.2525284,0.18537 c 0.3717909,0.27295 0.4783895,0.19727 0.326914,-0.23205 -0.106651,-0.30228 -0.1033826,-0.3127 0.1517384,-0.4837 0.1558275,-0.10445 0.2282443,-0.18897 0.2290097,-0.26731 0.00105,-0.10702 -0.020392,-0.11456 -0.3255895,-0.11456 l -0.3267087,0 -0.097333,-0.29276 c -0.072215,-0.21722 -0.1245271,-0.29679 -0.2027092,-0.30836 -0.08756,-0.013 -0.1220044,0.0344 -0.2037323,0.28004 l -0.098357,0.29562 -0.3396228,0.0151 c -0.4880648,0.0216 -0.4658922,0.12944 0.1140491,0.55451 0.011489,0.008 -0.020031,0.15046 -0.070043,0.31564 -0.1395255,0.46082 -0.057195,0.51739 0.3388823,0.23283 z m 4.0440805,0.006 0.2591973,-0.17455 0.2455132,0.17455 c 0.1350319,0.096 0.2758478,0.17456 0.3129241,0.17456 0.089572,0 0.086743,-0.2379 -0.00595,-0.50063 l -0.073364,-0.20794 0.2541084,-0.18653 c 0.3471322,-0.25479 0.3214692,-0.3447 -0.1078363,-0.37777 l -0.3304951,-0.0255 -0.095939,-0.29541 c -0.080613,-0.24822 -0.1131483,-0.29295 -0.2036626,-0.28003 -0.080633,0.0115 -0.1330737,0.089 -0.2085245,0.30814 l -0.1008008,0.29276 -0.3208511,0 c -0.2545207,0 -0.3276916,0.0178 -0.3539381,0.0862 -0.022801,0.0594 0.011901,0.11878 0.111629,0.19094 0.3978518,0.28787 0.3934054,0.27941 0.2993036,0.56961 -0.079831,0.24618 -0.071796,0.42612 0.019028,0.42612 0.022256,0 0.1571033,-0.0786 0.2996615,-0.17455 z m 4.0598665,-9.5e-4 0.246846,-0.1755 0.255132,0.1755 c 0.140323,0.0965 0.276193,0.17551 0.301934,0.17551 0.09792,0 0.10644,-0.17393 0.0217,-0.44277 -0.04837,-0.15345 -0.08041,-0.28364 -0.07121,-0.28932 0.109724,-0.0676 0.43192,-0.3178 0.457543,-0.35529 0.08551,-0.12511 -0.02521,-0.18549 -0.340175,-0.18549 l -0.321261,0 -0.09733,-0.29276 c -0.07222,-0.21722 -0.124528,-0.29679 -0.20271,-0.30836 -0.08757,-0.013 -0.121984,0.0344 -0.203651,0.28004 l -0.09828,0.29562 -0.326518,0.0255 c -0.422506,0.0329 -0.457148,0.13227 -0.127234,0.36482 0.253914,0.17897 0.269146,0.23157 0.158154,0.54616 -0.0768,0.21767 -0.06012,0.36191 0.04185,0.36191 0.0321,0 0.16944,-0.079 0.305205,-0.1755 z m 4.04433,0 0.255133,-0.1755 0.246845,0.1755 c 0.135765,0.0965 0.273107,0.17551 0.305205,0.17551 0.101974,0 0.118655,-0.14424 0.04186,-0.36192 -0.110991,-0.31458 -0.09576,-0.36718 0.158154,-0.54616 0.329915,-0.23254 0.295272,-0.33187 -0.127234,-0.36482 l -0.326518,-0.0254 -0.09828,-0.29563 c -0.08167,-0.24566 -0.116084,-0.29299 -0.203651,-0.28003 -0.07818,0.0116 -0.130494,0.0911 -0.202709,0.30835 l -0.09733,0.29276 -0.321261,0 c -0.31496,0 -0.42568,0.0604 -0.340174,0.18552 0.02562,0.0375 0.347818,0.28769 0.457542,0.35529 0.0092,0.006 -0.02284,0.13587 -0.07121,0.28932 -0.08474,0.26884 -0.07622,0.44277 0.0217,0.44277 0.02574,0 0.16161,-0.079 0.301933,-0.17551 z m 4.053106,-10e-4 c 0.136781,-0.0973 0.274615,-0.16025 0.306297,-0.14002 0.03168,0.0202 0.155471,0.10346 0.275086,0.18494 0.334069,0.22757 0.398643,0.0598 0.187616,-0.48739 -0.02352,-0.061 0.03172,-0.13216 0.197624,-0.25457 0.395848,-0.29206 0.372584,-0.39901 -0.0868,-0.39901 l -0.316249,0 -0.1008,-0.29276 c -0.07642,-0.22194 -0.127429,-0.29656 -0.210866,-0.30845 -0.09363,-0.0133 -0.124042,0.0285 -0.203662,0.28004 l -0.0936,0.29571 -0.330495,0.0255 c -0.428451,0.033 -0.454894,0.12303 -0.110411,0.37591 l 0.251534,0.18464 -0.09018,0.29145 c -0.144845,0.46814 -0.06967,0.52461 0.324904,0.24408 z m 4.056218,-0.003 0.245627,-0.18031 0.258231,0.18552 c 0.378747,0.2721 0.485171,0.19797 0.333387,-0.23223 -0.04201,-0.11906 -0.07548,-0.24222 -0.07439,-0.27371 0.0011,-0.0315 0.104196,-0.13243 0.22912,-0.22433 0.132206,-0.0973 0.227135,-0.208 0.227135,-0.26498 0,-0.0854 -0.04375,-0.0998 -0.342053,-0.11295 l -0.342054,-0.015 -0.08423,-0.28003 c -0.07026,-0.2336 -0.103599,-0.28004 -0.201047,-0.28004 -0.09696,0 -0.133414,0.0498 -0.21441,0.29277 l -0.09759,0.29276 -0.326709,0 c -0.305197,0 -0.326635,0.008 -0.325589,0.11456 7.63e-4,0.0783 0.07318,0.16286 0.229009,0.26731 0.12534,0.084 0.227941,0.1773 0.228001,0.20732 5.1e-5,0.03 -0.03655,0.16217 -0.08136,0.29368 -0.08305,0.24372 -0.06997,0.39002 0.03486,0.39002 0.03213,0 0.168953,-0.0811 0.304048,-0.18031 z m -18.2430895,-1.73011 0.2662541,-0.1793 0.257128,0.17687 c 0.1414203,0.0973 0.2905167,0.16406 0.3313252,0.1484 0.09177,-0.0352 0.091722,-0.0455 -0.00163,-0.35316 -0.041702,-0.13747 -0.07607,-0.2747 -0.076373,-0.30496 -3.055e-4,-0.0303 0.102553,-0.12906 0.2285693,-0.21955 0.1328517,-0.0954 0.2291204,-0.20503 0.2291204,-0.26089 0,-0.0834 -0.045699,-0.0984 -0.3396228,-0.11139 l -0.3396228,-0.0151 -0.098357,-0.29562 c -0.081728,-0.24565 -0.116172,-0.29299 -0.2037323,-0.28004 -0.078182,0.0116 -0.1304939,0.0911 -0.2027092,0.30835 l -0.097333,0.29277 -0.3267087,0 c -0.2879888,0 -0.3267088,0.0116 -0.3267088,0.0975 0,0.076 0.2100442,0.28273 0.449524,0.44241 0.00921,0.006 -0.022835,0.13671 -0.071206,0.29016 -0.082691,0.26233 -0.076431,0.44277 0.01536,0.44277 0.022255,0 0.1602787,-0.0807 0.3067184,-0.17931 z m 4.0997016,-0.0381 0.1922321,-0.14959 0.2745611,0.1891 c 0.3820217,0.2631 0.4709817,0.17974 0.3058737,-0.28665 -0.07877,-0.22249 -0.07868,-0.22295 0.06364,-0.34256 0.07838,-0.0659 0.195588,-0.16442 0.260454,-0.21899 0.180175,-0.15158 0.113169,-0.21854 -0.246956,-0.24677 l -0.324727,-0.0255 -0.1063668,-0.28004 c -0.076938,-0.20255 -0.1359922,-0.28434 -0.2134425,-0.29562 -0.089609,-0.0131 -0.1231079,0.0326 -0.2053515,0.28004 l -0.098276,0.29562 -0.326518,0.0255 c -0.4253111,0.0332 -0.4502664,0.12415 -0.1025609,0.37395 l 0.2552718,0.1834 -0.074596,0.21142 c -0.1795438,0.50888 -0.062798,0.60541 0.346762,0.28669 z m 4.0025969,0.0384 0.260291,-0.17905 0.260292,0.17905 c 0.14316,0.0985 0.281351,0.17905 0.307092,0.17905 0.09361,0 0.102916,-0.1562 0.02324,-0.39002 -0.04481,-0.13151 -0.08147,-0.26498 -0.08147,-0.29661 0,-0.0316 0.103104,-0.13018 0.22912,-0.219 0.142672,-0.10057 0.22912,-0.20032 0.22912,-0.26438 0,-0.0925 -0.03283,-0.10288 -0.326708,-0.10288 l -0.326709,0 -0.09759,-0.29277 c -0.08163,-0.24488 -0.11702,-0.29276 -0.216392,-0.29276 -0.09937,0 -0.134765,0.0479 -0.216391,0.29276 l -0.09759,0.29277 -0.326708,0 c -0.287989,0 -0.326709,0.0116 -0.326709,0.0975 0,0.0792 0.138686,0.21569 0.453672,0.44656 0.01149,0.008 -0.02003,0.15046 -0.07004,0.31564 -0.08509,0.28104 -0.07838,0.41314 0.02099,0.41314 0.02321,0 0.159329,-0.0806 0.30249,-0.17905 z m 4.053529,0.003 c 0.135886,-0.0966 0.271663,-0.1615 0.301727,-0.14421 0.03006,0.0173 0.150142,0.0989 0.266842,0.18127 0.116699,0.0824 0.236987,0.13448 0.267307,0.11574 0.07632,-0.0472 0.06889,-0.23082 -0.01947,-0.48126 l -0.0746,-0.21142 0.255272,-0.1834 c 0.348753,-0.25055 0.323023,-0.34086 -0.106538,-0.37395 l -0.330495,-0.0255 -0.0951,-0.29276 c -0.07675,-0.23628 -0.116246,-0.29277 -0.204693,-0.29277 -0.08779,0 -0.129649,0.0583 -0.210393,0.29277 l -0.100801,0.29276 -0.326975,0.0255 c -0.362401,0.0282 -0.429732,0.0949 -0.249202,0.24677 0.06487,0.0546 0.181197,0.15311 0.258514,0.21899 l 0.140578,0.11977 -0.08471,0.26123 c -0.08084,0.24931 -0.07167,0.42613 0.02211,0.42613 0.02395,0 0.154731,-0.0791 0.290627,-0.17566 z m 4.133004,-0.0645 0.161604,-0.12244 0.285695,0.18969 c 0.371591,0.24672 0.433471,0.19973 0.311132,-0.23628 -0.04827,-0.17203 -0.08027,-0.31776 -0.07111,-0.32385 0.237843,-0.15813 0.449428,-0.36637 0.449428,-0.44231 0,-0.086 -0.03872,-0.0975 -0.326709,-0.0975 l -0.326708,0 -0.09733,-0.29277 c -0.07221,-0.21721 -0.124527,-0.29678 -0.202709,-0.30835 -0.08756,-0.013 -0.122005,0.0344 -0.203733,0.28004 l -0.09836,0.29562 -0.339623,0.0151 c -0.293923,0.013 -0.339623,0.028 -0.339623,0.11139 0,0.0559 0.09627,0.16548 0.229121,0.26089 0.126016,0.0905 0.22912,0.18577 0.22912,0.21171 0,0.0259 -0.03683,0.17385 -0.08183,0.32868 -0.121237,0.41704 -0.0043,0.45321 0.421642,0.13047 z m -18.2796232,-1.70012 0.2299639,-0.15822 0.2203164,0.15822 c 0.2309849,0.16588 0.4327898,0.20703 0.4327898,0.0883 0,-0.0385 -0.034368,-0.16738 -0.076373,-0.28644 -0.107541,-0.3048 -0.102904,-0.32009 0.152747,-0.50369 0.2853481,-0.20492 0.3031339,-0.34337 0.050205,-0.39082 -0.098404,-0.0185 -0.2357302,-0.0227 -0.3051706,-0.009 -0.1517101,0.029 -0.1981294,-0.0212 -0.282631,-0.30591 -0.123186,-0.41498 -0.2628815,-0.40532 -0.408415,0.0282 -0.073187,0.21804 -0.096157,0.24086 -0.2545782,0.25289 -0.5841622,0.0444 -0.6547032,0.15303 -0.2759641,0.42502 0.2556509,0.1836 0.2602879,0.19889 0.1527469,0.50369 -0.042005,0.11906 -0.076373,0.24796 -0.076373,0.28644 0,0.11796 0.1989158,0.0781 0.4407369,-0.0883 z m 4.0600627,-0.002 0.2268623,-0.15991 0.2174399,0.15991 c 0.3798455,0.27934 0.4928064,0.17822 0.3267318,-0.29249 l -0.07431,-0.21062 0.2525152,-0.18852 c 0.3873775,-0.2892 0.3228052,-0.41907 -0.2091569,-0.42066 l -0.2325512,-7e-4 -0.086678,-0.27497 c -0.1350716,-0.4285 -0.2694793,-0.426 -0.4122014,0.008 l -0.087973,0.26731 -0.266213,0 c -0.2884296,0 -0.4615871,0.0857 -0.4140828,0.20501 0.016435,0.0413 0.1321923,0.14376 0.2572386,0.22777 0.1250458,0.084 0.2274066,0.16705 0.2274672,0.18454 5.1e-5,0.0175 -0.034257,0.12919 -0.076262,0.24825 -0.1575621,0.44658 -0.044444,0.52627 0.3511739,0.24742 z m 4.0467465,0 0.21744,-0.15991 0.226862,0.15991 c 0.257383,0.18142 0.427548,0.20814 0.427548,0.0671 0,-0.051 -0.03709,-0.20161 -0.08242,-0.33465 -0.08169,-0.23974 -0.08135,-0.24263 0.03819,-0.32509 0.06633,-0.0458 0.186788,-0.14861 0.267675,-0.22855 0.191253,-0.18903 0.122818,-0.26224 -0.25049,-0.26797 -0.317618,-0.005 -0.343945,-0.0234 -0.431677,-0.3039 -0.129101,-0.41276 -0.2585,-0.41108 -0.389675,0.005 l -0.08668,0.27497 -0.232551,7e-4 c -0.522589,0.002 -0.606935,0.14904 -0.232551,0.40663 0.256075,0.17618 0.25776,0.182 0.15285,0.5278 -0.04134,0.13627 -0.06265,0.26802 -0.04736,0.29277 0.05307,0.0859 0.20654,0.0442 0.422841,-0.11491 z m 4.055575,6.1e-4 0.221808,-0.15929 0.2166,0.15929 c 0.359315,0.26425 0.502067,0.20525 0.376401,-0.15555 -0.113707,-0.32646 -0.09948,-0.37833 0.151091,-0.55072 0.374384,-0.25759 0.290038,-0.40507 -0.232551,-0.40663 l -0.232551,-7e-4 -0.08668,-0.27497 c -0.133966,-0.42499 -0.278707,-0.41518 -0.406608,0.0276 l -0.06412,0.22194 -0.318809,0.0307 c -0.419639,0.0404 -0.489382,0.11103 -0.287222,0.29094 0.08443,0.0751 0.208348,0.17238 0.27537,0.2161 0.121604,0.0793 0.121681,0.08 0.03742,0.32729 -0.04644,0.1363 -0.08444,0.28955 -0.08444,0.34057 0,0.1423 0.182396,0.11436 0.43428,-0.0665 z m 4.040014,-6.1e-4 0.217439,-0.15991 0.226863,0.15991 c 0.257383,0.18142 0.427547,0.20814 0.427547,0.0671 0,-0.051 -0.03709,-0.20161 -0.08242,-0.33465 -0.08152,-0.23924 -0.08111,-0.24281 0.03669,-0.32532 0.06551,-0.0459 0.188522,-0.14746 0.273354,-0.22571 0.151871,-0.1401 0.152676,-0.14349 0.05241,-0.22075 -0.05601,-0.0432 -0.159111,-0.075 -0.22912,-0.0707 -0.374126,0.0228 -0.394316,0.0116 -0.487115,-0.27033 -0.142722,-0.43366 -0.27713,-0.43616 -0.412201,-0.008 l -0.08668,0.27497 -0.232551,7e-4 c -0.531962,0.002 -0.596535,0.13146 -0.209157,0.42066 l 0.252515,0.18852 -0.07431,0.21062 c -0.166075,0.47071 -0.05311,0.57183 0.326732,0.29248 z m 4.054084,0.002 0.220317,-0.15822 0.229963,0.15822 c 0.241822,0.16638 0.440737,0.20621 0.440737,0.0883 0,-0.0385 -0.03437,-0.16738 -0.07637,-0.28644 -0.107541,-0.3048 -0.102904,-0.32009 0.152747,-0.50369 0.378739,-0.27199 0.308198,-0.38063 -0.275965,-0.42502 -0.158421,-0.012 -0.18139,-0.0349 -0.254578,-0.25289 -0.04425,-0.13181 -0.109085,-0.26814 -0.14409,-0.30295 -0.08909,-0.0886 -0.170437,0.002 -0.271379,0.30295 -0.07319,0.21804 -0.09616,0.24086 -0.254578,0.25289 -0.584162,0.0444 -0.654703,0.15303 -0.275964,0.42502 0.126016,0.0905 0.228872,0.17785 0.228569,0.1941 -3.05e-4,0.0163 -0.03467,0.14203 -0.07637,0.2795 -0.0417,0.13747 -0.07582,0.28067 -0.07582,0.31822 0,0.11723 0.203081,0.075 0.43279,-0.0899 z"
         id="path4585"
         inkscape:connector-curvature="0"
         sodipodi:nodetypes="cccccscssscccccscccccccccscccccccccccccccccccccsscccscccsccccccccccsccccccccsccccccsccccccscccccccccsccccccccccsccccccccscccccsccccscsccsccsccscccccccccscccccccccccsccssccccsccccsccscccsccccscccccccscccccccccsccccccccccccccccscccsccsccsccccccscsccscscccccccccscccccccccscccscccsccccsccsccsccccccccccccccccscsccccscccccccccsccsccccsccccsccsccscccccsccccccccscccccscccsccccsccsccscccsccsccccccccccccccccsccccccccscccccccccccsccccccsccscscccccscscccsccccccssscccsccccccscsccccccscsccsscccccccscccsccccccccccccsccccsscccccccsccccsccccsccscscsssccscsscccscccccccscccccccsccccscccccsccscccssccccssccccsccccccccccccccsccscccscccsccccsssccccscscscscscccccsscssccccccccscccccsccccscccsccsscccccccscccscccccccccscccscccsccsccccsccccccccssccccccsscsscccccccscccccccccsccccscscssccsccsscssccccccccccccscccccccscccssssscscsccssscccccsscccccccccsccccsscsccsccsccccccccssccccsccccccccccssccccccccccsccccsscccccccccscsccccsscccccccscsscc" />
    </g>
  </g>
</svg>
