<?xml version="1.0" encoding="UTF-8" standalone="no"?>
<!-- Created with Inkscape (http://www.inkscape.org/) -->

<svg
   xmlns:dc="http://purl.org/dc/elements/1.1/"
   xmlns:cc="http://creativecommons.org/ns#"
   xmlns:rdf="http://www.w3.org/1999/02/22-rdf-syntax-ns#"
   xmlns:svg="http://www.w3.org/2000/svg"
   xmlns="http://www.w3.org/2000/svg"
   xmlns:sodipodi="http://sodipodi.sourceforge.net/DTD/sodipodi-0.dtd"
   xmlns:inkscape="http://www.inkscape.org/namespaces/inkscape"
   width="18mm"
   height="22mm"
   viewBox="0 0 63.779528 77.952758"
   id="svg2"
   version="1.1"
   inkscape:version="0.91 r13725"
   sodipodi:docname="es.svg">
  <defs
     id="defs4" />
  <sodipodi:namedview
     id="base"
     pagecolor="#ffffff"
     bordercolor="#666666"
     borderopacity="1.0"
     inkscape:pageopacity="0.0"
     inkscape:pageshadow="2"
     inkscape:zoom="5.1442455"
     inkscape:cx="-12.622699"
     inkscape:cy="24.212694"
     inkscape:document-units="px"
     inkscape:current-layer="layer1"
     showgrid="false"
     inkscape:window-width="1366"
     inkscape:window-height="705"
     inkscape:window-x="-8"
     inkscape:window-y="-8"
     inkscape:window-maximized="1" />
  <metadata
     id="metadata7">
    <rdf:RDF>
      <cc:Work
         rdf:about="">
        <dc:format>image/svg+xml</dc:format>
        <dc:type
           rdf:resource="http://purl.org/dc/dcmitype/StillImage" />
        <dc:title></dc:title>
      </cc:Work>
    </rdf:RDF>
  </metadata>
  <g
     inkscape:label="Layer 1"
     inkscape:groupmode="layer"
     id="layer1"
     transform="translate(0,-974.40946)">
    <g
       id="g4195">
      <g
         id="g4148">
        <path
           inkscape:connector-curvature="0"
           id="path4164"
           d="m 1.5329109,1010.7372 0,-16.20278 30.5417591,0 30.54176,0 0,16.20278 0,16.2027 -30.54176,0 -30.5417591,0 0,-16.2027 z"
           style="fill:#f6f7f6" />
        <path
           sodipodi:nodetypes="ccsccsccccccccccc"
           inkscape:connector-curvature="0"
           id="path4162"
           d="m 1.5329109,1010.7372 0,-16.20278 10.1660641,0 c 9.1449,0 10.174339,0.02 10.248457,0.19945 0.107698,0.2607 0.107698,31.74583 0,32.00653 -0.07412,0.1795 -1.103557,0.1995 -10.248457,0.1995 l -10.1660641,0 z m 40.7223461,0 0,-16.20278 10.180586,0 10.180587,0 0,16.20278 0,16.2027 -10.180587,0 -10.180586,0 z"
           style="fill:#aa9761" />
        <path
           sodipodi:nodetypes="ccsccsccccccccccc"
           inkscape:connector-curvature="0"
           id="path4160"
           d="m 1.5329109,1010.7372 0,-16.20278 10.1660641,0 c 9.1449,0 10.174339,0.02 10.248457,0.19945 0.107698,0.2607 0.107698,31.74583 0,32.00653 -0.07412,0.1795 -1.103557,0.1995 -10.248457,0.1995 l -10.1660641,0 z m 40.7902161,-0.063 0,-16.13969 10.146652,1e-5 10.146651,0 0,16.13968 0,16.1397 -10.146651,0 -10.146652,0 z"
           style="fill:#55a18d" />
        <path
           sodipodi:nodetypes="cccccccccccccccccc"
           inkscape:connector-curvature="0"
           id="path4158"
           d="m 1.5329109,1010.738 0,-16.20358 10.1466511,0 10.146651,-10e-6 -0.03338,16.17119 -0.03339,16.1712 -10.113267,0.032 -10.1132661,0.032 0,-16.2035 z m 40.7902161,-16.20369 10.146652,10e-6 10.146651,0 0,16.13968 0,16.1397 -10.146651,0 -10.146652,0 z"
           style="fill:#d02a26" />
        <path
           sodipodi:nodetypes="cccccccccc"
           inkscape:connector-curvature="0"
           id="path4156"
           d="m 1.5329109,1010.738 0,-16.20358 10.1466511,0 10.146651,-10e-6 -0.03338,16.17119 -0.03339,16.1712 -10.113267,0.032 -10.1132661,0.032 0,-16.2035 z"
           style="fill:#2d8e5f" />
        <path
           sodipodi:nodetypes="ccccccccc"
           inkscape:connector-curvature="0"
           id="path4154"
           d="m 1.5329109,1010.6741 0,-16.13968 10.0787811,0 10.07878,-10e-6 0,16.13969 0,16.1397 -10.07878,0 -10.0787811,0 z"
           style="fill:#704718" />
        <path
           sodipodi:nodetypes="ccccccccc"
           inkscape:connector-curvature="0"
           id="path4152"
           d="m 1.5329109,1010.6741 0,-16.13968 10.0787811,0 10.07878,-10e-6 0,16.13969 0,16.1397 -10.07878,0 -10.0787811,0 z"
           style="fill:#066c49" />
      </g>
      <g
         transform="matrix(0.90634284,0,0,0.90634284,2.8581008,95.392188)"
         id="g4177">
        <path
           inkscape:connector-curvature="0"
           id="path4193"
           d="m 22.21435,1008.6663 0,-9.85893 9.858946,0 9.858946,0 0,9.85893 0,9.859 -9.858946,0 -9.858946,0 0,-9.859 z"
           style="fill:#f7f9f6" />
        <path
           inkscape:connector-curvature="0"
           id="path4191"
           d="m 32.22792,1017.1778 c -0.223055,-0.1207 -0.329645,-0.1311 -0.466963,-0.045 -0.227921,0.1423 -0.476377,0.1429 -0.476377,10e-4 0,-0.065 -0.103759,-0.09 -0.254244,-0.062 -0.350601,0.067 -0.405116,-0.1464 -0.134481,-0.5264 0.205921,-0.2892 0.20766,-0.3035 0.02514,-0.2058 -0.107843,0.058 -0.294564,0.079 -0.414936,0.048 -0.166281,-0.043 -0.297647,0.029 -0.546831,0.3009 -0.364015,0.3974 -0.733463,0.4729 -0.813656,0.1662 -0.03602,-0.1378 -0.151525,-0.2003 -0.409775,-0.2218 -0.324564,-0.027 -0.357806,-0.056 -0.341096,-0.3008 0.01444,-0.2112 -0.03346,-0.2838 -0.217783,-0.3301 -0.318375,-0.08 -0.406494,-0.209 -0.490673,-0.719 -0.06893,-0.4176 -0.06333,-0.4309 0.161385,-0.3824 0.128033,0.028 0.317462,0.086 0.420952,0.1287 0.167291,0.07 0.181513,0.045 0.128206,-0.2213 -0.07306,-0.3653 0.2445,-0.7192 0.645413,-0.7192 0.142421,0 0.283261,-0.039 0.312976,-0.087 0.09134,-0.1478 -0.180437,-0.298 -0.790225,-0.4369 -0.533125,-0.1214 -0.580623,-0.1537 -0.553959,-0.3764 0.03509,-0.2931 -0.188731,-0.5094 -0.6954,-0.6721 -0.344829,-0.1107 -0.566133,-0.3412 -0.566133,-0.5896 0,-0.1933 0.573042,-0.1079 0.855094,0.1273 0.291284,0.2429 1.150052,0.6549 1.365154,0.6549 0.06864,0 0.15034,-0.067 0.181552,-0.1479 0.09046,-0.2357 0.293406,-0.1657 0.507909,0.1752 0.216893,0.3448 0.519082,0.4628 0.649352,0.2535 0.05862,-0.094 0.320908,-0.1329 0.899119,-0.1329 0.747882,0 0.818782,-0.017 0.845279,-0.2022 0.02717,-0.1898 -0.01084,-0.1995 -0.626273,-0.1604 -0.533726,0.034 -0.749282,-6e-4 -1.162701,-0.1869 -0.279128,-0.1258 -0.561576,-0.2931 -0.627662,-0.3719 -0.09046,-0.1077 -0.153104,-0.1157 -0.253494,-0.032 -0.34866,0.2893 -1.884842,-0.1955 -2.142037,-0.6761 -0.05713,-0.1067 -0.184385,-0.194 -0.282789,-0.194 -0.471835,0 -1.468274,-1.0657 -1.33098,-1.4235 0.03797,-0.099 -0.01734,-0.25 -0.139405,-0.3808 -0.267019,-0.2861 -0.359544,-0.6898 -0.218501,-0.9534 0.0859,-0.1605 0.08595,-0.2462 2.46e-4,-0.3495 -0.06247,-0.075 -0.09695,-0.2166 -0.07664,-0.3141 0.02936,-0.1409 0.0666,-0.1168 0.181615,0.1177 0.09767,0.1991 0.238189,0.3113 0.432462,0.3451 0.21239,0.037 0.307202,0.1228 0.361927,0.3275 0.09706,0.3631 0.267536,0.5606 0.484042,0.5606 0.196395,0 0.735085,0.5689 0.834096,0.8808 0.07043,0.2219 0.199532,0.2641 0.301783,0.099 0.03569,-0.058 0.188711,-0.092 0.340048,-0.076 0.242791,0.025 0.413928,-0.028 0.981083,-0.3056 0.07811,-0.038 0.157623,-0.1164 0.176699,-0.1736 0.06275,-0.1882 -0.269301,-0.226 -0.692008,-0.079 -0.810554,0.2824 -1.450612,0.084 -1.450612,-0.4504 0,-0.2835 -0.162608,-0.5658 -0.605531,-1.0511 -0.423394,-0.464 -0.485165,-0.8199 -0.22845,-1.3163 0.189344,-0.3662 0.136932,-0.4529 -0.353519,-0.585 -0.229661,-0.062 -0.457644,-0.2077 -0.553602,-0.3541 -0.154629,-0.236 -0.15241,-0.2597 0.04253,-0.4547 0.205084,-0.2051 0.207139,-0.2051 0.720769,-0.018 0.803569,0.2923 1.013378,0.7129 0.826281,1.6564 -0.06268,0.316 -0.04386,0.4081 0.105775,0.5176 0.280808,0.2053 0.340782,0.1604 0.225883,-0.1692 -0.274253,-0.7868 0.122731,-1.7352 0.99471,-2.3764 0.221424,-0.1629 0.402588,-0.3324 0.402588,-0.3769 0,-0.1113 -0.860638,-0.3951 -1.198104,-0.3951 -0.330313,0 -0.516497,-0.3059 -0.620353,-1.0193 -0.07912,-0.5434 0.01886,-0.707 0.672224,-1.1221 0.335568,-0.2132 0.399442,-0.2251 0.526464,-0.098 0.127023,0.127 0.125543,0.1813 -0.01219,0.4477 -0.199836,0.3864 -0.197391,0.4115 0.04014,0.4115 0.288224,0 0.986178,-0.6663 0.986178,-0.9415 0,-0.138 0.07435,-0.2519 0.188071,-0.288 0.103439,-0.033 0.212673,-0.1238 0.242742,-0.2022 0.03007,-0.078 0.11841,-0.118 0.196314,-0.088 0.0779,0.03 0.170035,0.01 0.204734,-0.048 0.06868,-0.1111 0.637069,-0.038 0.789936,0.1017 0.188086,0.1718 0.349992,0.083 0.349992,-0.1914 0,-0.3967 0.194859,-0.6106 0.747598,-0.8205 0.935896,-0.35541 2.252068,-0.15027 3.540013,0.5518 0.451053,0.2459 0.935273,0.447 1.076043,0.447 0.190635,0 0.255946,0.051 0.255946,0.1982 0,0.109 0.09246,0.2753 0.205461,0.3697 0.659445,0.5506 1.783232,2.2165 2.011275,2.9813 0.04042,0.1356 0.151153,0.3353 0.246081,0.4437 0.181319,0.2071 0.170853,0.6788 -0.07986,3.5985 -0.120084,1.3985 -0.568445,2.2049 -0.708306,1.2738 -0.03768,-0.2508 -0.06829,-0.2934 -0.119505,-0.1663 -0.0905,0.2246 -0.372078,0.1166 -0.372078,-0.1427 0,-0.1393 -0.04578,-0.1796 -0.155948,-0.1373 -0.08577,0.033 -0.177721,0.06 -0.204334,0.06 -0.02661,0 0.04109,0.1138 0.150438,0.2528 0.109355,0.139 0.175935,0.3124 0.147957,0.3853 -0.09507,0.2478 -1.230846,0.5449 -2.083848,0.5452 l -0.565475,2e-4 0.0082,0.4188 c 0.01337,0.6806 0.03373,0.7639 0.186679,0.7639 0.08009,0 0.216819,-0.1087 0.303851,-0.2415 0.195885,-0.299 0.785855,-0.6574 0.967384,-0.5878 0.07409,0.029 0.303554,-0.043 0.509921,-0.159 0.305357,-0.1715 0.419333,-0.1907 0.612186,-0.1028 0.201252,0.092 0.264479,0.074 0.419443,-0.1152 0.138653,-0.1697 0.210356,-0.1959 0.298597,-0.1092 0.08872,0.087 0.05547,0.1538 -0.140886,0.2825 -0.15737,0.1031 -0.257013,0.259 -0.257013,0.4022 0,0.174 -0.08823,0.2706 -0.345063,0.378 -0.256385,0.1071 -0.345063,0.204 -0.345063,0.3772 0,0.2609 -0.414486,0.7045 -0.786468,0.8416 -0.164242,0.061 -0.244962,0.1663 -0.246474,0.3227 -0.0026,0.2674 -0.345321,0.4822 -0.772797,0.4844 -0.437864,0 -0.681062,0.1704 -0.563734,0.3896 0.120493,0.2252 -0.0028,0.3414 -0.508248,0.4793 -0.20003,0.055 -0.524878,0.2222 -0.721886,0.3725 -0.258815,0.1974 -0.506666,0.2855 -0.893326,0.3176 -0.294321,0.024 -0.53513,0.079 -0.53513,0.1202 0,0.2927 1.394233,0.1672 1.833071,-0.165 0.406065,-0.3074 1.482454,-0.4409 1.576607,-0.1956 0.09678,0.2522 0.548867,0.192 0.841235,-0.1121 0.141921,-0.1476 0.315388,-0.4459 0.385483,-0.6628 0.123457,-0.382 0.848522,-1.3308 1.017081,-1.3309 0.04574,0 0.107032,0.091 0.136193,0.2027 0.03313,0.1267 0.106671,0.1822 0.196013,0.1479 0.07865,-0.03 0.183727,-0.055 0.233517,-0.055 0.12498,0 0.484884,-0.3708 0.484884,-0.4995 0,-0.062 -0.08521,-0.078 -0.209488,-0.039 -0.129536,0.041 -0.239933,0.017 -0.289263,-0.063 -0.106949,-0.173 -0.02432,-0.2864 0.208801,-0.2864 0.132559,0 0.191529,-0.068 0.19191,-0.2218 0.0016,-0.6656 0.487351,-1.5088 0.904877,-1.571 0.114713,-0.017 0.29758,-0.1507 0.406368,-0.297 0.189779,-0.2551 0.19118,-0.2833 0.03454,-0.6934 -0.167153,-0.4377 -0.226174,-1.4561 -0.08438,-1.4561 0.04338,0 0.130462,0.052 0.193516,0.1146 0.08713,0.087 0.14055,0.047 0.222599,-0.1693 0.21117,-0.5554 0.292689,-0.5762 0.668365,-0.1703 0.26318,0.2843 0.356089,0.4814 0.391057,0.8295 0.044,0.438 0.02737,0.474 -0.409209,0.8848 -0.25029,0.2356 -0.455073,0.4565 -0.455073,0.491 0,0.034 0.110913,0.041 0.246474,0.016 0.182257,-0.035 0.246473,0 0.246473,0.1154 0,0.208 -0.259057,0.3094 -0.429331,0.1681 -0.172927,-0.1435 -0.260795,-0.042 -0.260795,0.3003 0,0.2323 0.04156,0.2794 0.246474,0.2794 0.290743,0 0.298671,0.058 0.08383,0.6142 -0.21766,0.5634 -0.553416,0.9087 -1.078572,1.1092 -0.455319,0.1739 -0.573838,0.347 -0.237623,0.347 0.11134,0 0.197179,0.066 0.197179,0.1509 0,0.2269 -0.286975,0.2931 -0.428929,0.099 -0.114901,-0.1571 -0.133306,-0.1576 -0.259104,-0.01 -0.07448,0.09 -0.169123,0.4116 -0.210319,0.7151 -0.111788,0.8238 -0.388563,1.0605 -1.248222,1.0674 -0.693746,0.01 -1.029545,0.132 -1.516991,0.5715 -0.144227,0.13 -0.25514,0.3177 -0.246474,0.4171 0.01075,0.1233 -0.125272,0.2508 -0.427897,0.4009 -0.521866,0.259 -0.886374,0.2821 -1.507254,0.095 -0.249759,-0.075 -0.474784,-0.116 -0.500055,-0.091 -0.02527,0.025 -0.224288,-0.057 -0.442259,-0.1822 -0.217972,-0.1254 -0.422512,-0.2018 -0.454535,-0.1698 -0.117634,0.1176 0.05851,0.3387 0.447131,0.5612 0.427048,0.2444 0.467458,0.4694 0.08085,0.4499 -0.130072,-0.01 -0.271974,0.049 -0.315337,0.1233 -0.100733,0.1726 -0.244483,0.1657 -0.604545,-0.029 z m -0.909634,-1.4199 c 0.486294,-0.4281 0.656421,-0.4333 0.656421,-0.02 0,0.323 0.05266,0.2676 0.129421,-0.1363 l 0.05916,-0.3112 -0.611884,-0.07 c -0.428759,-0.049 -0.738761,-0.1549 -1.03583,-0.3542 -0.473737,-0.3178 -1.127344,-0.3841 -1.451335,-0.1472 -0.160076,0.1171 -0.168167,0.1607 -0.05506,0.297 0.103326,0.1245 0.163262,0.1343 0.271521,0.044 0.108675,-0.09 0.197065,-0.072 0.405925,0.082 0.146849,0.1085 0.484256,0.2933 0.749793,0.4107 0.472773,0.2091 0.479107,0.2176 0.305136,0.4098 -0.338566,0.3741 0.09321,0.2207 0.576733,-0.2049 z m 4.190943,-2.5981 c 0.126354,-0.1264 0.108845,-0.1518 -0.142448,-0.2073 -0.157578,-0.035 -0.431195,-0.1365 -0.608036,-0.226 -0.2623,-0.1327 -0.357401,-0.1402 -0.516257,-0.041 -0.1071,0.067 -0.268753,0.1216 -0.35923,0.1216 -0.153122,0 -0.153214,0.012 -0.0013,0.1803 0.08974,0.099 0.163164,0.2386 0.163164,0.31 0,0.1795 1.265986,0.061 1.464144,-0.1376 z m -3.16108,-2.2999 c -0.02346,-0.2241 0.01431,-0.2768 0.218094,-0.3041 0.412999,-0.055 0.416779,-0.1628 0.02138,-0.6084 -0.279119,-0.3145 -0.416999,-0.4041 -0.520903,-0.3382 -0.238353,0.151 -1.499198,0.1477 -1.668023,0 -0.08212,-0.074 -0.278212,-0.1667 -0.435766,-0.206 -0.363922,-0.091 -0.604043,0.1682 -0.440007,0.4747 0.07352,0.1374 0.0724,0.2256 -0.0038,0.3019 -0.157741,0.1577 -0.131394,0.4597 0.04605,0.5278 0.09179,0.035 0.261754,-0.044 0.421656,-0.1976 0.228214,-0.2187 0.325895,-0.2477 0.659593,-0.196 0.478077,0.074 1.017474,0.3348 1.269645,0.6137 0.268599,0.297 0.466787,0.2679 0.432104,-0.063 z m 2.463352,-0.338 c -0.05403,-0.1621 -0.348441,-0.3346 -0.430673,-0.2524 -0.09379,0.094 0.148788,0.3686 0.325376,0.3686 0.07922,0 0.126599,-0.052 0.105297,-0.1162 z m 2.535118,-1.338 c -0.113251,-0.7044 -0.145336,-0.7901 -0.318124,-0.8497 -0.31748,-0.1096 -0.731372,-0.4048 -0.847584,-0.6045 -0.06556,-0.1126 -0.218715,-0.1972 -0.357289,-0.1972 -0.166284,0 -0.314275,-0.1064 -0.470678,-0.3385 -0.264045,-0.3918 -1.080911,-0.9184 -0.966474,-0.6231 0.03684,0.095 0.10285,0.3635 0.146689,0.5965 0.04384,0.2329 0.106678,0.4505 0.139641,0.4835 0.150187,0.1502 2.585195,1.8884 2.654852,1.8951 0.04313,0 0.05166,-0.1587 0.01897,-0.3621 z m -9.255553,-1.0845 c 0.187935,-0.2475 0.171636,-0.2891 -0.158527,-0.4042 -0.31875,-0.1111 -0.347018,-0.068 -0.233629,0.3549 0.07129,0.266 0.214022,0.284 0.392156,0.049 z m 1.53294,-1.7429 c -0.08836,-0.275 -0.16019,-0.6847 -0.15963,-0.9105 8.58e-4,-0.3463 -0.02372,-0.3973 -0.157061,-0.326 -0.365487,0.1956 -1.177597,1.0158 -1.177597,1.1893 0,0.3705 0.300105,0.5326 1.00003,0.5402 l 0.654905,0.01 -0.160647,-0.5 z m 0.473141,-2.5015 c 0.121218,-0.4391 0.07905,-0.4855 -0.246769,-0.2721 -0.16017,0.105 -0.235757,0.2247 -0.200256,0.3172 0.03137,0.082 0.05703,0.2392 0.05703,0.3498 0,0.3118 0.270485,0.038 0.389998,-0.3949 z m -3.24805,11.6645 c -0.163816,-0.1973 -0.0547,-0.4449 0.196137,-0.4449 0.111852,0 0.22912,0.067 0.260597,0.1492 0.05665,0.1476 -0.116982,0.4424 -0.260597,0.4424 -0.04095,0 -0.129207,-0.066 -0.196137,-0.1467 z m 10.000479,0.039 c -0.03643,-0.059 -0.01875,-0.1547 0.0393,-0.2127 0.123029,-0.1231 0.443083,0.087 0.353464,0.2325 -0.07504,0.1214 -0.312906,0.1094 -0.392762,-0.02 z m -11.221295,-0.7001 c -0.08826,-0.049 -0.160479,-0.1402 -0.160479,-0.2018 0,-0.062 -0.09524,-0.2134 -0.211649,-0.3373 -0.175132,-0.1864 -0.19006,-0.2513 -0.08652,-0.3761 0.09668,-0.1164 0.09863,-0.1827 0.0086,-0.2911 -0.144772,-0.1745 -0.03574,-0.8455 0.137374,-0.8455 0.0669,0 0.201932,0.089 0.300076,0.1972 0.09814,0.1084 0.219347,0.1971 0.269338,0.1971 0.151874,0 0.609178,0.5149 0.895299,1.008 l 0.270237,0.4658 -0.273784,0.057 c -0.150581,0.032 -0.434487,0.093 -0.6309,0.1368 -0.199505,0.044 -0.427943,0.04 -0.517595,-0.011 z m 1.740063,-0.1907 c -0.155561,-0.1556 0.04984,-0.5795 0.280783,-0.5795 0.284694,0 0.411134,0.3375 0.198534,0.5299 -0.208468,0.1886 -0.327904,0.201 -0.479317,0.05 z m 8.885536,-0.026 c -0.08967,-0.2337 0.114693,-0.4381 0.276364,-0.2764 0.09296,0.093 0.08296,0.1551 -0.04567,0.2837 -0.153852,0.1538 -0.169026,0.1534 -0.230692,-0.01 z m -12.113795,-1.8246 c -0.03264,-0.1028 -0.04672,-0.246 -0.03129,-0.3181 0.01606,-0.075 -0.07735,-0.1467 -0.218423,-0.1675 -0.349047,-0.052 -0.492947,-0.1984 -0.492947,-0.5029 0,-0.1452 -0.05219,-0.3161 -0.115978,-0.3799 -0.08891,-0.089 -0.07504,-0.1612 0.05941,-0.3098 0.09646,-0.1066 0.154741,-0.2518 0.129505,-0.3228 -0.02524,-0.071 0.01281,-0.2453 0.08454,-0.3875 0.07173,-0.1423 0.102617,-0.2864 0.06863,-0.3204 -0.03399,-0.034 0.01112,-0.062 0.100248,-0.062 0.08912,0 0.23964,0.122 0.334481,0.2711 0.09484,0.1491 0.228959,0.3066 0.298041,0.35 0.06908,0.043 0.125604,0.1627 0.125604,0.2653 0,0.1025 0.04436,0.2138 0.09859,0.2473 0.05422,0.034 0.09859,0.1722 0.09859,0.3081 0,0.1359 0.04648,0.334 0.103289,0.4401 0.0947,0.177 0.121118,0.1806 0.317705,0.043 0.280682,-0.1966 0.339518,-0.19 0.469684,0.053 0.153744,0.2872 -0.04767,0.5032 -0.434759,0.4662 -0.245671,-0.024 -0.326107,0.021 -0.433457,0.2422 -0.15197,0.3126 -0.473658,0.3608 -0.561463,0.084 z m -1.334198,-3.0596 c 0,-0.3058 0.124883,-0.3767 0.379411,-0.2154 0.199352,0.1263 0.09368,0.4505 -0.158592,0.4865 -0.187583,0.027 -0.220819,-0.014 -0.220819,-0.2711 z m 17.019005,0.2102 c -0.07795,-0.1261 0.102873,-0.3475 0.223128,-0.2732 0.158276,0.098 0.134845,0.3519 -0.03245,0.3519 -0.07814,0 -0.163939,-0.035 -0.190674,-0.079 z m -16.013393,-0.2368 c -0.176038,-0.1761 -0.143745,-0.3541 0.08658,-0.4774 0.280388,-0.15 0.485243,-0.05 0.485243,0.237 0,0.3236 -0.343975,0.4682 -0.571819,0.2404 z m -0.886496,-0.896 c -0.397154,-0.4047 -0.513361,-0.6878 -0.329029,-0.8017 0.04722,-0.029 0.112659,-0.1871 0.145419,-0.3509 0.04193,-0.2097 0.116696,-0.2978 0.252564,-0.2978 0.10615,0 0.219762,-0.084 0.252472,-0.1874 0.06831,-0.2152 0.526145,-0.3642 0.671748,-0.2186 0.188827,0.1888 0.121152,1.1225 -0.1241,1.7123 -0.129667,0.3118 -0.284905,0.5669 -0.344973,0.5669 -0.06007,0 -0.295914,-0.1903 -0.524101,-0.4228 z"
           style="fill:#9dad99" />
        <path
           inkscape:connector-curvature="0"
           id="path4189"
           d="m 31.324129,1017.1292 c -0.04216,-0.068 0.09723,-0.2575 0.34544,-0.4691 0.333812,-0.2847 0.427209,-0.4376 0.472197,-0.773 0.03085,-0.23 0.08917,-0.4181 0.129618,-0.4181 0.164918,0 0.313279,0.3075 0.256839,0.5324 -0.0597,0.2379 0.154102,0.4893 0.690292,0.8116 0.384236,0.2311 0.0169,0.2573 -0.461904,0.033 -0.311239,-0.1458 -0.524568,-0.1967 -0.566603,-0.1353 -0.07701,0.1127 -0.662379,0.5328 -0.742297,0.5328 -0.0291,0 -0.08471,-0.052 -0.123582,-0.1144 z m 0.970993,-0.049 c -0.136317,-0.055 -0.169429,-0.2305 -0.04349,-0.2305 0.04386,0 0.165864,0.065 0.271121,0.1448 0.142609,0.1079 0.153692,0.1436 0.04349,0.1401 -0.08134,0 -0.20334,-0.027 -0.271121,-0.054 z m -1.4049,-0.2651 c 0,-0.081 0.155279,-0.2424 0.345064,-0.3597 0.285473,-0.1764 0.345063,-0.2715 0.345063,-0.5503 0,-0.1854 0.04437,-0.337 0.09859,-0.337 0.05422,0 0.09859,0.1499 0.09859,0.3332 0,0.2753 -0.07707,0.3963 -0.443653,0.6967 -0.294982,0.2417 -0.443653,0.3145 -0.443653,0.2171 z m -1.577431,-0.167 c 0,-0.1763 -0.04252,-0.1937 -0.338666,-0.1381 -0.41639,0.078 -0.607769,-0.013 -0.443807,-0.21 0.169216,-0.2039 0.04299,-0.4176 -0.268034,-0.4537 -0.223956,-0.026 -0.286087,-0.094 -0.343339,-0.3761 -0.03844,-0.1895 -0.05496,-0.3594 -0.03671,-0.3776 0.01826,-0.018 0.153335,0.046 0.300174,0.1417 0.257018,0.1684 0.272046,0.168 0.402768,-0.011 0.132137,-0.1807 0.14362,-0.1799 0.427066,0.03 0.270299,0.1998 0.298132,0.2031 0.386419,0.045 0.08764,-0.1566 0.109378,-0.1575 0.275754,-0.011 0.09934,0.087 0.324802,0.2316 0.501031,0.3209 0.176229,0.089 0.320082,0.2166 0.319674,0.283 -0.0011,0.1797 -0.828498,0.9587 -1.018225,0.9587 -0.09959,0 -0.164107,-0.079 -0.164107,-0.2016 z m 5.077357,-0.2025 c -0.518768,-0.095 -0.944981,-0.263 -1.158245,-0.456 -0.261356,-0.2365 -0.210067,-0.3229 0.191699,-0.3229 0.233585,0 0.499682,-0.094 0.741203,-0.2611 0.405262,-0.2809 1.359122,-0.4524 1.359122,-0.2444 0,0.061 0.09982,0.1118 0.221826,0.1126 0.122005,8e-4 0.283744,0.041 0.35942,0.089 0.105794,0.067 0.06372,0.1253 -0.182077,0.2524 -0.236463,0.1223 -0.306669,0.215 -0.269723,0.3563 0.08584,0.3282 -0.618347,0.5927 -1.263225,0.4744 z m -7.438355,-0.9206 c -0.152989,-0.1844 -0.06874,-0.4499 0.142735,-0.4499 0.219755,0 0.299786,0.2847 0.12825,0.4563 -0.127857,0.1278 -0.160204,0.1271 -0.270985,-0.01 z m 9.896279,0.032 c -0.07432,-0.1203 0.147102,-0.3011 0.273226,-0.2232 0.04326,0.027 0.07865,0.1126 0.07865,0.1907 0,0.1673 -0.254055,0.1907 -0.351876,0.033 z m -5.215019,-0.3583 c -0.584321,-0.036 -0.888663,-0.1646 -0.785221,-0.332 0.02971,-0.048 -0.08686,-0.087 -0.259053,-0.087 -0.281081,0 -0.308247,-0.025 -0.265799,-0.2474 0.03707,-0.1939 0.01975,-0.2245 -0.08022,-0.1415 -0.07012,0.058 -0.296963,0.092 -0.504088,0.075 -0.35779,-0.029 -0.375106,-0.046 -0.346839,-0.3424 0.03545,-0.3711 -0.05154,-0.4368 -0.769173,-0.5811 -0.48799,-0.098 -0.54269,-0.1346 -0.546718,-0.3648 -0.0026,-0.1483 -0.106241,-0.339 -0.246474,-0.4535 -0.191544,-0.1565 -0.216825,-0.2233 -0.121259,-0.3205 0.09619,-0.098 0.240603,-0.071 0.710395,0.1316 0.499737,0.2156 0.607199,0.2333 0.704696,0.1158 0.164508,-0.1982 0.363075,-0.1711 0.436303,0.06 0.03461,0.109 0.195166,0.2666 0.356793,0.3502 0.161628,0.084 0.337128,0.2495 0.390002,0.3686 0.08198,0.1848 0.0891,0.1708 0.04839,-0.095 -0.02767,-0.1807 0.0023,-0.3515 0.07131,-0.4061 0.06915,-0.055 0.462779,-0.068 0.939109,-0.031 0.874362,0.067 0.957928,0.034 0.955805,-0.3847 -0.0014,-0.2672 0.03358,-0.2627 -1.047409,-0.1351 -0.363251,0.043 -0.55504,0 -0.95427,-0.1995 -0.274807,-0.1392 -0.525944,-0.2957 -0.558083,-0.3477 -0.03369,-0.054 -0.341464,-0.071 -0.726817,-0.038 -0.774016,0.065 -1.151473,-0.076 -1.663766,-0.6201 -0.173465,-0.1843 -0.405603,-0.3351 -0.515864,-0.3351 -0.110261,0 -0.40629,-0.1972 -0.657842,-0.4383 -0.388644,-0.3723 -0.450753,-0.4833 -0.413336,-0.7382 0.03408,-0.2322 0.0013,-0.3136 -0.1449,-0.36 -0.103913,-0.033 -0.251285,-0.2092 -0.327495,-0.3916 -0.198225,-0.4744 -0.02686,-0.8324 0.398445,-0.8324 0.286262,0 0.322286,0.04 0.493136,0.5422 0.101372,0.2983 0.234953,0.5423 0.296845,0.5423 0.163659,0 0.709198,0.6017 0.7909,0.8724 0.06453,0.2137 0.105163,0.2263 0.52847,0.1638 0.252212,-0.037 0.599794,-0.1747 0.772404,-0.3055 0.172611,-0.1308 0.384739,-0.2378 0.471395,-0.2378 0.08666,0 0.183093,-0.067 0.214305,-0.1479 0.08477,-0.2209 0.255895,-0.1787 0.184718,0.046 -0.03377,0.1064 -0.01551,0.2792 0.04058,0.384 0.07709,0.1441 0.06518,0.2211 -0.04882,0.3157 -0.0832,0.069 -0.137513,0.2394 -0.121165,0.3801 0.03454,0.2971 0.230727,0.3163 0.777164,0.076 0.299516,-0.1316 0.391459,-0.1353 0.605162,-0.024 0.138594,0.072 0.360316,0.11 0.492715,0.085 0.17833,-0.034 0.282756,0.018 0.402878,0.2015 0.08918,0.1361 0.318556,0.304 0.509717,0.3732 0.252747,0.091 0.347564,0.1842 0.347564,0.3402 0,0.275 0.262731,0.5084 0.40833,0.3628 0.12931,-0.1293 0.04147,-0.4243 -0.214078,-0.7189 -0.289358,-0.3337 -0.25667,-0.6663 0.06927,-0.7049 0.377298,-0.045 0.379866,-0.1947 0.01154,-0.6745 -0.43013,-0.5603 -0.648925,-0.6928 -0.775859,-0.47 -0.07018,0.1233 -0.153277,0.1472 -0.309722,0.089 -0.117597,-0.044 -0.383902,-0.036 -0.591788,0.017 -0.305776,0.078 -0.411873,0.065 -0.555433,-0.065 -0.0976,-0.088 -0.241732,-0.1606 -0.320289,-0.1606 -0.07856,0 -0.230343,-0.06 -0.3373,-0.1331 -0.309005,-0.2117 -1.071257,-0.2782 -1.289904,-0.1127 -0.409732,0.3102 -1.221417,0.068 -1.221417,-0.3643 0,-0.2844 -0.35199,-0.8251 -0.697077,-1.0708 -0.333374,-0.2374 -0.3731,-0.558 -0.13867,-1.1191 0.182764,-0.4374 0.06454,-0.7611 -0.248131,-0.6793 -0.474961,0.1242 -1.055902,-0.4084 -0.835116,-0.7657 0.141795,-0.2294 0.851536,-0.034 1.160354,0.3194 0.25357,0.2902 0.280556,0.3827 0.23932,0.8201 -0.02556,0.2711 -0.07846,0.5686 -0.117551,0.6612 -0.05146,0.1218 0.03972,0.2715 0.330342,0.5422 0.277984,0.259 0.426046,0.4951 0.481514,0.7678 0.05101,0.2509 0.141187,0.4056 0.248325,0.4263 0.09252,0.018 0.168227,-0.024 0.168227,-0.093 0,-0.069 0.138879,-0.2691 0.308621,-0.4442 l 0.308621,-0.3184 -0.341363,-0.1426 c -0.817828,-0.3417 -1.020534,-1.2316 -0.469913,-2.0629 0.164403,-0.2482 0.416218,-0.5281 0.559591,-0.6221 0.143372,-0.094 0.363813,-0.282 0.489867,-0.4181 0.274328,-0.296 0.162368,-0.5141 -0.263888,-0.5141 -0.149393,0 -0.330028,-0.07 -0.401411,-0.1564 -0.08522,-0.1026 -0.220996,-0.1381 -0.39538,-0.1032 -0.352862,0.07 -0.540657,-0.1572 -0.617274,-0.7486 -0.07575,-0.5847 -0.02532,-0.7138 0.375648,-0.9616 0.449447,-0.2778 0.479026,-0.2543 0.24871,0.1971 -0.184964,0.3626 -0.188154,0.4017 -0.03747,0.4596 0.151935,0.058 0.151208,0.073 -0.0094,0.1905 -0.195599,0.143 -0.137156,0.4325 0.08732,0.4325 0.07935,0 0.246732,-0.1442 0.371969,-0.3204 0.205726,-0.2895 0.922046,-1.136 1.334898,-1.5775 0.08874,-0.095 0.242313,-0.1725 0.341274,-0.1725 0.09896,0 0.180017,-0.033 0.180125,-0.074 4.14e-4,-0.158 0.614673,-0.1062 0.915427,0.077 0.17421,0.1062 0.405476,0.191 0.513925,0.1883 0.187309,0 0.186075,-0.013 -0.02465,-0.1595 -0.263493,-0.1838 -0.297472,-0.6353 -0.06249,-0.8303 0.504077,-0.4184 1.548835,-0.53392 2.610801,-0.2888 0.292935,0.068 0.90363,0.3177 1.357102,0.5557 0.45347,0.238 0.930396,0.4327 1.059836,0.4327 0.160296,0 0.235344,0.056 0.235344,0.1763 0,0.097 0.224849,0.3964 0.499664,0.6654 0.608568,0.5959 1.247305,1.5523 1.610639,2.4118 0.149005,0.3524 0.325105,0.7073 0.391333,0.7887 0.124124,0.1524 0.09126,1.0955 -0.115079,3.3027 -0.143821,1.5385 -0.461201,2.0706 -0.466805,0.7827 -0.0038,-0.8745 -0.199988,-1.042 -0.291982,-0.2494 -0.03833,0.3303 -0.104596,0.6005 -0.147248,0.6005 -0.04265,0 -0.109278,-0.2551 -0.148057,-0.5669 -0.0969,-0.7791 -0.176095,-0.8502 -0.301751,-0.2711 l -0.106956,0.4929 -0.141463,-0.5915 c -0.10438,-0.4365 -0.185698,-0.5918 -0.31021,-0.5927 -0.09281,-6e-4 -0.223688,-0.056 -0.290839,-0.1232 -0.06715,-0.067 -0.182208,-0.1221 -0.255684,-0.1221 -0.07348,0 -0.239699,-0.2399 -0.369388,-0.5332 -0.232783,-0.5263 -0.400757,-0.7255 -0.515348,-0.6109 -0.03231,0.032 -0.0055,0.1756 0.05954,0.3184 0.17226,0.3781 0.03164,0.4296 -0.235624,0.086 -0.292591,-0.3758 -0.317625,-0.3984 -0.765954,-0.6914 -0.27704,-0.1811 -0.385737,-0.2108 -0.422281,-0.1156 -0.05842,0.1522 0.207366,1.3476 0.321647,1.4466 0.155038,0.1343 2.541363,1.828 2.818229,2.0003 0.394977,0.2457 0.318517,0.4974 -0.176849,0.5822 -0.216186,0.037 -0.614891,0.1155 -0.886012,0.1745 -0.646505,0.1407 -1.274958,0.039 -1.635689,-0.2644 -0.23461,-0.1974 -0.318543,-0.2216 -0.434597,-0.1253 -0.223471,0.1854 -0.0099,0.4695 0.445236,0.592 0.412606,0.1112 0.457284,0.1876 0.291061,0.4982 -0.06241,0.1166 -0.06957,0.3136 -0.01856,0.5104 0.07035,0.2715 0.138725,0.3296 0.446862,0.3797 0.237769,0.039 0.432046,0.011 0.5608,-0.079 0.258234,-0.1809 0.251938,-0.3199 -0.01137,-0.2511 -0.186726,0.049 -0.196605,0.033 -0.09512,-0.1571 0.135155,-0.2525 0.402078,-0.2812 0.402078,-0.043 0,0.122 0.115556,0.057 0.419005,-0.2349 0.574625,-0.5532 0.786994,-0.6517 1.075645,-0.4991 0.301899,0.1596 0.328582,0.69 0.0376,0.7472 -0.317408,0.062 -0.644941,0.322 -0.644941,0.5111 0,0.097 -0.1365,0.292 -0.303333,0.4323 -0.267474,0.2251 -0.390963,0.2553 -1.044625,0.2553 -0.516507,0 -0.826106,-0.05 -1.020991,-0.1652 -0.248786,-0.147 -0.340497,-0.1507 -0.829819,-0.033 -0.688394,0.1651 -0.934467,0.3957 -0.422367,0.3957 0.389676,0 0.528156,0.1931 0.361626,0.5042 -0.05717,0.1068 -0.08665,0.3587 -0.06551,0.5598 l 0.03842,0.3655 0.01657,-0.4155 c 0.01977,-0.4956 0.145672,-0.5848 0.895346,-0.634 0.601218,-0.039 0.787259,0.1304 0.357378,0.3263 -0.211589,0.096 -0.247834,0.1647 -0.200851,0.3786 0.05152,0.2346 0.01774,0.2741 -0.333771,0.3901 -0.215105,0.071 -0.460946,0.1023 -0.546315,0.07 -0.108834,-0.042 -0.155214,0 -0.155214,0.1346 0,0.1413 -0.06704,0.1941 -0.246474,0.1941 -0.144126,0 -0.246474,0.057 -0.246474,0.1363 0,0.2453 -0.314687,0.2772 -1.820495,0.1845 z m -2.517441,-6.9322 c 0,-0.1116 -0.04436,-0.1755 -0.09859,-0.142 -0.05422,0.034 -0.09859,0.1248 -0.09859,0.203 0,0.078 0.04437,0.142 0.09859,0.142 0.05422,0 0.09859,-0.091 0.09859,-0.203 z m 1.130454,-0.807 c -0.04333,-0.3151 -0.137792,-0.5638 -0.241733,-0.6367 -0.154923,-0.1085 -0.350834,-0.6562 -0.416682,-1.1648 -0.02944,-0.2274 0.196547,-0.9861 0.381747,-1.2815 0.20003,-0.3192 0.424116,-1.0243 0.341694,-1.0752 -0.0416,-0.026 -0.219968,0.041 -0.396379,0.1483 -0.264128,0.1606 -0.317695,0.2511 -0.303461,0.5125 0.03829,0.703 0.01478,0.7493 -0.569582,1.1202 -0.731142,0.4641 -1.148937,0.9477 -1.074588,1.2438 0.122779,0.4889 0.29053,0.5931 0.976417,0.6063 0.750136,0.014 1.018917,0.1858 1.117757,0.7127 0.103484,0.5516 0.264028,0.3904 0.18481,-0.1856 z m 8.094202,-0.4458 c -0.115838,-0.1159 -0.145958,0.05 -0.07745,0.4258 l 0.0709,0.3892 0.03119,-0.3796 c 0.01715,-0.2088 0.0061,-0.4047 -0.02465,-0.4354 z m -6.03414,-5.199 c -0.06,-0.1563 -0.232832,-0.2051 -0.232832,-0.066 0,0.1043 0.107767,0.2136 0.210516,0.2136 0.04349,0 0.05353,-0.067 0.02232,-0.1479 z m -3.767387,12.9398 c -0.177829,-0.1778 -0.134134,-0.3514 0.132458,-0.526 0.29337,-0.1923 0.543003,-0.1229 0.543003,0.1508 0,0.2569 -0.510303,0.5404 -0.675461,0.3752 z m 8.51805,-0.1971 c 0.116958,-0.5377 0.20803,-0.701 0.59095,-1.0598 0.323259,-0.3029 0.361732,-0.3179 0.31455,-0.1232 -0.06226,0.2569 0.0825,0.2849 0.365632,0.071 0.105256,-0.08 0.295369,-0.1448 0.422473,-0.1448 0.197931,0 0.216452,0.027 0.129041,0.1907 -0.05613,0.1049 -0.102058,0.3509 -0.102058,0.5467 0,0.2466 -0.07441,0.4305 -0.241992,0.5981 -0.208226,0.2082 -0.333127,0.242 -0.895139,0.242 l -0.653146,0 0.06969,-0.3205 z m -11.39181,0.048 c 0,-0.108 -0.09982,-0.2663 -0.221826,-0.3519 -0.189439,-0.1329 -0.200235,-0.1702 -0.07394,-0.2555 0.12183,-0.082 0.126172,-0.135 0.02465,-0.2988 -0.149151,-0.2406 -0.162,-0.5959 -0.02155,-0.5959 0.05593,0 0.12722,0.067 0.158432,0.1479 0.03121,0.081 0.139172,0.1479 0.239911,0.1479 0.100739,0 0.230649,0.089 0.288689,0.1972 0.05804,0.1084 0.170514,0.1972 0.249942,0.1972 0.07943,0 0.144416,0.068 0.144416,0.1513 0,0.083 0.06896,0.2566 0.153241,0.3853 0.181038,0.2763 0.141899,0.3094 -0.473657,0.4016 -0.425375,0.064 -0.4683,0.052 -0.4683,-0.1263 z m 1.676021,-0.1097 c 0,-0.1018 0.06877,-0.2422 0.152832,-0.312 0.125973,-0.1045 0.180322,-0.099 0.30925,0.03 0.211043,0.211 0.09447,0.4675 -0.212514,0.4675 -0.178417,0 -0.249568,-0.053 -0.249568,-0.1851 z m 8.922346,0.087 c -0.0804,-0.1301 0.03748,-0.3147 0.154697,-0.2423 0.119748,0.074 0.11897,0.3409 -9.96e-4,0.3409 -0.05102,0 -0.12019,-0.044 -0.153703,-0.099 z m -0.701957,-1.1291 c -0.08862,-0.2309 0.0494,-0.3498 0.406189,-0.3498 0.39729,0 0.503326,0.1235 0.289632,0.3372 -0.195296,0.1953 -0.622753,0.203 -0.695821,0.013 z m 3.9501,-0.1612 c -0.101598,-0.1644 0.126906,-0.3529 0.262911,-0.2169 0.113764,0.1138 0.04256,0.3241 -0.109718,0.3241 -0.04782,0 -0.11676,-0.048 -0.153193,-0.1072 z m -15.325352,-0.5336 c 0,-0.1783 0.05297,-0.2465 0.191361,-0.2465 0.251657,0 0.348523,0.1697 0.199413,0.3494 -0.187166,0.2255 -0.390774,0.1719 -0.390774,-0.1029 z m 14.457107,-0.1177 c -0.11783,-0.1179 -0.06366,-0.326 0.08484,-0.326 0.08134,0 0.147884,0.064 0.147884,0.1421 0,0.1647 -0.140715,0.2759 -0.232723,0.1839 z m 0.595302,0 c -0.03675,-0.037 -0.06681,-0.319 -0.06681,-0.6273 0,-0.6232 0.294308,-1.2008 0.644299,-1.2643 0.106542,-0.019 0.293533,-0.1272 0.415538,-0.2397 l 0.221826,-0.2045 0,0.3622 c 0,0.3207 0.02829,0.3623 0.246474,0.3623 0.299397,0 0.30283,0.1151 0.02058,0.6901 -0.149762,0.3051 -0.340907,0.5096 -0.61212,0.6548 -0.492677,0.2638 -0.783407,0.3528 -0.869789,0.2664 z m -12.256411,-0.3675 c -0.225664,-0.1955 -0.25746,-0.2691 -0.159237,-0.3689 0.19887,-0.202 0.665986,0.01 0.665986,0.3023 0,0.3296 -0.17632,0.3528 -0.506749,0.067 z m -1.960657,0.034 c -0.08908,-0.1441 0.137771,-0.39 0.359805,-0.39 0.131721,0 0.185107,0.071 0.185107,0.2464 0,0.1956 -0.04968,0.2465 -0.240656,0.2465 -0.13236,0 -0.269275,-0.046 -0.304256,-0.1029 z m -1.03252,-0.1411 c -0.326289,-0.084 -0.436057,-0.1582 -0.414939,-0.2793 0.01579,-0.091 -0.02252,-0.2603 -0.08515,-0.3773 -0.09361,-0.1749 -0.08409,-0.2294 0.05352,-0.3065 0.118943,-0.067 0.149489,-0.1649 0.10555,-0.34 -0.0643,-0.2562 0.1013,-0.5612 0.253597,-0.4671 0.04808,0.03 0.08742,0.1402 0.08742,0.2454 0,0.1053 0.06655,0.1914 0.147884,0.1914 0.08292,0 0.147885,0.088 0.147885,0.2003 0,0.1101 0.05955,0.2231 0.132338,0.251 0.13554,0.052 0.206224,0.8964 0.08057,0.9626 -0.03577,0.019 -0.264673,-0.017 -0.508682,-0.081 z m 14.196883,-1.3858 c 0,-0.08 0.06655,-0.1448 0.147884,-0.1448 0.08134,0 0.147884,0.04 0.147884,0.088 0,0.048 -0.06655,0.1136 -0.147884,0.1448 -0.09008,0.035 -0.147884,2e-4 -0.147884,-0.088 z m 2.80449,-0.4492 c -0.101598,-0.1643 0.126905,-0.3529 0.262911,-0.2168 0.113764,0.1137 0.04256,0.324 -0.109718,0.324 -0.04782,0 -0.11676,-0.048 -0.153193,-0.1072 z m -18.11872,-0.3529 c -0.144448,-0.1444 -0.06129,-0.4272 0.125634,-0.4272 0.251658,0 0.348524,0.1697 0.199413,0.3494 -0.130154,0.1568 -0.223666,0.1792 -0.325047,0.078 z m 17.007669,-0.087 c 0.04459,-0.2142 0.219561,-0.2273 0.259581,-0.019 0.02078,0.108 -0.02757,0.1726 -0.129115,0.1726 -0.09472,0 -0.149065,-0.064 -0.130466,-0.1531 z m 0.576121,-0.4345 c -0.290902,-0.5703 -0.250146,-1.0392 0.09032,-1.0392 0.07789,0 0.178415,-0.142 0.223388,-0.3155 0.108963,-0.4205 0.254692,-0.4923 0.372161,-0.1833 0.05278,0.1388 0.142525,0.2524 0.199434,0.2524 0.148331,0 0.316333,0.4961 0.25319,0.7477 -0.05305,0.2114 -0.720698,0.9283 -0.864496,0.9283 -0.04115,0 -0.164445,-0.1757 -0.273996,-0.3904 z m -16.593737,0.2302 c -0.03844,-0.038 -0.06988,-0.1512 -0.06988,-0.2506 0,-0.136 0.0749,-0.1807 0.302626,-0.1807 0.257442,0 0.297921,0.033 0.271121,0.2218 -0.03111,0.219 -0.358318,0.3551 -0.503862,0.2095 z m -0.942084,-1.0566 c -0.281209,-0.2901 -0.301177,-0.3445 -0.167224,-0.4557 0.08366,-0.07 0.152118,-0.2317 0.152118,-0.3607 0,-0.1696 0.05516,-0.2344 0.199619,-0.2344 0.122212,0 0.235958,-0.096 0.293329,-0.2464 0.114601,-0.3015 0.443332,-0.3459 0.365817,-0.049 -0.02835,0.1084 -0.01426,0.2201 0.0313,0.2482 0.206135,0.1274 -0.203255,1.4279 -0.449496,1.4279 -0.05837,0 -0.249828,-0.1483 -0.425467,-0.3295 z m 2.252452,-0.9029 c 0,-0.081 0.04436,-0.1479 0.09859,-0.1479 0.05422,0 0.09859,0.067 0.09859,0.1479 0,0.081 -0.04437,0.1479 -0.09859,0.1479 -0.05422,0 -0.09859,-0.067 -0.09859,-0.1479 z"
           style="fill:#c49e5b" />
        <path
           inkscape:connector-curvature="0"
           id="path4187"
           d="m 32.235265,1016.9971 c -0.169587,-0.1696 -0.417775,-0.1937 -0.507032,-0.049 -0.03351,0.054 -0.11377,0.097 -0.17835,0.094 -0.06458,0 0.05099,-0.1529 0.256822,-0.3348 0.257598,-0.2276 0.392213,-0.4414 0.431905,-0.686 0.03171,-0.1954 0.09179,-0.3553 0.133505,-0.3553 0.127158,0 0.05491,0.7819 -0.07699,0.8332 -0.134987,0.053 -0.171954,0.3498 -0.04349,0.3498 0.04386,0 0.165864,0.065 0.271121,0.1448 0.16615,0.1257 0.169562,0.1452 0.02588,0.1479 -0.09102,0 -0.232037,-0.063 -0.313373,-0.1448 z m -1.345043,-0.1825 c 0,-0.081 0.155279,-0.2424 0.345064,-0.3597 0.285473,-0.1764 0.345063,-0.2715 0.345063,-0.5503 0,-0.1854 0.04437,-0.337 0.09859,-0.337 0.05422,0 0.09859,0.1499 0.09859,0.3332 0,0.2753 -0.07707,0.3963 -0.443653,0.6967 -0.294982,0.2417 -0.443653,0.3145 -0.443653,0.2171 z m -1.577431,-0.167 c 0,-0.1763 -0.04252,-0.1937 -0.338666,-0.1381 -0.41639,0.078 -0.607769,-0.013 -0.443807,-0.21 0.169216,-0.2039 0.04299,-0.4176 -0.268034,-0.4537 -0.223956,-0.026 -0.286087,-0.094 -0.343339,-0.3761 -0.03844,-0.1895 -0.05712,-0.3572 -0.04151,-0.3728 0.01562,-0.016 0.165736,0.05 0.333598,0.1467 0.296179,0.17 0.309485,0.1694 0.449965,-0.022 0.144623,-0.1966 0.144819,-0.1966 0.206504,5e-4 0.206278,0.6587 0.559969,0.9239 0.624675,0.4683 0.03621,-0.255 0.182148,-0.2777 0.455639,-0.071 0.105256,0.08 0.271626,0.1447 0.36971,0.1447 0.287916,0 0.206205,0.2177 -0.249836,0.6655 -0.465314,0.4569 -0.754902,0.5403 -0.754902,0.2173 z m 5.077357,-0.2025 c -0.518768,-0.095 -0.944981,-0.263 -1.158245,-0.456 -0.261356,-0.2365 -0.210067,-0.3229 0.191699,-0.3229 0.233585,0 0.499682,-0.094 0.741203,-0.2611 0.405262,-0.2809 1.359122,-0.4524 1.359122,-0.2444 0,0.061 0.09982,0.1118 0.221826,0.1126 0.122005,8e-4 0.283744,0.041 0.35942,0.089 0.105794,0.067 0.06372,0.1253 -0.182077,0.2524 -0.236463,0.1223 -0.306669,0.215 -0.269723,0.3563 0.08584,0.3282 -0.618347,0.5927 -1.263225,0.4744 z m -2.776805,-1.2461 c -0.374941,-0.021 -0.653435,-0.09 -0.726845,-0.1781 -0.142346,-0.1716 -0.23513,-0.1604 1.285387,-0.1552 0.978201,0 1.238437,0.033 1.26179,0.1431 0.01618,0.076 -0.07255,0.1662 -0.197179,0.1996 -0.223814,0.06 -0.432654,0.059 -1.623153,-0.01 z m 5.443448,-0.642 c 0.116958,-0.5377 0.20803,-0.701 0.59095,-1.0598 0.323259,-0.3029 0.361732,-0.3179 0.31455,-0.1232 -0.06226,0.2569 0.0825,0.2849 0.365632,0.071 0.105256,-0.08 0.295369,-0.1448 0.422473,-0.1448 0.197931,0 0.216452,0.027 0.129041,0.1907 -0.05613,0.1049 -0.102058,0.3509 -0.102058,0.5467 0,0.2466 -0.07441,0.4305 -0.241992,0.5981 -0.208226,0.2082 -0.333127,0.242 -0.895139,0.242 l -0.653146,0 0.06969,-0.3205 z m -11.39181,0.048 c 0,-0.108 -0.09982,-0.2663 -0.221826,-0.3519 -0.189439,-0.1329 -0.200235,-0.1702 -0.07394,-0.2555 0.12183,-0.082 0.126172,-0.135 0.02465,-0.2988 -0.149151,-0.2406 -0.162,-0.5959 -0.02155,-0.5959 0.05593,0 0.12722,0.067 0.158432,0.1479 0.03121,0.081 0.143571,0.1479 0.249686,0.1479 0.158297,0 0.18738,0.058 0.161984,0.3204 -0.02695,0.279 -0.003,0.3175 0.185646,0.2979 0.142637,-0.015 0.286325,0.075 0.42079,0.2642 0.236001,0.3314 0.213364,0.3559 -0.415564,0.4501 -0.425375,0.064 -0.4683,0.052 -0.4683,-0.1263 z m 8.347241,-0.089 c -0.03615,-0.036 -0.06573,-0.2565 -0.06573,-0.4895 0,-0.506 0.118043,-0.5922 0.878773,-0.6422 0.601218,-0.039 0.787259,0.1304 0.357378,0.3263 -0.210302,0.096 -0.247705,0.1653 -0.201696,0.3748 0.04898,0.223 0.01258,0.273 -0.274159,0.3767 -0.370481,0.134 -0.596889,0.1515 -0.69457,0.054 z m -4.628912,-0.094 c -0.03351,-0.034 -0.03644,-0.1834 -0.0065,-0.3331 0.06619,-0.331 -0.03263,-0.4027 -0.754146,-0.5478 -0.487989,-0.098 -0.54269,-0.1346 -0.546718,-0.3648 -0.0026,-0.1483 -0.10624,-0.339 -0.246474,-0.4535 -0.191543,-0.1565 -0.216825,-0.2233 -0.121259,-0.3205 0.09619,-0.098 0.240604,-0.071 0.710395,0.1316 0.499737,0.2156 0.607199,0.2333 0.704696,0.1158 0.162441,-0.1957 0.362788,-0.172 0.433688,0.051 0.03317,0.1045 0.208809,0.2777 0.390308,0.3847 0.288108,0.17 0.335467,0.2554 0.373085,0.6727 0.0237,0.2629 8.97e-4,0.5334 -0.05067,0.6012 -0.09545,0.1254 -0.775453,0.1732 -0.886403,0.062 z m 2.763928,-0.7961 c -0.217452,-0.056 -0.217361,-0.1985 3.94e-4,-0.5726 0.09469,-0.1626 0.172163,-0.4066 0.172163,-0.5422 0,-0.2673 0.03515,-0.2628 -1.046157,-0.1351 -0.363251,0.043 -0.55504,0 -0.95427,-0.1995 -0.274807,-0.1392 -0.525945,-0.2957 -0.558083,-0.3477 -0.03369,-0.054 -0.341465,-0.071 -0.726817,-0.038 -0.774016,0.065 -1.151473,-0.076 -1.663767,-0.6201 -0.17349,-0.1843 -0.405628,-0.3351 -0.515889,-0.3351 -0.110261,0 -0.400897,-0.1921 -0.645858,-0.4268 -0.554417,-0.5312 -0.595345,-0.8642 -0.134468,-1.0941 0.171004,-0.085 0.361944,-0.1551 0.424313,-0.1551 0.164354,0 0.709851,0.601 0.791766,0.8724 0.06404,0.2121 0.106748,0.226 0.509072,0.1657 l 0.439168,-0.066 0.15759,0.4012 c 0.165384,0.421 0.252308,0.4614 0.660014,0.3064 0.166868,-0.063 0.270552,-0.061 0.313313,0.01 0.07009,0.1134 0.207744,0.087 0.739896,-0.1439 0.299002,-0.1295 0.391825,-0.133 0.605162,-0.022 0.138594,0.072 0.360316,0.11 0.492715,0.085 0.17833,-0.034 0.282756,0.018 0.402878,0.2015 0.08918,0.1361 0.318556,0.304 0.509717,0.3732 0.252747,0.091 0.347564,0.1842 0.347564,0.3402 0,0.2693 0.262921,0.5082 0.403994,0.3672 0.128283,-0.1283 0.0065,-0.6214 -0.170207,-0.6892 -0.207536,-0.08 -0.175079,-0.622 0.03733,-0.6238 0.55212,0 0.487427,-0.3395 -0.204573,-1.0583 -0.457824,-0.4756 -0.515996,-0.4974 -0.588316,-0.2209 -0.04358,0.1667 -0.09108,0.1832 -0.298876,0.1042 -0.159309,-0.061 -0.3758,-0.058 -0.609526,0.01 -0.284149,0.078 -0.397799,0.069 -0.525986,-0.042 -0.320613,-0.2792 -0.86493,-0.464 -1.438158,-0.4881 -0.396283,-0.017 -0.595083,0.015 -0.623117,0.099 -0.05779,0.173 -0.627586,0.1537 -0.890105,-0.03 -0.120514,-0.084 -0.219116,-0.2456 -0.219116,-0.3581 0,-0.2844 -0.35199,-0.8251 -0.697077,-1.0708 -0.332346,-0.2367 -0.373124,-0.5579 -0.141254,-1.1129 0.117429,-0.281 0.124015,-0.4048 0.03225,-0.6062 -0.08893,-0.1952 -0.08792,-0.2805 0.0044,-0.3729 0.09392,-0.094 0.141049,-0.088 0.218587,0.027 0.103645,0.1542 0.06816,1.0125 -0.0538,1.3012 -0.05146,0.1218 0.03971,0.2715 0.330342,0.5422 0.278571,0.2596 0.42584,0.4947 0.481224,0.7684 0.05968,0.2948 0.132613,0.402 0.289151,0.4247 0.137152,0.02 0.230131,-0.035 0.269623,-0.1595 0.03315,-0.1045 0.147878,-0.2692 0.254942,-0.3661 0.267738,-0.2423 0.246363,-0.3185 -0.133848,-0.4774 -1.087857,-0.4545 -0.977194,-1.9358 0.20603,-2.7579 0.202924,-0.1409 0.425636,-0.3477 0.494913,-0.4595 0.112883,-0.1822 0.09504,-0.2209 -0.171908,-0.3728 -0.163828,-0.093 -0.298149,-0.2278 -0.298492,-0.2992 -0.0012,-0.244 0.203353,-0.5111 0.391385,-0.5111 0.319558,0 0.319599,-0.181 7.8e-5,-0.3462 l -0.304487,-0.1575 0.29942,-0.341 c 0.164681,-0.1876 0.365157,-0.4682 0.445501,-0.6235 0.166841,-0.3227 0.340843,-0.4149 0.636813,-0.3375 0.113678,0.03 0.206688,0.01 0.206688,-0.045 0,-0.1837 0.45687,-0.1872 0.794654,-0.01 0.349141,0.1872 0.782777,0.2412 0.782777,0.097 0,-0.045 -0.110913,-0.1333 -0.246473,-0.1951 -0.256988,-0.117 -0.285058,-0.2088 -0.181851,-0.5943 0.04086,-0.1526 0.210879,-0.2952 0.499775,-0.419 0.54196,-0.2323 0.793995,-0.251 0.624149,-0.046 -0.09444,0.1138 -0.06895,0.173 0.130986,0.304 0.33227,0.2177 0.652256,0.1131 0.652256,-0.2133 0,-0.2268 0.02698,-0.2422 0.320416,-0.1837 0.788109,0.1573 1.348772,0.3641 1.897847,0.6999 0.325345,0.1989 0.713541,0.3634 0.862658,0.3655 0.149116,0 0.271121,0.057 0.271121,0.1227 0,0.066 0.232917,0.3807 0.517594,0.7006 1.027406,1.1544 1.385229,1.7041 1.711747,2.6295 0.07678,0.2176 0.227876,0.4575 0.335781,0.5331 0.12826,0.09 0.180244,0.2122 0.150135,0.3534 -0.07965,0.3734 -0.138735,1.0596 -0.209616,2.4342 -0.06742,1.3075 -0.202534,1.9933 -0.389845,1.9788 -0.05209,0 -0.09595,-0.2946 -0.09746,-0.6458 -0.0038,-0.881 -0.199581,-1.0537 -0.291982,-0.2575 -0.03833,0.3303 -0.104596,0.6005 -0.147248,0.6005 -0.04265,0 -0.109278,-0.2551 -0.148057,-0.5669 -0.0969,-0.7791 -0.176095,-0.8502 -0.301751,-0.2711 l -0.106956,0.4929 -0.141463,-0.5915 c -0.10438,-0.4365 -0.185698,-0.5918 -0.31021,-0.5927 -0.09281,-6e-4 -0.223688,-0.056 -0.290839,-0.1232 -0.06715,-0.067 -0.180201,-0.1221 -0.251224,-0.1221 -0.07102,0 -0.250701,-0.2528 -0.399287,-0.5618 -0.373025,-0.7757 -0.681728,-0.8624 -0.369382,-0.1037 0.134673,0.3272 -0.142501,0.1755 -0.405424,-0.2218 -0.143535,-0.2169 -0.315643,-0.3944 -0.382461,-0.3944 -0.06682,0 -0.24072,-0.094 -0.386448,-0.2084 -0.145729,-0.1146 -0.290208,-0.1832 -0.321064,-0.1523 -0.06338,0.063 0.144331,1.2521 0.24814,1.4201 0.03711,0.06 0.754537,0.6027 1.594283,1.206 0.940579,0.6756 1.52681,1.161 1.52681,1.2642 0,0.1185 -0.115393,0.1872 -0.394357,0.2348 -0.216897,0.037 -0.616184,0.1155 -0.887305,0.1745 -0.646505,0.1407 -1.274958,0.039 -1.635689,-0.2644 -0.236688,-0.1992 -0.3179,-0.2222 -0.436669,-0.1236 -0.252782,0.2098 -0.160471,0.3974 0.294635,0.5987 0.393463,0.174 0.435307,0.2235 0.391559,0.4627 -0.02694,0.1474 -0.01132,0.4008 0.03471,0.5631 0.06849,0.2416 0.149616,0.306 0.446631,0.3543 0.236904,0.038 0.431354,0.011 0.559942,-0.079 0.258234,-0.1809 0.251938,-0.3199 -0.01137,-0.2511 -0.186726,0.049 -0.196605,0.033 -0.09512,-0.1571 0.132843,-0.2482 0.402078,-0.2828 0.402078,-0.052 0,0.133 0.02562,0.1387 0.152253,0.034 0.127273,-0.1057 0.17672,-0.091 0.30136,0.087 0.08201,0.1171 0.213136,0.2129 0.291398,0.2129 0.24756,0 0.154077,0.3669 -0.161039,0.632 -0.267474,0.2251 -0.390963,0.2553 -1.044625,0.2553 -0.516507,0 -0.826106,-0.05 -1.020991,-0.1652 -0.248786,-0.147 -0.340497,-0.1507 -0.829819,-0.033 -0.582361,0.1397 -0.801325,0.3034 -0.713194,0.533 0.111361,0.2902 -0.647645,0.6126 -1.140748,0.4845 z m -2.982331,-5.3062 c 0,-0.2759 -0.288765,-0.2453 -0.328422,0.035 -0.02532,0.1788 0.0079,0.2228 0.147884,0.1958 0.102727,-0.02 0.180538,-0.1192 0.180538,-0.2306 z m 1.195155,-0.4875 c 0.06421,-0.1674 -0.143404,-0.8621 -0.285117,-0.9541 -0.126618,-0.082 -0.466386,-1.0514 -0.466386,-1.3304 0,-0.1197 0.06112,-0.3432 0.135829,-0.4968 0.07471,-0.1535 0.211652,-0.4565 0.304325,-0.6734 0.09267,-0.2169 0.228727,-0.5157 0.302343,-0.6639 0.115043,-0.2317 0.112852,-0.2906 -0.0156,-0.419 -0.193047,-0.1931 -0.188964,-0.1938 -0.582432,0.1063 -0.310697,0.237 -0.331162,0.2861 -0.278644,0.6693 0.04256,0.3104 0.01719,0.4463 -0.101749,0.545 -0.08714,0.072 -0.15843,0.183 -0.15843,0.246 0,0.063 -0.13213,0.1926 -0.293622,0.288 -0.454405,0.2685 -0.986238,0.8792 -0.987186,1.1337 -4.73e-4,0.1262 0.123185,0.3535 0.274791,0.5051 0.247956,0.2479 0.326446,0.2707 0.78136,0.227 0.446367,-0.043 0.535502,-0.019 0.759543,0.2053 0.139606,0.1396 0.253829,0.3371 0.253829,0.439 0,0.3176 0.254372,0.4407 0.357145,0.1729 z m 7.980206,-0.8191 c -0.115838,-0.1159 -0.145958,0.05 -0.07745,0.4258 l 0.0709,0.3892 0.03119,-0.3796 c 0.01715,-0.2088 0.0061,-0.4047 -0.02465,-0.4354 z m -5.971204,-5.2482 c -0.11983,-0.224 -0.295768,-0.263 -0.295768,-0.066 0,0.1684 0.09575,0.2629 0.266374,0.2629 0.104371,0 0.111026,-0.045 0.02939,-0.1971 z m 6.869484,10.8787 c -0.03675,-0.037 -0.06681,-0.319 -0.06681,-0.6273 0,-0.6232 0.294308,-1.2008 0.644299,-1.2643 0.106542,-0.019 0.293533,-0.1272 0.415538,-0.2397 l 0.221826,-0.2045 0,0.3622 c 0,0.3207 0.02829,0.3623 0.246474,0.3623 0.299397,0 0.30283,0.1151 0.02058,0.6901 -0.149762,0.3051 -0.340907,0.5096 -0.61212,0.6548 -0.492677,0.2638 -0.783407,0.3528 -0.869789,0.2664 z m -15.249588,-0.4745 c -0.326111,-0.085 -0.436045,-0.1589 -0.414939,-0.2799 0.01579,-0.091 -0.02252,-0.2603 -0.08515,-0.3773 -0.09361,-0.1749 -0.08409,-0.2294 0.05352,-0.3065 0.118943,-0.067 0.149489,-0.1649 0.10555,-0.34 -0.0643,-0.2562 0.1013,-0.5612 0.253597,-0.4671 0.04808,0.03 0.08742,0.1402 0.08742,0.2454 0,0.1053 0.04638,0.1914 0.103057,0.1914 0.06438,0 0.07877,0.1295 0.03832,0.345 -0.05633,0.3003 -0.03931,0.3451 0.131093,0.3451 0.141274,0 0.213336,0.088 0.258678,0.3143 0.08299,0.4149 -0.0014,0.4673 -0.531151,0.3296 z m 16.466443,-2.7103 c -0.290902,-0.5703 -0.250146,-1.0392 0.09032,-1.0392 0.07789,0 0.178415,-0.142 0.223388,-0.3155 0.108963,-0.4205 0.254692,-0.4923 0.372161,-0.1833 0.05278,0.1388 0.142525,0.2524 0.199434,0.2524 0.148331,0 0.316333,0.4961 0.25319,0.7477 -0.05305,0.2114 -0.720698,0.9283 -0.864496,0.9283 -0.04115,0 -0.164445,-0.1757 -0.273996,-0.3904 z m -17.535821,-0.8264 c -0.281209,-0.2901 -0.301177,-0.3445 -0.167224,-0.4557 0.08366,-0.07 0.152118,-0.2317 0.152118,-0.3607 0,-0.1696 0.05516,-0.2344 0.199619,-0.2344 0.122212,0 0.235958,-0.096 0.293329,-0.2464 0.05154,-0.1356 0.158836,-0.2465 0.238435,-0.2465 0.209983,0 0.151176,0.6791 -0.0695,0.8025 -0.205612,0.1151 -0.220544,0.3397 -0.02751,0.4137 0.115542,0.044 0.120608,0.1095 0.02768,0.3556 -0.144754,0.3835 -0.252519,0.3789 -0.646946,-0.028 z m 4.397416,-4.9664 c -0.0877,-0.097 -0.173627,-0.3739 -0.190958,-0.6155 -0.02751,-0.3836 0.01124,-0.4869 0.305077,-0.8132 0.404214,-0.449 0.563518,-0.4841 0.353537,-0.078 -0.08412,0.1627 -0.196173,0.2958 -0.249005,0.2958 -0.182562,0 -0.09532,0.1841 0.119552,0.2523 0.204687,0.065 0.206557,0.075 0.03693,0.1991 -0.221699,0.1621 -0.134566,0.4359 0.138725,0.4359 0.134547,0 0.200273,0.065 0.200273,0.1972 0,0.1084 -0.06292,0.1971 -0.139821,0.1971 -0.0769,0 -0.201705,0.024 -0.277341,0.053 -0.07564,0.029 -0.209272,-0.026 -0.296968,-0.1234 z"
           style="fill:#4eaeb6" />
        <path
           inkscape:connector-curvature="0"
           id="path4185"
           d="m 31.806705,1016.7075 c 0.257598,-0.2276 0.392213,-0.4414 0.431905,-0.686 0.03171,-0.1954 0.09179,-0.3553 0.133505,-0.3553 0.127158,0 0.05491,0.7819 -0.07699,0.8332 -0.06778,0.026 -0.123237,0.1158 -0.123237,0.1989 0,0.084 -0.08525,0.1509 -0.19136,0.1509 -0.105248,0 -0.21878,0.044 -0.252292,0.099 -0.03351,0.054 -0.11377,0.097 -0.17835,0.094 -0.06458,0 0.05099,-0.1529 0.256822,-0.3348 z m -2.493914,-0.06 c 0,-0.1763 -0.04252,-0.1937 -0.338666,-0.1381 -0.41639,0.078 -0.607769,-0.013 -0.443807,-0.21 0.169216,-0.2039 0.04299,-0.4176 -0.268034,-0.4537 -0.223956,-0.026 -0.286087,-0.094 -0.343339,-0.3761 -0.03844,-0.1895 -0.05712,-0.3572 -0.04151,-0.3728 0.01562,-0.016 0.165736,0.05 0.333598,0.1467 0.296179,0.17 0.309485,0.1694 0.449965,-0.022 0.144623,-0.1966 0.144819,-0.1966 0.206504,5e-4 0.206278,0.6587 0.559969,0.9239 0.624675,0.4683 0.03621,-0.255 0.182148,-0.2777 0.455639,-0.071 0.105256,0.08 0.271626,0.1447 0.36971,0.1447 0.282671,0 0.211281,0.1798 -0.257534,0.6486 -0.471774,0.4717 -0.747204,0.5581 -0.747204,0.2342 z m 5.077357,-0.2025 c -0.518768,-0.095 -0.944981,-0.263 -1.158245,-0.456 -0.261356,-0.2365 -0.210067,-0.3229 0.191699,-0.3229 0.233585,0 0.499682,-0.094 0.741203,-0.2611 0.405262,-0.2809 1.359122,-0.4524 1.359122,-0.2444 0,0.061 0.09982,0.1118 0.221826,0.1126 0.122005,8e-4 0.283744,0.041 0.35942,0.089 0.105794,0.067 0.06372,0.1253 -0.182077,0.2524 -0.236463,0.1223 -0.306669,0.215 -0.269723,0.3563 0.08584,0.3282 -0.618347,0.5927 -1.263225,0.4744 z m -2.809799,-1.5326 c 0.825117,-0.073 1.752744,-0.078 1.71041,-0.01 -0.02531,0.041 -0.498152,0.067 -1.05075,0.057 -0.552598,-0.01 -0.849445,-0.03 -0.65966,-0.047 z m -0.610023,-0.1024 c 0.07117,-0.029 0.156203,-0.025 0.188964,0.01 0.03276,0.033 -0.02547,0.056 -0.129399,0.052 -0.114851,0 -0.138213,-0.028 -0.05956,-0.06 z m 6.086465,-0.2531 c 0.116958,-0.5377 0.20803,-0.701 0.59095,-1.0598 0.323259,-0.3029 0.361732,-0.3179 0.31455,-0.1232 -0.06226,0.2569 0.0825,0.2849 0.365632,0.071 0.105256,-0.08 0.295369,-0.1448 0.422473,-0.1448 0.197931,0 0.216452,0.027 0.129041,0.1907 -0.05613,0.1049 -0.102058,0.3509 -0.102058,0.5467 0,0.2466 -0.07441,0.4305 -0.241992,0.5981 -0.208226,0.2082 -0.333127,0.242 -0.895139,0.242 l -0.653146,0 0.06969,-0.3205 z m -11.39181,0.034 c 0,-0.1099 -0.08828,-0.247 -0.196181,-0.3047 -0.165718,-0.089 -0.177584,-0.1348 -0.07641,-0.2968 0.09409,-0.1507 0.09388,-0.2177 -9.98e-4,-0.3126 -0.146599,-0.1466 -0.160812,-0.5743 -0.01908,-0.5743 0.05593,0 0.12722,0.067 0.158432,0.1479 0.03121,0.081 0.143571,0.1479 0.249686,0.1479 0.158297,0 0.18738,0.058 0.161984,0.3204 -0.02695,0.279 -0.003,0.3175 0.185646,0.2979 0.142637,-0.015 0.286325,0.075 0.42079,0.2642 0.234977,0.33 0.215762,0.3504 -0.415564,0.4419 -0.426925,0.062 -0.4683,0.05 -0.4683,-0.1318 z m 6.482257,-0.9651 c -0.217452,-0.056 -0.217361,-0.1985 3.94e-4,-0.5726 0.09469,-0.1626 0.172163,-0.4066 0.172163,-0.5422 0,-0.269 -0.03103,-0.274 -0.964517,-0.1557 -0.360093,0.046 -0.586594,0.01 -0.958143,-0.1495 -0.267615,-0.1152 -0.537617,-0.2709 -0.600005,-0.346 -0.08622,-0.1039 -0.272628,-0.1219 -0.777089,-0.075 -0.601835,0.056 -0.705573,0.037 -1.113599,-0.202 -0.247467,-0.1451 -0.52131,-0.3726 -0.60854,-0.5058 -0.09851,-0.1503 -0.252165,-0.242 -0.40542,-0.242 -0.16083,0 -0.400427,-0.1536 -0.687853,-0.4411 -0.543549,-0.5435 -0.581073,-0.8549 -0.130143,-1.0798 0.171004,-0.085 0.361944,-0.1551 0.424313,-0.1551 0.164354,0 0.709851,0.601 0.791766,0.8724 0.06404,0.2121 0.106748,0.226 0.509072,0.1657 l 0.439168,-0.066 0.15759,0.4012 c 0.165384,0.421 0.252308,0.4614 0.660014,0.3064 0.166868,-0.063 0.270552,-0.061 0.313313,0.01 0.07009,0.1134 0.207744,0.087 0.739896,-0.1439 0.299002,-0.1295 0.391825,-0.133 0.605162,-0.022 0.138594,0.072 0.360316,0.11 0.492715,0.085 0.17833,-0.034 0.282756,0.018 0.402878,0.2015 0.08918,0.1361 0.318556,0.304 0.509717,0.3732 0.252747,0.091 0.347564,0.1842 0.347564,0.3402 0,0.2693 0.262921,0.5082 0.403994,0.3672 0.128283,-0.1283 0.0065,-0.6214 -0.170207,-0.6892 -0.207536,-0.08 -0.175079,-0.622 0.03733,-0.6238 0.55212,0 0.487427,-0.3395 -0.204573,-1.0583 -0.457824,-0.4756 -0.515996,-0.4974 -0.588316,-0.2209 -0.04358,0.1667 -0.09108,0.1832 -0.298876,0.1042 -0.159309,-0.061 -0.3758,-0.058 -0.609526,0.01 -0.284149,0.078 -0.397799,0.069 -0.525986,-0.042 -0.320613,-0.2792 -0.86493,-0.464 -1.438158,-0.4881 -0.396283,-0.017 -0.595083,0.015 -0.623117,0.099 -0.05779,0.173 -0.627586,0.1537 -0.890105,-0.03 -0.120514,-0.084 -0.219116,-0.2456 -0.219116,-0.3581 0,-0.2844 -0.35199,-0.8251 -0.697077,-1.0708 -0.332346,-0.2367 -0.373124,-0.5579 -0.141254,-1.1129 0.117429,-0.281 0.124015,-0.4048 0.03225,-0.6062 -0.08893,-0.1952 -0.08792,-0.2805 0.0044,-0.3729 0.09392,-0.094 0.141049,-0.088 0.218587,0.027 0.103645,0.1542 0.06816,1.0125 -0.0538,1.3012 -0.05146,0.1218 0.03971,0.2715 0.330342,0.5422 0.278571,0.2596 0.42584,0.4947 0.481224,0.7684 0.05968,0.2948 0.132613,0.402 0.289151,0.4247 0.137152,0.02 0.230131,-0.035 0.269623,-0.1595 0.03315,-0.1045 0.147878,-0.2692 0.254942,-0.3661 0.267738,-0.2423 0.246363,-0.3185 -0.133848,-0.4774 -1.087857,-0.4545 -0.977194,-1.9358 0.20603,-2.7579 0.202924,-0.1409 0.425636,-0.3477 0.494913,-0.4595 0.112883,-0.1822 0.09504,-0.2209 -0.171908,-0.3728 -0.163828,-0.093 -0.298149,-0.2278 -0.298492,-0.2992 -0.0012,-0.244 0.203353,-0.5111 0.391385,-0.5111 0.319558,0 0.319599,-0.181 7.8e-5,-0.3462 l -0.304487,-0.1575 0.29942,-0.341 c 0.164681,-0.1876 0.365157,-0.4682 0.445501,-0.6235 0.166841,-0.3227 0.340843,-0.4149 0.636813,-0.3375 0.113678,0.03 0.206688,0.01 0.206688,-0.045 0,-0.1837 0.45687,-0.1872 0.794654,-0.01 0.349141,0.1872 0.782777,0.2412 0.782777,0.097 0,-0.045 -0.110913,-0.1333 -0.246473,-0.1951 -0.256988,-0.117 -0.285058,-0.2088 -0.181851,-0.5943 0.04086,-0.1526 0.210879,-0.2952 0.499775,-0.419 0.54196,-0.2323 0.793995,-0.251 0.624149,-0.046 -0.09444,0.1138 -0.06895,0.173 0.130986,0.304 0.33227,0.2177 0.652256,0.1131 0.652256,-0.2133 0,-0.2268 0.02698,-0.2422 0.320416,-0.1837 0.788109,0.1573 1.348772,0.3641 1.897847,0.6999 0.325345,0.1989 0.713541,0.3634 0.862658,0.3655 0.149116,0 0.271121,0.057 0.271121,0.1227 0,0.066 0.232917,0.3807 0.517594,0.7006 1.027406,1.1544 1.385229,1.7041 1.711747,2.6295 0.07678,0.2176 0.227876,0.4575 0.335781,0.5331 0.12826,0.09 0.180244,0.2122 0.150135,0.3534 -0.07965,0.3734 -0.138735,1.0596 -0.209616,2.4342 -0.06742,1.3075 -0.202534,1.9933 -0.389845,1.9788 -0.05209,0 -0.09595,-0.2946 -0.09746,-0.6458 -0.0038,-0.881 -0.199581,-1.0537 -0.291982,-0.2575 -0.03833,0.3303 -0.104596,0.6005 -0.147248,0.6005 -0.04265,0 -0.109278,-0.2551 -0.148057,-0.5669 -0.0969,-0.7791 -0.176095,-0.8502 -0.301751,-0.2711 l -0.106956,0.4929 -0.141463,-0.5915 c -0.10438,-0.4365 -0.185698,-0.5918 -0.31021,-0.5927 -0.09281,-6e-4 -0.223688,-0.056 -0.290839,-0.1232 -0.06715,-0.067 -0.180201,-0.1221 -0.251224,-0.1221 -0.07102,0 -0.250701,-0.2528 -0.399287,-0.5618 -0.373025,-0.7757 -0.681728,-0.8624 -0.369382,-0.1037 0.134673,0.3272 -0.142501,0.1755 -0.405424,-0.2218 -0.143535,-0.2169 -0.315643,-0.3944 -0.382461,-0.3944 -0.06682,0 -0.24072,-0.094 -0.386448,-0.2084 -0.145729,-0.1146 -0.290208,-0.1832 -0.321064,-0.1523 -0.06338,0.063 0.144331,1.2521 0.24814,1.4201 0.03711,0.06 0.754537,0.6027 1.594283,1.206 0.940579,0.6756 1.52681,1.161 1.52681,1.2642 0,0.1185 -0.115393,0.1872 -0.394357,0.2348 -0.216897,0.037 -0.616184,0.1155 -0.887305,0.1745 -0.646505,0.1407 -1.274958,0.039 -1.635689,-0.2644 -0.236688,-0.1992 -0.3179,-0.2222 -0.436669,-0.1236 -0.252782,0.2098 -0.160471,0.3974 0.294635,0.5987 0.393463,0.174 0.435307,0.2235 0.391559,0.4627 -0.02694,0.1474 -0.01132,0.4008 0.03471,0.5631 0.06849,0.2416 0.149616,0.306 0.446631,0.3543 0.236904,0.038 0.431354,0.011 0.559942,-0.079 0.258234,-0.1809 0.251938,-0.3199 -0.01137,-0.2511 -0.186726,0.049 -0.196605,0.033 -0.09512,-0.1571 0.132843,-0.2482 0.402078,-0.2828 0.402078,-0.052 0,0.133 0.02562,0.1387 0.152253,0.034 0.127273,-0.1057 0.17672,-0.091 0.30136,0.087 0.08201,0.1171 0.213136,0.2129 0.291398,0.2129 0.22735,0 0.164704,0.3389 -0.110418,0.5974 -0.346195,0.3252 -1.562897,0.405 -2.06363,0.1354 -0.296442,-0.1597 -0.382193,-0.164 -0.880486,-0.044 -0.58417,0.1402 -0.803335,0.3037 -0.715134,0.5335 0.111361,0.2902 -0.647645,0.6126 -1.140748,0.4845 z m -2.982331,-5.3062 c 0,-0.2759 -0.288765,-0.2453 -0.328422,0.035 -0.02532,0.1788 0.0079,0.2228 0.147884,0.1958 0.102727,-0.02 0.180538,-0.1192 0.180538,-0.2306 z m 1.195155,-0.4875 c 0.06421,-0.1674 -0.143404,-0.8621 -0.285117,-0.9541 -0.126618,-0.082 -0.466386,-1.0514 -0.466386,-1.3304 0,-0.1197 0.06112,-0.3432 0.135829,-0.4968 0.07471,-0.1535 0.211652,-0.4565 0.304325,-0.6734 0.09267,-0.2169 0.228727,-0.5157 0.302343,-0.6639 0.115043,-0.2317 0.112852,-0.2906 -0.0156,-0.419 -0.193047,-0.1931 -0.188964,-0.1938 -0.582432,0.1063 -0.310697,0.237 -0.331162,0.2861 -0.278644,0.6693 0.04256,0.3104 0.01719,0.4463 -0.101749,0.545 -0.08714,0.072 -0.15843,0.183 -0.15843,0.246 0,0.063 -0.13213,0.1926 -0.293622,0.288 -0.454405,0.2685 -0.986238,0.8792 -0.987186,1.1337 -4.73e-4,0.1262 0.123185,0.3535 0.274791,0.5051 0.247956,0.2479 0.326446,0.2707 0.78136,0.227 0.446367,-0.043 0.535502,-0.019 0.759543,0.2053 0.139606,0.1396 0.253829,0.3371 0.253829,0.439 0,0.3176 0.254372,0.4407 0.357145,0.1729 z m 7.980206,-0.8191 c -0.115838,-0.1159 -0.145958,0.05 -0.07745,0.4258 l 0.0709,0.3892 0.03119,-0.3796 c 0.01715,-0.2088 0.0061,-0.4047 -0.02465,-0.4354 z m -5.971204,-5.2482 c -0.11983,-0.224 -0.295768,-0.263 -0.295768,-0.066 0,0.1684 0.09575,0.2629 0.266374,0.2629 0.104371,0 0.111026,-0.045 0.02939,-0.1971 z m 6.869484,10.8787 c -0.03675,-0.037 -0.06681,-0.319 -0.06681,-0.6273 0,-0.6232 0.294308,-1.2008 0.644299,-1.2643 0.106542,-0.019 0.293533,-0.1272 0.415538,-0.2397 l 0.221826,-0.2045 0,0.3622 c 0,0.3207 0.02829,0.3623 0.246474,0.3623 0.299397,0 0.30283,0.1151 0.02058,0.6901 -0.149762,0.3051 -0.340907,0.5096 -0.61212,0.6548 -0.492677,0.2638 -0.783407,0.3528 -0.869789,0.2664 z m -15.249588,-0.4887 c -0.244009,-0.066 -0.463617,-0.1244 -0.488018,-0.1288 -0.0244,0 0.006,-0.058 0.06751,-0.1198 0.08344,-0.084 0.07129,-0.1738 -0.04781,-0.3556 -0.148588,-0.2268 -0.147565,-0.2505 0.01473,-0.3413 0.12575,-0.07 0.15716,-0.1664 0.112578,-0.344 -0.0643,-0.2562 0.1013,-0.5612 0.253597,-0.4671 0.04808,0.03 0.08742,0.1402 0.08742,0.2454 0,0.1053 0.04638,0.1914 0.103057,0.1914 0.06438,0 0.07877,0.1295 0.03832,0.345 -0.05633,0.3003 -0.03931,0.3451 0.131093,0.3451 0.141274,0 0.213336,0.088 0.258678,0.3143 0.03457,0.1728 0.02902,0.3417 -0.01232,0.3753 -0.04135,0.034 -0.274818,0.01 -0.518827,-0.06 z m 16.466443,-2.6961 c -0.290902,-0.5703 -0.250146,-1.0392 0.09032,-1.0392 0.07789,0 0.178415,-0.142 0.223388,-0.3155 0.108963,-0.4205 0.254692,-0.4923 0.372161,-0.1833 0.05278,0.1388 0.142525,0.2524 0.199434,0.2524 0.148331,0 0.316333,0.4961 0.25319,0.7477 -0.05305,0.2114 -0.720698,0.9283 -0.864496,0.9283 -0.04115,0 -0.164445,-0.1757 -0.273996,-0.3904 z m -17.483187,-0.7734 c -0.269558,-0.2814 -0.344521,-0.5122 -0.166329,-0.5122 0.05422,0 0.09859,-0.1331 0.09859,-0.2958 0,-0.2312 0.04355,-0.2958 0.199619,-0.2958 0.122212,0 0.235958,-0.096 0.293329,-0.2464 0.05154,-0.1356 0.158836,-0.2465 0.238435,-0.2465 0.209983,0 0.151176,0.6791 -0.0695,0.8025 -0.205612,0.1151 -0.220544,0.3397 -0.02751,0.4137 0.115542,0.044 0.120608,0.1095 0.02768,0.3556 -0.140785,0.373 -0.256142,0.3778 -0.594312,0.025 z m 4.344782,-5.0194 c -0.0877,-0.097 -0.173627,-0.3739 -0.190958,-0.6155 -0.02751,-0.3836 0.01124,-0.4869 0.305077,-0.8132 0.404214,-0.449 0.563518,-0.4841 0.353537,-0.078 -0.08412,0.1627 -0.196173,0.2958 -0.249005,0.2958 -0.182562,0 -0.09532,0.1841 0.119552,0.2523 0.204687,0.065 0.206557,0.075 0.03693,0.1991 -0.221699,0.1621 -0.134566,0.4359 0.138725,0.4359 0.134547,0 0.200273,0.065 0.200273,0.1972 0,0.1084 -0.06292,0.1971 -0.139821,0.1971 -0.0769,0 -0.201705,0.024 -0.277341,0.053 -0.07564,0.029 -0.209272,-0.026 -0.296968,-0.1234 z"
           style="fill:#4c965d" />
        <path
           inkscape:connector-curvature="0"
           id="path4183"
           d="m 31.806705,1016.7075 c 0.257598,-0.2276 0.392213,-0.4414 0.431905,-0.686 0.07568,-0.4663 0.229309,-0.459 0.201449,0.01 -0.02253,0.3789 -0.239088,0.6771 -0.64783,0.892 -0.386006,0.2029 -0.381388,0.1341 0.01448,-0.2157 z m 0.340533,-3.0811 c -0.181022,-0.047 -0.244248,-0.3264 -0.07394,-0.3264 0.05422,0 0.09859,0.046 0.09859,0.1018 0,0.056 0.09982,0.1419 0.221827,0.1909 0.227763,0.092 0.06175,0.1143 -0.246474,0.034 z m 0.934832,-0.2278 c 0.06773,-0.1084 0.16371,-0.1972 0.213295,-0.1972 0.04959,0 0.0099,0.089 -0.08829,0.1972 -0.09815,0.1085 -0.194127,0.1972 -0.213295,0.1972 -0.01917,0 0.02056,-0.089 0.08829,-0.1972 z m -0.268595,-1.9496 c -0.290813,-0.3136 -0.332456,-0.7116 -0.0747,-0.7138 0.09489,-8e-4 0.232172,-0.039 0.305065,-0.085 0.184745,-0.1171 -0.04322,-0.5339 -0.572091,-1.0461 -0.320346,-0.3102 -0.424672,-0.3643 -0.492175,-0.255 -0.05509,0.089 -0.311823,0.1507 -0.71945,0.1725 -0.51805,0.028 -0.713217,-0.01 -1.068735,-0.1974 -0.536985,-0.2854 -1.386196,-0.4135 -1.684265,-0.254 -0.177225,0.095 -0.236387,0.084 -0.344954,-0.065 -0.192644,-0.2634 -0.161232,-0.4849 0.115432,-0.8137 0.315865,-0.3753 0.310099,-0.4729 -0.03861,-0.6532 -0.295976,-0.1531 -0.536529,-0.6431 -0.439633,-0.8956 0.07312,-0.1906 0.07226,-0.1909 0.403661,0.1405 0.255006,0.255 0.334942,0.2801 0.745074,0.2339 0.595175,-0.067 0.911674,0.1319 1.054748,0.6633 0.112975,0.4195 0.233975,0.5008 0.33881,0.2276 0.08247,-0.2149 -0.146108,-1.1145 -0.283435,-1.1154 -0.115876,-8e-4 -0.449662,-0.9337 -0.449662,-1.2568 0,-0.113 0.06112,-0.3309 0.135829,-0.4845 0.07471,-0.1535 0.211652,-0.4565 0.304325,-0.6734 0.09267,-0.2169 0.228727,-0.5157 0.302343,-0.6639 0.115043,-0.2317 0.112852,-0.2906 -0.0156,-0.419 -0.193047,-0.1931 -0.188964,-0.1938 -0.582432,0.1063 -0.312276,0.2382 -0.331355,0.2847 -0.277571,0.6771 0.03617,0.2639 0.01656,0.4468 -0.05245,0.4895 -0.06151,0.038 -0.110208,0.01 -0.110208,-0.072 0,-0.077 -0.09458,-0.2607 -0.210176,-0.4076 -0.159615,-0.2029 -0.266341,-0.2531 -0.443652,-0.2086 -0.172011,0.043 -0.233477,0.017 -0.233477,-0.098 0,-0.2687 0.196089,-0.5376 0.392008,-0.5376 0.319558,0 0.319599,-0.181 7.8e-5,-0.3462 l -0.304487,-0.1575 0.29942,-0.341 c 0.164681,-0.1876 0.365157,-0.4682 0.445501,-0.6235 0.166841,-0.3227 0.340843,-0.4149 0.636813,-0.3375 0.113678,0.03 0.206688,0.01 0.206688,-0.045 0,-0.1837 0.45687,-0.1872 0.794654,-0.01 0.335588,0.1799 0.782777,0.2428 0.782777,0.1099 0,-0.039 -0.11727,-0.1637 -0.260601,-0.278 -0.228071,-0.1819 -0.248664,-0.2436 -0.164973,-0.4947 0.07408,-0.2222 0.204981,-0.3261 0.581016,-0.461 0.589205,-0.2113 0.693024,-0.2178 0.540158,-0.034 -0.09444,0.1138 -0.06895,0.173 0.130986,0.304 0.33227,0.2177 0.652256,0.1131 0.652256,-0.2133 0,-0.2268 0.02698,-0.2422 0.320416,-0.1837 0.788109,0.1573 1.348772,0.3641 1.897847,0.6999 0.325345,0.1989 0.713541,0.3634 0.862658,0.3655 0.164254,0 0.271121,0.058 0.271121,0.141 0,0.076 0.213519,0.3677 0.474487,0.6491 0.802799,0.8657 1.176482,1.3776 1.490915,2.0423 0.1661,0.3511 0.302035,0.6906 0.302077,0.7545 4.3e-5,0.064 0.07506,0.1912 0.166715,0.2829 0.139769,0.1397 0.163185,0.3476 0.145226,1.2892 -0.01178,0.6175 -0.06458,1.2362 -0.117342,1.375 -0.05276,0.1388 -0.09654,0.5489 -0.09728,0.9114 -0.0014,0.7051 -0.07262,1.1027 -0.197405,1.1027 -0.04244,0 -0.105904,-0.5657 -0.141031,-1.257 -0.07468,-1.4698 -0.117997,-1.7289 -0.280038,-1.6747 -0.08737,0.029 -0.110125,0.3499 -0.08444,1.1901 0.02434,0.7961 0.0016,1.1501 -0.07394,1.1501 -0.06001,0 -0.109106,-0.1302 -0.109106,-0.2894 0,-0.6517 -0.387785,-1.1107 -0.401031,-0.4747 -0.0073,0.3497 6.9e-4,0.3604 -0.349375,-0.4683 -0.117881,-0.2791 -0.178771,-0.3439 -0.208266,-0.2218 -0.06823,0.2824 -0.199009,0.197 -0.290456,-0.1896 -0.08634,-0.3651 -0.328304,-0.5766 -0.328304,-0.2869 0,0.086 -0.04436,0.1561 -0.09859,0.1561 -0.05422,0 -0.09859,-0.061 -0.09859,-0.1346 0,-0.2029 -0.387509,-0.6542 -0.561721,-0.6542 -0.120045,0 -0.139282,0.069 -0.0892,0.3205 0.06191,0.3106 0.05926,0.3138 -0.08759,0.1046 -0.156387,-0.2227 -0.980207,-0.8194 -1.131413,-0.8194 -0.04699,0 -0.101942,0.049 -0.122121,0.11 -0.04112,0.1234 0.23003,1.2557 0.343667,1.4352 0.04028,0.064 0.738195,0.5887 1.550931,1.1668 0.812736,0.5781 1.477702,1.1131 1.477702,1.1888 0,0.076 -0.09982,0.1579 -0.221827,0.1828 -0.122004,0.025 -0.354922,0.075 -0.517594,0.1124 -0.162673,0.037 -0.612093,0.087 -0.998711,0.1119 -0.677847,0.043 -0.715724,0.034 -1.060926,-0.2695 -0.294521,-0.2586 -0.384005,-0.2928 -0.504778,-0.1925 -0.281572,0.2337 -0.171921,0.492 0.296857,0.6994 0.493629,0.2183 0.508714,0.2474 0.290179,0.5594 -0.178661,0.2551 -0.363694,0.2796 -0.536652,0.071 -0.179188,-0.2159 -0.514789,-0.1813 -0.922085,0.095 l -0.358063,0.243 -0.247231,-0.2666 z m -3.634926,-3.0292 c 0.03121,-0.081 0.02929,-0.2194 -0.0043,-0.3068 -0.04941,-0.1288 -0.08891,-0.1359 -0.207727,-0.037 -0.08069,0.067 -0.146717,0.2051 -0.146717,0.3069 0,0.2202 0.27746,0.249 0.358705,0.037 z m 3.187313,-6.6607 c -0.119422,-0.2232 -0.391155,-0.2567 -0.391155,-0.048 0,0.1576 0.296393,0.3612 0.417166,0.2865 0.04197,-0.026 0.03027,-0.1332 -0.02601,-0.2383 z"
           style="fill:#9b581e" />
        <path
           inkscape:connector-curvature="0"
           id="path4181"
           d="m 33.174051,1011.4374 c 0.259087,-0.4149 1.10311,-0.5505 1.397996,-0.2246 0.08974,0.099 0.163164,0.21 0.163164,0.2464 0,0.1232 -0.270863,0.067 -0.394357,-0.082 -0.166914,-0.2011 -0.426534,-0.1857 -0.894296,0.053 -0.385481,0.1966 -0.391029,0.1968 -0.272507,0.01 z m -0.01627,-0.493 c 0,-0.048 0.06655,-0.1136 0.147884,-0.1448 0.182346,-0.07 0.196668,-0.3587 0.01779,-0.3587 -0.07155,0 -0.193556,-0.1442 -0.271121,-0.3204 -0.07757,-0.1762 -0.238426,-0.3632 -0.357466,-0.4154 -0.11904,-0.052 -0.270724,-0.1964 -0.337075,-0.3204 -0.151561,-0.2832 -0.481678,-0.3026 -0.481678,-0.028 0,0.2261 -0.03687,0.2372 -0.307077,0.093 -0.140217,-0.075 -0.295948,-0.071 -0.550538,0.013 -0.317246,0.1047 -0.371795,0.096 -0.512767,-0.081 -0.152243,-0.1909 -0.382438,-0.2739 -1.075841,-0.3881 -0.251824,-0.041 -0.312194,-0.091 -0.263817,-0.2147 0.07475,-0.1919 0.07485,-0.1928 0.05903,-0.5061 -0.0123,-0.2436 -0.05397,-0.2759 -0.865415,-0.6706 -0.303004,-0.1473 -0.525744,-0.4709 -0.525744,-0.7636 0,-0.079 0.03663,-0.1433 0.0814,-0.1433 0.11775,0 0.510133,0.4365 0.510133,0.5675 0,0.1536 0.178871,0.2494 0.588188,0.315 0.236444,0.038 0.380095,0.1284 0.447001,0.2816 0.06884,0.1576 0.156546,0.2106 0.290638,0.1758 0.25162,-0.065 0.448783,0.1063 0.448783,0.3908 0,0.1385 0.111527,0.3071 0.284679,0.4304 0.258649,0.1842 0.29662,0.1883 0.415284,0.045 0.110326,-0.1329 0.102638,-0.1778 -0.04951,-0.289 -0.291503,-0.2132 -0.465725,-0.6254 -0.353185,-0.8357 0.07318,-0.1367 0.04288,-0.2762 -0.121246,-0.558 -0.120347,-0.2067 -0.25355,-0.3906 -0.296006,-0.4087 -0.106607,-0.045 -0.09778,-0.7065 0.0094,-0.7065 0.04765,0 0.140438,0.1299 0.206205,0.2887 0.185397,0.4476 0.594471,0.5186 0.594471,0.1032 0,-0.1034 -0.06384,-0.3337 -0.141861,-0.5118 -0.07802,-0.1781 -0.168766,-0.4504 -0.20165,-0.6052 -0.04584,-0.2158 -0.103465,-0.27 -0.247005,-0.2325 -0.262991,0.069 -0.38144,-0.4615 -0.158192,-0.7082 0.08644,-0.096 0.157172,-0.2445 0.157172,-0.3312 0,-0.087 0.136457,-0.2256 0.303238,-0.3088 0.243535,-0.1215 0.341667,-0.1278 0.498417,-0.032 0.162127,0.099 0.211621,0.091 0.292275,-0.052 0.07047,-0.124 0.143316,-0.1462 0.265651,-0.081 0.09271,0.049 0.240593,0.1116 0.328638,0.1384 0.08805,0.027 0.188432,0.1997 0.22308,0.3844 0.03465,0.1847 0.128982,0.4211 0.209628,0.5255 0.14441,0.1868 0.148976,0.1866 0.301549,-0.01 0.192329,-0.2448 0.120715,-0.8325 -0.123166,-1.0109 -0.126275,-0.092 -0.162845,-0.2394 -0.142355,-0.5726 0.01792,-0.2915 -0.02967,-0.5358 -0.135969,-0.698 -0.183048,-0.2794 -0.15627,-0.366 0.08458,-0.2736 0.0891,0.034 0.161995,0.1658 0.161995,0.2923 0,0.1266 0.04804,0.2598 0.106749,0.2961 0.05871,0.036 0.190231,0.2607 0.292265,0.4988 0.102034,0.238 0.228839,0.4328 0.281791,0.4328 0.168129,0 0.227854,-0.2006 0.104124,-0.3497 -0.06996,-0.084 -0.09471,-0.267 -0.0598,-0.4416 0.08055,-0.4027 -0.392846,-1.4563 -0.68968,-1.535 -0.236762,-0.063 -0.664191,-0.4899 -0.758757,-0.7584 -0.09587,-0.2722 0.202029,-0.3242 0.407013,-0.071 0.210229,0.2596 1.019142,0.3921 1.245796,0.204 0.106916,-0.089 0.193984,-0.091 0.349582,-0.01 0.113963,0.061 0.287433,0.085 0.385488,0.054 0.135624,-0.043 0.267563,0.078 0.551405,0.5054 0.344229,0.5184 0.383366,0.5479 0.505406,0.381 0.120129,-0.1643 0.138033,-0.1659 0.19484,-0.018 0.03441,0.09 0.166753,0.1631 0.294103,0.1631 0.607455,0 1.669558,1.1937 2.461792,2.7669 0.283864,0.5636 0.386352,0.6837 0.583733,0.6837 0.304476,0 0.360031,0.095 0.264781,0.4507 -0.07205,0.2694 -0.08286,0.2746 -0.186846,0.09 -0.08298,-0.1473 -0.138642,-0.1679 -0.224278,-0.083 -0.139289,0.1379 0.03862,1.1403 0.265625,1.4968 0.114359,0.1795 0.123072,0.2947 0.04027,0.5323 -0.05812,0.1667 -0.10628,0.596 -0.10702,0.9539 -0.0014,0.6975 -0.07303,1.0944 -0.197405,1.0944 -0.04244,0 -0.105904,-0.5657 -0.141031,-1.257 -0.07468,-1.4698 -0.117997,-1.7289 -0.280038,-1.6747 -0.08737,0.029 -0.110125,0.3499 -0.08444,1.1901 0.02434,0.7961 0.0016,1.1501 -0.07394,1.1501 -0.06001,0 -0.109106,-0.1302 -0.109106,-0.2894 0,-0.6517 -0.387785,-1.1107 -0.401031,-0.4747 -0.0073,0.3497 6.9e-4,0.3604 -0.349375,-0.4683 -0.117881,-0.2791 -0.178771,-0.3439 -0.208266,-0.2218 -0.06823,0.2824 -0.199009,0.197 -0.290456,-0.1896 -0.08634,-0.3651 -0.328304,-0.5766 -0.328304,-0.2869 0,0.086 -0.04436,0.1561 -0.09859,0.1561 -0.05422,0 -0.09859,-0.061 -0.09859,-0.1346 0,-0.2029 -0.387509,-0.6542 -0.561721,-0.6542 -0.119529,0 -0.139618,0.07 -0.09172,0.3205 l 0.06134,0.3204 -0.203747,-0.316 c -0.112061,-0.1737 -0.300485,-0.3456 -0.418721,-0.3819 -0.118236,-0.036 -0.294341,-0.1492 -0.391346,-0.251 -0.09701,-0.1017 -0.241192,-0.1849 -0.320416,-0.1849 -0.200592,0 -0.190956,0.1384 0.0998,1.433 0.0273,0.1216 0.668304,0.644 1.625928,1.3251 0.869474,0.6183 1.580861,1.1816 1.580861,1.2516 0,0.07 -0.09982,0.1476 -0.221827,0.1725 -0.122004,0.025 -0.354922,0.075 -0.517594,0.1124 -0.162673,0.037 -0.612093,0.087 -0.998711,0.1119 -0.678785,0.043 -0.715338,0.034 -1.06356,-0.2719 l -0.360615,-0.3166 -0.55131,0.5557 c -0.52817,0.5324 -0.722909,0.6584 -0.722909,0.4677 z m -1.577431,-3.0206 c 0,-0.1589 -0.262403,-0.3096 -0.363364,-0.2086 -0.07022,0.07 0.152572,0.3596 0.276846,0.3596 0.04759,0 0.08652,-0.068 0.08652,-0.151 z m 0.632021,-0.1941 c -0.07623,-0.3037 0.08998,-0.3257 0.291109,-0.039 0.138942,0.1984 0.358533,0.1853 0.358533,-0.021 0,-0.054 -0.150624,-0.2527 -0.33472,-0.4423 -0.273473,-0.2816 -0.382199,-0.3327 -0.594187,-0.2795 -0.216756,0.054 -0.239357,0.089 -0.137301,0.2123 0.09968,0.1201 0.08655,0.1745 -0.07129,0.2957 -0.114212,0.088 -0.148703,0.1656 -0.0842,0.1901 0.06009,0.023 0.193186,0.1051 0.295768,0.1827 0.27179,0.2058 0.346099,0.1791 0.276292,-0.099 z m 1.142589,-0.5364 c 0,-0.1163 -0.192284,-0.2408 -0.262906,-0.1701 -0.07062,0.071 0.05381,0.2629 0.170135,0.2629 0.05102,0 0.09277,-0.042 0.09277,-0.093 z m -1.577431,-0.8438 c 0,-0.081 -0.03632,-0.1479 -0.0807,-0.1479 -0.04439,0 -0.152462,-0.1442 -0.240169,-0.3204 -0.153132,-0.3077 -0.159716,-0.3106 -0.16577,-0.071 -0.0067,0.2631 0.236357,0.6874 0.393643,0.6874 0.05115,0 0.093,-0.067 0.093,-0.1478 z m 0.711586,-0.7379 c -0.04936,-0.7462 -0.317951,-0.9964 -0.460408,-0.4289 -0.07331,0.2921 0.213776,0.9478 0.387764,0.8857 0.05526,-0.02 0.08795,-0.2253 0.07264,-0.4568 z m -0.612997,0.1898 c 0,-0.1116 -0.04436,-0.1756 -0.09859,-0.1421 -0.05422,0.034 -0.09859,0.1249 -0.09859,0.203 0,0.078 0.04437,0.1421 0.09859,0.1421 0.05422,0 0.09859,-0.091 0.09859,-0.203 z m 3.056273,-0.2899 c 0,-0.1085 -0.04436,-0.1972 -0.09859,-0.1972 -0.05422,0 -0.09859,0.089 -0.09859,0.1972 0,0.1084 0.04437,0.1971 0.09859,0.1971 0.05422,0 0.09859,-0.089 0.09859,-0.1971 z m -1.971789,-0.1972 c 0,-0.054 -0.04698,-0.099 -0.104408,-0.099 -0.05742,0 -0.07699,0.044 -0.04348,0.099 0.03351,0.054 0.0805,0.099 0.104408,0.099 0.02391,0 0.04348,-0.044 0.04348,-0.099 z m 1.126463,-0.066 c 0.03469,-0.09 0.02302,-0.2044 -0.02593,-0.2534 -0.05295,-0.053 -0.10863,0.014 -0.137445,0.1644 -0.05383,0.2816 0.0647,0.3462 0.163378,0.089 z m 1.535453,-0.2111 c 0,-0.2066 -0.06254,-0.4611 -0.13898,-0.5656 -0.135127,-0.1848 -0.144543,-0.1851 -0.339614,-0.01 l -0.200634,0.1815 0.254126,0.3841 c 0.139769,0.2112 0.292594,0.384 0.339614,0.384 0.04702,0 0.08549,-0.169 0.08549,-0.3755 z m -3.970676,0.05 c 0.0772,-0.1694 0.06878,-0.2734 -0.03347,-0.4132 -0.07514,-0.1028 -0.136612,-0.2671 -0.136612,-0.3652 0,-0.2129 -0.129258,-0.231 -0.287595,-0.04 -0.08693,0.1048 -0.08702,0.2475 -3.65e-4,0.5916 0.124677,0.4951 0.296999,0.5806 0.458045,0.2271 z m 5.528389,0.01 c 0.09202,-0.092 0.144598,-0.092 0.236615,0 0.220858,0.2208 0.301827,0.1195 0.252702,-0.3164 -0.04534,-0.4022 -0.428775,-1.1178 -0.5396,-1.007 -0.02667,0.027 0.05085,0.2252 0.172274,0.4413 0.279599,0.4974 0.214721,0.6603 -0.295643,0.7419 -0.22803,0.036 -0.381135,0.1077 -0.347694,0.1618 0.08252,0.1335 0.378475,0.1212 0.521346,-0.022 z m -1.006439,-0.4558 c -0.166093,-0.3212 -0.430252,-0.5657 -0.517206,-0.4787 -0.06502,0.065 0.459892,0.7383 0.584647,0.7499 0.04206,0 0.01171,-0.1181 -0.06744,-0.2712 z m -1.734348,-0.1653 c -0.0675,-0.081 -0.167098,-0.1479 -0.221322,-0.1479 -0.055,0 -0.04432,0.065 0.02414,0.1479 0.0675,0.081 0.167098,0.1478 0.221323,0.1478 0.055,0 0.04432,-0.065 -0.02414,-0.1478 z m -2.594568,-0.1664 c -0.03147,-0.079 -0.05483,-0.055 -0.05956,0.06 -0.0043,0.1039 0.01902,0.1621 0.05178,0.1294 0.03276,-0.033 0.03626,-0.1178 0.0078,-0.189 z m 5.059305,0.1722 c 0,-0.024 -0.04437,-0.071 -0.09859,-0.1044 -0.05422,-0.034 -0.09859,-0.014 -0.09859,0.043 0,0.057 0.04436,0.1044 0.09859,0.1044 0.05422,0 0.09859,-0.02 0.09859,-0.044 z m -3.253453,-0.1972 c 0,-0.024 -0.04437,-0.071 -0.09859,-0.1044 -0.05422,-0.034 -0.09859,-0.014 -0.09859,0.043 0,0.057 0.04437,0.1044 0.09859,0.1044 0.05422,0 0.09859,-0.02 0.09859,-0.043 z m 1.281663,-0.3451 c 0,-0.1052 -0.04436,-0.2187 -0.09859,-0.2523 -0.05592,-0.034 -0.09859,0.048 -0.09859,0.1914 0,0.1388 0.04437,0.2523 0.09859,0.2523 0.05422,0 0.09859,-0.086 0.09859,-0.1914 z m 0.394358,-0.7898 c 0,-0.099 -0.0729,-0.2087 -0.161995,-0.2429 -0.22519,-0.087 -0.253738,-0.028 -0.136716,0.2798 0.10836,0.285 0.298711,0.2615 0.298711,-0.037 z m -1.312905,-0.1218 c -0.03147,-0.079 -0.05483,-0.055 -0.05956,0.06 -0.0043,0.1039 0.01902,0.1622 0.05178,0.1294 0.03276,-0.033 0.03626,-0.1178 0.0078,-0.189 z m 1.404565,-1.0413 c 0.0092,-0.1642 -0.110759,-0.1556 -0.343937,0.025 -0.189263,0.1463 -0.189223,0.1496 0.0036,0.2984 0.17691,0.1366 0.201379,0.1343 0.264191,-0.025 0.03807,-0.096 0.07234,-0.2306 0.07615,-0.2984 z m -1.816975,-0.3204 c 0.03351,-0.054 0.01395,-0.099 -0.04348,-0.099 -0.05743,0 -0.104409,0.044 -0.104409,0.099 0,0.054 0.01957,0.099 0.04348,0.099 0.02391,0 0.0709,-0.044 0.104409,-0.099 z m 0.345063,0 c 0,-0.054 -0.01956,-0.099 -0.04348,-0.099 -0.02391,0 -0.0709,0.044 -0.104408,0.099 -0.03351,0.054 -0.01395,0.099 0.04348,0.099 0.05742,0 0.104408,-0.044 0.104408,-0.099 z m -5.323831,2.0645 c 0,-0.057 0.04436,-0.077 0.09859,-0.043 0.05423,0.034 0.09859,0.081 0.09859,0.1045 0,0.024 -0.04436,0.043 -0.09859,0.043 -0.05422,0 -0.09859,-0.047 -0.09859,-0.1044 z m 0.640831,-0.2899 c -0.03351,-0.054 -0.01395,-0.099 0.04348,-0.099 0.05742,0 0.104408,0.044 0.104408,0.099 0,0.054 -0.01957,0.099 -0.04348,0.099 -0.02391,0 -0.0709,-0.044 -0.104408,-0.099 z m 1.054908,-0.3155 c -0.169604,-0.1696 -0.1488,-0.2305 0.120679,-0.3533 0.188716,-0.086 0.264378,-0.078 0.359693,0.037 0.09765,0.1177 0.08496,0.1725 -0.06646,0.2872 -0.231211,0.175 -0.266044,0.1775 -0.413916,0.03 z m -1.343793,-0.3081 c -0.134604,-0.098 -0.152227,-0.1551 -0.06503,-0.209 0.06578,-0.041 0.165804,-0.1916 0.222268,-0.3354 l 0.102661,-0.2616 0.08685,0.2262 c 0.07199,0.1874 0.11977,0.2085 0.279134,0.1232 0.243498,-0.1303 0.76612,-0.1337 0.845375,-0.01 0.03385,0.055 -0.0034,0.073 -0.08507,0.042 -0.20939,-0.08 -0.580951,0.1441 -0.516513,0.312 0.03731,0.097 -0.01844,0.1403 -0.181469,0.1403 -0.129423,0 -0.295674,0.023 -0.369445,0.051 -0.07377,0.028 -0.217216,-0.01 -0.318767,-0.083 z m 1.521254,-0.7132 c 0,-0.084 0.04509,-0.1258 0.100197,-0.092 0.05511,0.034 0.07467,0.1032 0.04348,0.1537 -0.08451,0.1368 -0.143674,0.1113 -0.143674,-0.062 z m -0.640832,-0.2407 c 0.03351,-0.054 0.105297,-0.099 0.159521,-0.099 0.05422,0 0.07117,0.044 0.03766,0.099 -0.03351,0.054 -0.105297,0.099 -0.159521,0.099 -0.05422,0 -0.07117,-0.044 -0.03766,-0.099 z m 1.602079,0.031 c -0.197218,-0.052 -0.23499,-0.2272 -0.04929,-0.2292 0.06778,-7e-4 0.223059,-0.028 0.345063,-0.061 0.178898,-0.048 0.221827,-0.019 0.221827,0.1493 0,0.208 -0.127355,0.2427 -0.517595,0.1407 z m -0.862658,-0.2853 c 0,-0.1741 0.212239,-0.1438 0.273175,0.039 0.02146,0.064 -0.03122,0.1171 -0.117075,0.1171 -0.08586,0 -0.1561,-0.07 -0.1561,-0.1561 z m 0.690126,-0.5399 c 0,-0.057 0.04437,-0.077 0.09859,-0.043 0.05422,0.033 0.09859,0.08 0.09859,0.1044 0,0.024 -0.04436,0.043 -0.09859,0.043 -0.05422,0 -0.09859,-0.047 -0.09859,-0.1044 z"
           style="fill:#60340f" />
        <path
           inkscape:connector-curvature="0"
           id="path4179"
           d="m 35.370196,1010.4557 c -0.165889,-0.035 -0.459112,-0.1972 -0.651607,-0.3598 -0.433997,-0.3668 -0.560423,-0.9349 -0.316734,-1.4234 0.157105,-0.315 0.158463,-0.3154 0.368758,-0.1266 0.11609,0.1042 0.623687,0.5341 1.127992,0.9551 0.504307,0.4211 0.892781,0.7898 0.863277,0.8193 -0.0295,0.029 -0.175927,0.067 -0.325383,0.083 -0.149458,0.016 -0.382654,0.049 -0.518214,0.073 -0.135561,0.024 -0.382201,0.015 -0.548089,-0.02 z m 0.745268,-0.246 c 0,-0.019 -0.09982,-0.1185 -0.221826,-0.2218 l -0.221827,-0.1878 0.187812,0.2218 c 0.176497,0.2085 0.255841,0.2667 0.255841,0.1878 z m -0.0493,-0.9134 c -0.596466,-0.5124 -1.184306,-0.9736 -1.30631,-1.0248 -0.190733,-0.08 -0.316663,-0.2953 -0.17284,-0.2953 0.07108,0 2.424428,1.6684 2.686871,1.9049 0.122004,0.1099 0.221826,0.2365 0.221826,0.2812 0,0.245 -0.462395,-0.035 -1.429547,-0.866 z m 2.577597,-0.2479 c -0.03496,-0.3345 -0.06381,-0.8346 -0.06412,-1.1113 -6.9e-4,-0.6335 -0.17112,-1.268 -0.326186,-1.2144 -0.083,0.029 -0.106788,0.3307 -0.082,1.0413 0.03715,1.0648 -0.06588,1.2852 -0.260567,0.5573 -0.135413,-0.5063 -0.261796,-0.5653 -0.369722,-0.1726 -0.07025,0.2556 -0.08414,0.2404 -0.243162,-0.2664 -0.178219,-0.5681 -0.388746,-0.7688 -0.401337,-0.3826 -0.0065,0.1989 -0.02314,0.1877 -0.123237,-0.083 -0.153985,-0.4169 -0.23001,-0.4781 -0.409122,-0.3295 -0.113427,0.094 -0.150267,0.096 -0.150267,0.01 0,-0.065 -0.166369,-0.2867 -0.36971,-0.4923 -0.599726,-0.6067 -0.728439,-0.7973 -0.690785,-1.0234 0.03226,-0.1937 0.05376,-0.1828 0.227645,0.1162 0.279059,0.4798 0.538129,0.8036 0.642827,0.8036 0.137222,0 0.111424,-0.1653 -0.09125,-0.5848 -0.168705,-0.3492 -0.216105,-1.021 -0.08153,-1.1556 0.03159,-0.032 0.08744,0.062 0.124111,0.2082 0.05464,0.2177 0.107795,0.2553 0.294525,0.2085 0.12532,-0.031 0.258507,-0.01 0.295972,0.053 0.04135,0.067 0.222818,0.09 0.461835,0.057 0.540265,-0.072 0.635078,-0.017 0.86707,0.5075 0.158968,0.3594 0.222058,0.425 0.297579,0.3098 0.08285,-0.1264 0.114264,-0.1221 0.231846,0.031 0.0748,0.098 0.165974,0.3417 0.202599,0.5422 0.03663,0.2005 0.124178,0.4542 0.194562,0.5637 0.09613,0.1496 0.111205,0.4617 0.06058,1.2549 -0.03707,0.5806 -0.09151,1.0799 -0.120994,1.1093 -0.02948,0.029 -0.08221,-0.22 -0.117167,-0.5545 z m -0.980209,-2.2306 c -0.02878,-0.095 -0.09924,-0.3057 -0.156576,-0.4683 -0.05733,-0.1627 -0.129322,-0.421 -0.159978,-0.5739 -0.05893,-0.2941 -0.272088,-0.3163 -0.326815,-0.034 -0.04286,0.2211 0.434622,1.2489 0.580162,1.2489 0.06425,0 0.09231,-0.077 0.06321,-0.1725 z m -0.953534,-0.5916 c -0.04692,-0.1491 -0.112006,-0.3931 -0.144634,-0.5422 -0.06133,-0.2803 -0.351336,-0.3837 -0.351336,-0.1252 0,0.2756 0.317279,0.9385 0.449229,0.9385 0.09901,0 0.110705,-0.068 0.04674,-0.2711 z m -5.622622,0.1233 c 0,-0.081 0.01744,-0.1479 0.03875,-0.1479 0.02131,0 0.06428,0.067 0.09549,0.1479 0.03121,0.081 0.01378,0.1478 -0.03875,0.1478 -0.05252,0 -0.0955,-0.067 -0.0955,-0.1478 z m 3.405532,-0.4122 c -0.08973,-0.2646 -0.313774,-0.3648 -0.3873,-0.1731 -0.0299,0.078 -0.100117,0.1416 -0.156044,0.1416 -0.187389,0 -0.09805,-0.2446 0.157308,-0.4307 0.223487,-0.1629 0.269755,-0.1673 0.399091,-0.038 0.08798,0.088 0.129069,0.2596 0.10308,0.4307 -0.04007,0.2637 -0.04852,0.2687 -0.116135,0.069 z m 3.618127,-0.504 c -0.233812,-0.1132 -0.306177,-0.2031 -0.265859,-0.3301 0.08856,-0.2791 -0.157457,-0.9423 -0.497912,-1.3425 -0.172672,-0.2029 -0.433235,-0.559 -0.579029,-0.7912 -0.145794,-0.2323 -0.439363,-0.5429 -0.652375,-0.6902 -0.378393,-0.2616 -0.489769,-0.4157 -0.300568,-0.4157 0.483451,0 1.706815,1.4701 2.33821,2.8098 0.153334,0.3254 0.322784,0.623 0.376554,0.6614 0.06463,0.046 0.06463,0.1011 0,0.162 -0.06116,0.058 -0.21805,0.034 -0.419021,-0.063 z m 0.822381,0.091 c -0.04247,-0.069 -0.05059,-0.1516 -0.01805,-0.1841 0.08823,-0.088 0.184438,0.042 0.136782,0.1845 -0.03339,0.1002 -0.05662,0.1001 -0.118732,-4e-4 z m -5.720728,-0.4017 c -0.184923,-0.193 -0.255894,-0.3468 -0.212391,-0.4602 0.04979,-0.1297 0.0927,-0.1428 0.180408,-0.055 0.06329,0.063 0.193372,0.115 0.289068,0.115 0.245579,0 0.427537,0.3639 0.274289,0.5486 -0.163028,0.1964 -0.214988,0.1819 -0.531374,-0.1483 z m 3.339361,-0.3439 c -0.104404,-0.076 -0.164475,-0.1642 -0.13349,-0.1952 0.03099,-0.031 0.141759,0.01 0.246164,0.082 0.104404,0.076 0.164475,0.1642 0.13349,0.1951 -0.03099,0.031 -0.141759,-0.01 -0.246164,-0.082 z m 0.530017,-0.2913 c -0.218388,-0.399 -0.942953,-1.3096 -1.207906,-1.518 -0.138418,-0.1089 -0.251668,-0.2948 -0.251668,-0.4132 0,-0.1915 0.05911,-0.1648 0.536097,0.2427 0.37635,0.3216 0.632086,0.6543 0.858232,1.1168 0.177175,0.3623 0.338916,0.692 0.359424,0.7327 0.09952,0.1973 -0.18252,0.043 -0.294179,-0.161 z m -1.949387,-0.4869 c -0.0017,-0.099 0.05945,-0.2421 0.135946,-0.3186 0.0765,-0.077 0.162375,-0.1954 0.190845,-0.2641 0.03607,-0.087 0.113464,-0.054 0.255277,0.1077 0.276557,0.3163 0.257984,0.4432 -0.05344,0.365 -0.185489,-0.047 -0.294299,-0.015 -0.391222,0.1126 -0.128957,0.17 -0.134392,0.1699 -0.137404,0 z m -0.89044,-0.073 c 0,-0.057 0.04436,-0.077 0.09859,-0.043 0.05422,0.034 0.09859,0.081 0.09859,0.1044 0,0.024 -0.04436,0.043 -0.09859,0.043 -0.05423,0 -0.09859,-0.047 -0.09859,-0.1044 z m 0.05811,-0.8322 c -0.07308,-0.2911 0.02174,-0.7394 0.156406,-0.7394 0.052,0 0.06628,0.089 0.03174,0.1979 -0.03454,0.1088 0.0034,0.3306 0.08439,0.4929 0.136377,0.2734 0.134045,0.2951 -0.03174,0.2951 -0.108641,0 -0.203237,-0.097 -0.240795,-0.2465 z m -0.06611,-1.054 c -0.0044,-0.017 -0.01687,-0.1504 -0.0277,-0.2969 -0.01083,-0.1465 -0.125707,-0.3793 -0.255285,-0.5172 -0.264948,-0.282 -0.19845,-0.457 0.102308,-0.2691 0.108187,0.067 0.234238,0.1 0.280113,0.071 0.04588,-0.028 0.141796,0.019 0.213159,0.1047 0.109027,0.1314 0.102848,0.1714 -0.03869,0.2507 -0.115739,0.065 -0.150342,0.1663 -0.110591,0.3247 0.03182,0.1268 0.0099,0.2602 -0.04873,0.2964 -0.05862,0.036 -0.110182,0.052 -0.114587,0.035 z m -1.56705,-0.8707 c -0.18848,-0.044 -0.422507,-0.1791 -0.52006,-0.2996 -0.206358,-0.2549 -0.16779,-0.3455 0.09024,-0.2121 0.09954,0.051 0.421371,0.1499 0.715187,0.2189 0.485778,0.1141 0.517589,0.1376 0.350867,0.2595 -0.100839,0.074 -0.208138,0.1296 -0.238442,0.124 -0.03031,-0.01 -0.20931,-0.046 -0.39779,-0.091 z"
           style="fill:#2c1f11" />
      </g>
    </g>
  </g>
</svg>
