<?xml version="1.0" encoding="UTF-8" standalone="no"?>
<!-- Created with Inkscape (http://www.inkscape.org/) -->

<svg
   xmlns:dc="http://purl.org/dc/elements/1.1/"
   xmlns:cc="http://creativecommons.org/ns#"
   xmlns:rdf="http://www.w3.org/1999/02/22-rdf-syntax-ns#"
   xmlns:svg="http://www.w3.org/2000/svg"
   xmlns="http://www.w3.org/2000/svg"
   xmlns:xlink="http://www.w3.org/1999/xlink"
   xmlns:sodipodi="http://sodipodi.sourceforge.net/DTD/sodipodi-0.dtd"
   xmlns:inkscape="http://www.inkscape.org/namespaces/inkscape"
   width="27"
   height="32"
   viewBox="0 0 27 32.000001"
   id="svg2"
   version="1.1"
   inkscape:version="0.91 r13725"
   sodipodi:docname="bus.svg"
   inkscape:export-filename="C:\Users\Robert C. Anaya\Desktop\Alles\CETI\8vo\Proyecto\rotes fahrad.png"
   inkscape:export-xdpi="90"
   inkscape:export-ydpi="90">
  <defs
     id="defs4">
    <linearGradient
       inkscape:collect="always"
       id="linearGradient5063">
      <stop
         style="stop-color:#0b2228;stop-opacity:1;"
         offset="0"
         id="stop5065" />
      <stop
         style="stop-color:#0b2228;stop-opacity:0;"
         offset="1"
         id="stop5067" />
    </linearGradient>
    <linearGradient
       inkscape:collect="always"
       id="linearGradient5038">
      <stop
         style="stop-color:#aaccff;stop-opacity:1;"
         offset="0"
         id="stop5040" />
      <stop
         style="stop-color:#aaccff;stop-opacity:0;"
         offset="1"
         id="stop5042" />
    </linearGradient>
    <linearGradient
       inkscape:collect="always"
       id="linearGradient5028">
      <stop
         style="stop-color:#2c5aa0;stop-opacity:1;"
         offset="0"
         id="stop5030" />
      <stop
         style="stop-color:#5f8dd3;stop-opacity:1"
         offset="1"
         id="stop5032" />
    </linearGradient>
    <linearGradient
       inkscape:collect="always"
       id="linearGradient5020">
      <stop
         style="stop-color:#162d50;stop-opacity:1;"
         offset="0"
         id="stop5022" />
      <stop
         style="stop-color:#5f8dd3;stop-opacity:1"
         offset="1"
         id="stop5024" />
    </linearGradient>
    <linearGradient
       id="linearGradient8135">
      <stop
         id="stop8137"
         offset="0"
         style="stop-color:#5d070b;stop-opacity:1;" />
      <stop
         style="stop-color:#ed1c24;stop-opacity:1;"
         offset="0.5"
         id="stop8139" />
      <stop
         id="stop8141"
         offset="1"
         style="stop-color:#5d070a;stop-opacity:1;" />
    </linearGradient>
    <filter
       inkscape:label="Evanescent"
       inkscape:menu="Blurs"
       inkscape:menu-tooltip="Blur the contents of objects, preserving the outline and adding progressive transparency at edges"
       style="color-interpolation-filters:sRGB"
       id="filter7829">
      <feGaussianBlur
         result="result6"
         stdDeviation="3"
         in="SourceGraphic"
         id="feGaussianBlur7831" />
      <feColorMatrix
         values="1 0 0 0 0 0 1 0 0 0 0 0 1 0 0 0 0 0 1 0 "
         result="result7"
         in="SourceGraphic"
         id="feColorMatrix7833" />
      <feComposite
         operator="in"
         in="result6"
         in2="result7"
         id="feComposite7835" />
    </filter>
    <radialGradient
       inkscape:collect="always"
       xlink:href="#linearGradient5020"
       id="radialGradient5026"
       cx="21.0238"
       cy="1030.202"
       fx="21.0238"
       fy="1030.202"
       r="10.7105"
       gradientUnits="userSpaceOnUse"
       gradientTransform="matrix(-3.530889,1.6858648,-0.43086858,-0.90241468,539.13819,1924.4282)" />
    <radialGradient
       inkscape:collect="always"
       xlink:href="#linearGradient5028"
       id="radialGradient5034"
       cx="2.1465743"
       cy="1029.4658"
       fx="2.1465743"
       fy="1029.4658"
       r="12.445318"
       gradientTransform="matrix(3.2568369,2.8763622,-0.84502541,0.95679491,865.08031,36.388386)"
       gradientUnits="userSpaceOnUse" />
    <radialGradient
       inkscape:collect="always"
       xlink:href="#linearGradient5038"
       id="radialGradient5044"
       cx="17.930208"
       cy="1030.4545"
       fx="17.930208"
       fy="1030.4545"
       r="9.3307629"
       gradientUnits="userSpaceOnUse"
       gradientTransform="matrix(-0.5414518,0.34345132,-0.46123165,-0.72713099,502.91675,1773.5717)" />
    <radialGradient
       inkscape:collect="always"
       xlink:href="#linearGradient5063"
       id="radialGradient5069"
       cx="15.794044"
       cy="1032.9739"
       fx="15.794044"
       fy="1032.9739"
       r="9.3307629"
       gradientUnits="userSpaceOnUse"
       gradientTransform="matrix(-1.1890578,-0.30456063,0.21258354,-0.82996314,-186.75071,1894.8151)" />
  </defs>
  <sodipodi:namedview
     id="base"
     pagecolor="#ffffff"
     bordercolor="#666666"
     borderopacity="1.0"
     inkscape:pageopacity="0.0"
     inkscape:pageshadow="2"
     inkscape:zoom="22.4"
     inkscape:cx="6.0685754"
     inkscape:cy="17.993629"
     inkscape:document-units="px"
     inkscape:current-layer="layer1"
     showgrid="false"
     units="px"
     inkscape:window-width="1366"
     inkscape:window-height="705"
     inkscape:window-x="-8"
     inkscape:window-y="-8"
     inkscape:window-maximized="1" />
  <metadata
     id="metadata7">
    <rdf:RDF>
      <cc:Work
         rdf:about="">
        <dc:format>image/svg+xml</dc:format>
        <dc:type
           rdf:resource="http://purl.org/dc/dcmitype/StillImage" />
        <dc:title />
      </cc:Work>
    </rdf:RDF>
  </metadata>
  <g
     inkscape:label="Layer 1"
     inkscape:groupmode="layer"
     id="layer1"
     transform="translate(0,-1020.3622)">
    <path
       style="opacity:1;fill:url(#radialGradient5034);fill-opacity:1;stroke:none;stroke-width:6;stroke-miterlimit:4;stroke-dasharray:none;stroke-opacity:1"
       d="m 13.503589,1020.5059 c 6.894704,0 12.445312,5.5506 12.445312,12.4453 0,0.4309 -0.02171,0.8566 -0.06402,1.276 -0.04231,0.4194 -0.105343,0.8325 -0.187964,1.2383 -0.08264,0.4058 -0.184856,0.8043 -0.305702,1.1945 -2.108876,5.3444 -5.719641,10.4141 -12.037629,15.6195 -5.5005043,-5.2318 -7.7081659,-7.0324 -10.7975413,-13.3867 -0.191148,-0.3527 -0.3657343,-0.7158 -0.5227672,-1.0883 -0.1570219,-0.3725 -0.2964683,-0.7543 -0.4173256,-1.1445 -0.1208463,-0.3902 -0.2230923,-0.7887 -0.3057134,-1.1945 -0.082643,-0.4058 -0.1456061,-0.8189 -0.1879524,-1.2383 -0.042313,-0.4194 -0.064021,-0.8451 -0.064021,-1.276 0,-6.8947 5.5506192,-12.4453 12.4453128,-12.4453 z"
       id="path6423"
       inkscape:connector-curvature="0"
       sodipodi:nodetypes="sssscccssssss" />
    <rect
       ry="10.7105"
       rx="10.7105"
       y="1022.2365"
       x="2.8923297"
       height="21.421"
       width="21.421"
       id="rect6425"
       style="opacity:1;fill:url(#radialGradient5026);fill-opacity:1;stroke:none;stroke-width:6;stroke-miterlimit:4;stroke-dasharray:none;stroke-opacity:1" />
    <rect
       style="opacity:1;fill:#162d50;fill-opacity:1;stroke:none;stroke-width:6;stroke-miterlimit:4;stroke-dasharray:none;stroke-opacity:1"
       id="rect6427"
       width="18.661526"
       height="18.661526"
       x="4.2954736"
       y="1023.6395"
       rx="9.3307629"
       ry="9.3307629" />
    <rect
       ry="9.3307629"
       rx="9.3307629"
       y="1023.6395"
       x="4.2954736"
       height="18.661526"
       width="18.661526"
       id="rect5036"
       style="opacity:1;fill:url(#radialGradient5044);fill-opacity:1;stroke:none;stroke-width:6;stroke-miterlimit:4;stroke-dasharray:none;stroke-opacity:1" />
    <rect
       ry="9.3307629"
       rx="9.3307629"
       y="1023.6395"
       x="4.2954736"
       height="18.661526"
       width="18.661526"
       id="rect5061"
       style="opacity:1;fill:url(#radialGradient5069);fill-opacity:1;stroke:none;stroke-width:6;stroke-miterlimit:4;stroke-dasharray:none;stroke-opacity:1" />
    <path
       style="fill:#ffffff"
       d="m 9.0380519,1039.4213 c -0.1329,-0.1329 -0.14462,-0.1892 -0.14462,-0.6951 l 0,-0.5504 -0.23745,-0.2319 c -0.3885,-0.3793 -0.41064,-0.5276 -0.41064,-2.7486 0,-1.9182 -9.8e-4,-1.9336 -0.12237,-1.9336 -0.0673,0 -0.19987,-0.078 -0.29459,-0.1722 l -0.17222,-0.1722 0,-0.8929 0,-0.8928 0.17222,-0.1722 c 0.13339,-0.1334 0.22578,-0.1722 0.40976,-0.1722 0.22191,0 0.23971,-0.013 0.27067,-0.1915 0.0182,-0.1053 0.1229,-0.7483 0.23262,-1.4288 0.21873,-1.3567 0.23752,-1.4243 0.49125,-1.7675 0.3080697,-0.4168 1.0243601,-0.7378 1.9732791,-0.8844 1.353776,-0.4388 4.089429,-0.3777 5.39097,0 1.14852,0.1855 1.78971,0.5178 2.10047,1.0888 0.13283,0.2441 0.2011,0.5351 0.36354,1.5497 0.11,0.6871 0.21491,1.3354 0.23314,1.4407 0.031,0.1789 0.0488,0.1915 0.27067,0.1915 0.18398,0 0.27636,0.039 0.40975,0.1722 l 0.17223,0.1722 0,0.8928 0,0.8929 -0.17223,0.1722 c -0.0947,0.095 -0.22728,0.1722 -0.29458,0.1722 -0.1214,0 -0.12237,0.015 -0.12237,1.9336 0,2.221 -0.0221,2.3693 -0.41064,2.7486 l -0.23746,0.2319 0,0.5504 c 0,0.5059 -0.0117,0.5622 -0.14461,0.6951 -0.14145,0.1414 -0.16522,0.1446 -1.08345,0.1446 -1.20419,0 -1.20431,0 -1.24648,-0.7458 l -0.0295,-0.5209 -2.50401,0 -2.504,0 -0.0295,0.5209 c -0.0422,0.7457 -0.0423,0.7458 -1.246479,0.7458 -0.9182301,0 -0.9420101,0 -1.0834501,-0.1446 z m 1.9095091,-3.139 c 0.41683,-0.3087 0.55224,-0.8888 0.3029,-1.2978 -0.45513,-0.7465 -1.6556594,-0.4677 -1.7494991,0.4062 -0.0808,0.7525 0.8553591,1.3294 1.4465991,0.8916 z m 6.84481,0.025 c 0.87556,-0.463 0.55314,-1.7502 -0.43822,-1.7495 -0.54811,6e-4 -0.9186,0.3637 -0.91902,0.9012 -6e-4,0.7602 0.69803,1.1969 1.35724,0.8483 z m 0.367344,-4.7101 c -0.0967,-0.5961 -0.419794,-2.7709 -0.905214,-2.9857 -0.59885,-0.2649 -1.23853,-0.3271 -3.35306,-0.3264 -1.8066,6e-4 -2.02304,0.012 -2.55595,0.1286 -0.32021,0.07 -0.7239,0.1974 -0.89707,0.2821 -0.5160394,0.2525 -0.5360494,1.3458 -0.7335594,2.9344 z m -2.566979,-3.7573 c 0.15272,-0.107 0.17124,-0.3309 0.0384,-0.4638 -0.0799,-0.08 -0.32571,-0.093 -1.79279,-0.093 -1.84385,0 -1.88537,0.01 -1.88537,0.3249 0,0.3022 0.12276,0.3232 1.88537,0.3232 1.37402,0 1.6436,-0.014 1.75443,-0.092 z"
       id="path5059"
       inkscape:connector-curvature="0"
       sodipodi:nodetypes="csccsscccccsccccccscscccccssccscscccccsccccscscssccsccccccssscc" />
  </g>
</svg>
