<?xml version="1.0" encoding="UTF-8" standalone="no"?>
<!-- Created with Inkscape (http://www.inkscape.org/) -->

<svg
   xmlns:dc="http://purl.org/dc/elements/1.1/"
   xmlns:cc="http://creativecommons.org/ns#"
   xmlns:rdf="http://www.w3.org/1999/02/22-rdf-syntax-ns#"
   xmlns:svg="http://www.w3.org/2000/svg"
   xmlns="http://www.w3.org/2000/svg"
   xmlns:xlink="http://www.w3.org/1999/xlink"
   xmlns:sodipodi="http://sodipodi.sourceforge.net/DTD/sodipodi-0.dtd"
   xmlns:inkscape="http://www.inkscape.org/namespaces/inkscape"
   width="32"
   height="32"
   viewBox="0 0 32 32.000001"
   id="svg2"
   version="1.1"
   inkscape:version="0.91 r13725"
   sodipodi:docname="bus.svg"
   inkscape:export-filename="C:\Users\Robert C. Anaya\Desktop\Alles\CETI\8vo\Proyecto\rotes fahrad.png"
   inkscape:export-xdpi="90"
   inkscape:export-ydpi="90">
  <defs
     id="defs4">
    <linearGradient
       inkscape:collect="always"
       id="linearGradient5063">
      <stop
         style="stop-color:#0b2228;stop-opacity:1;"
         offset="0"
         id="stop5065" />
      <stop
         style="stop-color:#0b2228;stop-opacity:0;"
         offset="1"
         id="stop5067" />
    </linearGradient>
    <linearGradient
       inkscape:collect="always"
       id="linearGradient5028">
      <stop
         style="stop-color:#2c5aa0;stop-opacity:1;"
         offset="0"
         id="stop5030" />
      <stop
         style="stop-color:#5f8dd3;stop-opacity:1"
         offset="1"
         id="stop5032" />
    </linearGradient>
    <linearGradient
       inkscape:collect="always"
       id="linearGradient5020">
      <stop
         style="stop-color:#162d50;stop-opacity:1;"
         offset="0"
         id="stop5022" />
      <stop
         style="stop-color:#5f8dd3;stop-opacity:1"
         offset="1"
         id="stop5024" />
    </linearGradient>
    <linearGradient
       id="linearGradient8135">
      <stop
         id="stop8137"
         offset="0"
         style="stop-color:#5d070b;stop-opacity:1;" />
      <stop
         style="stop-color:#ed1c24;stop-opacity:1;"
         offset="0.5"
         id="stop8139" />
      <stop
         id="stop8141"
         offset="1"
         style="stop-color:#5d070a;stop-opacity:1;" />
    </linearGradient>
    <filter
       inkscape:label="Evanescent"
       inkscape:menu="Blurs"
       inkscape:menu-tooltip="Blur the contents of objects, preserving the outline and adding progressive transparency at edges"
       style="color-interpolation-filters:sRGB"
       id="filter7829">
      <feGaussianBlur
         result="result6"
         stdDeviation="3"
         in="SourceGraphic"
         id="feGaussianBlur7831" />
      <feColorMatrix
         values="1 0 0 0 0 0 1 0 0 0 0 0 1 0 0 0 0 0 1 0 "
         result="result7"
         in="SourceGraphic"
         id="feColorMatrix7833" />
      <feComposite
         operator="in"
         in="result6"
         in2="result7"
         id="feComposite7835" />
    </filter>
    <radialGradient
       inkscape:collect="always"
       xlink:href="#linearGradient5020"
       id="radialGradient5026"
       cx="21.0238"
       cy="1030.202"
       fx="21.0238"
       fy="1030.202"
       r="10.7105"
       gradientUnits="userSpaceOnUse"
       gradientTransform="matrix(-3.530889,1.6858648,-0.43086858,-0.90241468,541.40605,1924.4282)" />
    <radialGradient
       inkscape:collect="always"
       xlink:href="#linearGradient5028"
       id="radialGradient5034"
       cx="2.1465743"
       cy="1029.4658"
       fx="2.1465743"
       fy="1029.4658"
       r="12.445318"
       gradientTransform="matrix(-1.4622097,-1.3538321,1.9338429,-2.0886355,-1983.272,3180.6353)"
       gradientUnits="userSpaceOnUse" />
    <radialGradient
       inkscape:collect="always"
       xlink:href="#linearGradient5063"
       id="radialGradient5069"
       cx="15.739032"
       cy="1032.4562"
       fx="15.739032"
       fy="1032.4562"
       r="9.3307629"
       gradientUnits="userSpaceOnUse"
       gradientTransform="matrix(-1.1890578,-0.30456063,0.21258354,-0.82996314,-184.48285,1894.8151)" />
  </defs>
  <sodipodi:namedview
     id="base"
     pagecolor="#ffffff"
     bordercolor="#666666"
     borderopacity="1.0"
     inkscape:pageopacity="0.0"
     inkscape:pageshadow="2"
     inkscape:zoom="11.2"
     inkscape:cx="0.38392857"
     inkscape:cy="14.462987"
     inkscape:document-units="px"
     inkscape:current-layer="layer1"
     showgrid="false"
     units="px"
     inkscape:window-width="1366"
     inkscape:window-height="705"
     inkscape:window-x="-8"
     inkscape:window-y="-8"
     inkscape:window-maximized="1"
     showguides="false">
    <inkscape:grid
       type="xygrid"
       id="grid4179" />
  </sodipodi:namedview>
  <metadata
     id="metadata7">
    <rdf:RDF>
      <cc:Work
         rdf:about="">
        <dc:format>image/svg+xml</dc:format>
        <dc:type
           rdf:resource="http://purl.org/dc/dcmitype/StillImage" />
        <dc:title />
      </cc:Work>
    </rdf:RDF>
  </metadata>
  <g
     inkscape:label="Layer 1"
     inkscape:groupmode="layer"
     id="layer1"
     transform="translate(0,-1020.3622)"><path
   style="opacity:1;fill:url(#radialGradient5034);fill-opacity:1;stroke:none;stroke-width:6;stroke-miterlimit:4;stroke-dasharray:none;stroke-opacity:1"
   d="m 15.771446,1020.5059 c 6.894704,0 12.445312,5.5506 12.445312,12.4453 0,0.4309 -0.02171,0.8566 -0.06402,1.276 -0.04231,0.4194 -0.105343,0.8325 -0.187964,1.2383 -0.08264,0.4058 -0.184856,0.8043 -0.305702,1.1945 -2.108876,5.3444 -5.719641,10.4141 -12.037629,15.6195 -5.500504,-5.2318 -7.7081658,-7.0324 -10.7975412,-13.3867 -0.191148,-0.3527 -0.3657343,-0.7158 -0.5227672,-1.0883 -0.1570219,-0.3725 -0.2964683,-0.7543 -0.4173256,-1.1445 -0.1208463,-0.3902 -0.2230923,-0.7887 -0.3057134,-1.1945"
   id="path31"
   inkscape:connector-curvature="0"
   sodipodi:nodetypes="cssccccccc" />

path6423&quot;
       inkscape:connector-curvature=&quot;0&quot;
       sodipodi:nodetypes=&quot;sssscccssssss&quot; /&gt;
    <rect
   ry="10.7105"
   rx="10.7105"
   y="1022.2365"
   x="5.1601868"
   height="21.421"
   width="21.421"
   id="rect6425"
   style="opacity:1;fill:url(#radialGradient5026);fill-opacity:1;stroke:none;stroke-width:6;stroke-miterlimit:4;stroke-dasharray:none;stroke-opacity:1" />
<rect
   style="opacity:1;fill:#162d50;fill-opacity:1;stroke:none;stroke-width:6;stroke-miterlimit:4;stroke-dasharray:none;stroke-opacity:1"
   id="rect6427"
   width="18.661526"
   height="18.661526"
   x="6.5633302"
   y="1023.6395"
   rx="9.3307629"
   ry="9.3307629" />
<rect
   ry="9.3307629"
   rx="9.3307629"
   y="1023.6395"
   x="6.5633302"
   height="18.661526"
   width="18.661526"
   id="rect5061"
   style="opacity:1;fill:url(#radialGradient5069);fill-opacity:1;stroke:none;stroke-width:6;stroke-miterlimit:4;stroke-dasharray:none;stroke-opacity:1" />
<path
   sodipodi:nodetypes="ccsccssccccccccccssccsccccccscccscssssssssssssssssssss"
   inkscape:connector-curvature="0"
   id="path4759"
   d="m 11.571873,1027.8102 c -0.116036,0.8402 -0.227585,1.0864 -0.246864,1.2163 -0.03274,0.2208 -0.05139,0.2367 -0.286072,0.2367 -0.194572,0 -0.291664,0.047 -0.432737,0.212 -0.277095,0.3235 -0.316058,1.3582 0,1.6911 0.100177,0.1169 0.241033,0.212 0.31221,0.212 0.128266,0 0.12924,0.019 0.12924,2.3872 0,2.7419 0.02333,2.9253 0.43419,3.3936 l 0.251219,0.2862 c -0.185641,2.5903 2.452007,2.1631 2.616757,0.7928 l 0.03049,-0.6417 2.6487,0 2.647252,0 0.03194,0.6417 c 0.395757,1.5647 2.486336,1.3137 2.616754,-0.1144 l 0,-0.6795 0.25122,-0.2861 c 0.410871,-0.4684 0.434192,-0.6518 0.434192,-3.3936 0,-2.3685 8.91e-4,-2.3874 0.129246,-2.3874 0.07117,0 0.212035,-0.095 0.312211,-0.212 0.277089,-0.3235 0.316061,-1.3582 0,-1.691 -0.141069,-0.1643 -0.23962,-0.2134 -0.434191,-0.2134 -0.234688,0 -0.253332,-0.018 -0.28607,-0.2354 -0.01928,-0.1289 -0.129089,-0.3825 -0.245412,-1.2306 -1.324911,-3.9193 -9.968565,-3.3257 -10.914283,0.018 z m 9.664309,-0.8613 -4.081227,-0.023 -4.081227,-0.023 c 1.095883,-0.5977 2.68679,-1.2844 4.205111,-1.2728 1.51832,0.018 2.96405,0.7209 3.957343,1.3196 z m 0.567663,4.3685 c -3.073694,0.035 -6.170858,-0.023 -9.244555,0.018 -0.08913,-2.572 2.361674,-3.5438 4.668109,-3.5921 2.306432,-0.048 4.491972,0.9207 4.576446,3.5785 z m -8.811781,2.2245 c 0.599588,0 1.081845,0.4837 1.081845,1.0833 0,0.5996 -0.482257,1.0818 -1.081845,1.0818 -0.599584,0 -1.083295,-0.4822 -1.083295,-1.0818 0,-0.5996 0.483711,-1.0833 1.083295,-1.0833 z m 8.224919,0.033 c 0.599586,0 1.081843,0.4837 1.081843,1.0833 0,0.5997 -0.482257,1.0819 -1.081843,1.0819 -0.599587,0 -1.083297,-0.4822 -1.083297,-1.0819 0,-0.5996 0.48371,-1.0833 1.083297,-1.0833 z m -4.11972,0.5607 c 1.468976,0 2.650153,0.039 2.650153,0.09 0,0.051 -1.181177,0.092 -2.650153,0.092 -1.468979,0 -2.818604,-0.041 -2.818604,-0.092 0,-0.051 1.349625,-0.09 2.818604,-0.09 z m 0,1.4869 c 1.468976,0 2.152072,0.039 2.152072,0.09 0,0.051 -0.683096,0.092 -2.152072,0.092 -1.468979,0 -2.45308,-0.041 -2.45308,-0.092 0,-0.051 0.984101,-0.09 2.45308,-0.09 z"
   style="opacity:0.194;fill:#53676c" />

path5059&quot;
       inkscape:connector-curvature=&quot;0&quot;
       sodipodi:nodetypes=&quot;csccsscccccsccccccscscccccssccscscccccsccccscscssccsccccccssscc&quot; /&gt;
  <path
   style="fill:#6f8a91"
   d="m 10.398468,1028.5569 c -0.116036,0.8402 -0.227585,1.0864 -0.246864,1.2163 -0.03274,0.2208 -0.05139,0.2367 -0.2860719,0.2367 -0.194572,0 -0.291664,0.047 -0.432737,0.212 -0.277095,0.3235 -0.316058,1.3582 0,1.6911 0.100177,0.1169 0.241033,0.212 0.31221,0.212 0.128266,0 0.12924,0.019 0.12924,2.3872 0,2.7419 0.02333,2.9253 0.4341899,3.3936 l 0.251219,0.2862 c -0.185641,2.5903 2.452007,2.1631 2.616757,0.7928 l 0.03049,-0.6417 2.6487,0 2.647252,0 0.03194,0.6417 c 0.395757,1.5647 2.486336,1.3137 2.616754,-0.1144 l 0,-0.6795 0.25122,-0.2861 c 0.410871,-0.4684 0.434192,-0.6518 0.434192,-3.3936 0,-2.3685 8.91e-4,-2.3874 0.129246,-2.3874 0.07117,0 0.212035,-0.095 0.312211,-0.212 0.277089,-0.3235 0.316061,-1.3582 0,-1.691 -0.141069,-0.1643 -0.23962,-0.2134 -0.434191,-0.2134 -0.234688,0 -0.253332,-0.018 -0.28607,-0.2354 -0.01928,-0.1289 -0.129089,-0.3825 -0.245412,-1.2306 -1.324911,-3.9193 -9.968566,-3.3257 -10.914282,0.018 z m 9.664309,-0.8613 -4.081227,-0.023 -4.081227,-0.023 c 1.095883,-0.5977 2.68679,-1.2844 4.205111,-1.2728 1.51832,0.018 2.96405,0.7209 3.957343,1.3196 z m 0.567663,4.3685 c -3.073694,0.035 -6.170858,-0.023 -9.244555,0.018 -0.08913,-2.572 2.361674,-3.5438 4.668109,-3.5921 2.306432,-0.048 4.491972,0.9207 4.576446,3.5785 z m -8.811781,2.2245 c 0.599588,0 1.081845,0.4837 1.081845,1.0833 0,0.5996 -0.482257,1.0818 -1.081845,1.0818 -0.599584,0 -1.083295,-0.4822 -1.083295,-1.0818 0,-0.5996 0.483711,-1.0833 1.083295,-1.0833 z m 8.224919,0.033 c 0.599586,0 1.081843,0.4837 1.081843,1.0833 0,0.5997 -0.482257,1.0819 -1.081843,1.0819 -0.599587,0 -1.083297,-0.4822 -1.083297,-1.0819 0,-0.5996 0.48371,-1.0833 1.083297,-1.0833 z m -4.11972,0.5607 c 1.468976,0 2.650153,0.039 2.650153,0.09 0,0.051 -1.181177,0.092 -2.650153,0.092 -1.468979,0 -2.818604,-0.041 -2.818604,-0.092 0,-0.051 1.349625,-0.09 2.818604,-0.09 z m 0,1.4869 c 1.468976,0 2.152072,0.039 2.152072,0.09 0,0.051 -0.683096,0.092 -2.152072,0.092 -1.468979,0 -2.45308,-0.041 -2.45308,-0.092 0,-0.051 0.984101,-0.09 2.45308,-0.09 z"
   id="path4177"
   inkscape:connector-curvature="0"
   sodipodi:nodetypes="ccsccssccccccccccssccsccccccscccscssssssssssssssssssss" />
</g>
</svg>
