<?xml version="1.0" encoding="UTF-8" standalone="no"?>
<!-- Created with Inkscape (http://www.inkscape.org/) -->

<svg
   xmlns:dc="http://purl.org/dc/elements/1.1/"
   xmlns:cc="http://creativecommons.org/ns#"
   xmlns:rdf="http://www.w3.org/1999/02/22-rdf-syntax-ns#"
   xmlns:svg="http://www.w3.org/2000/svg"
   xmlns="http://www.w3.org/2000/svg"
   xmlns:sodipodi="http://sodipodi.sourceforge.net/DTD/sodipodi-0.dtd"
   xmlns:inkscape="http://www.inkscape.org/namespaces/inkscape"
   width="18mm"
   height="22mm"
   viewBox="0 0 63.779528 77.952758"
   id="svg2"
   version="1.1"
   inkscape:version="0.91 r13725"
   sodipodi:docname="flag.svg">
  <defs
     id="defs4" />
  <sodipodi:namedview
     id="base"
     pagecolor="#ffffff"
     bordercolor="#666666"
     borderopacity="1.0"
     inkscape:pageopacity="0.0"
     inkscape:pageshadow="2"
     inkscape:zoom="5.6"
     inkscape:cx="-3.4202811"
     inkscape:cy="39.636802"
     inkscape:document-units="px"
     inkscape:current-layer="layer1"
     showgrid="false"
     inkscape:window-width="1366"
     inkscape:window-height="705"
     inkscape:window-x="-8"
     inkscape:window-y="-8"
     inkscape:window-maximized="1" />
  <metadata
     id="metadata7">
    <rdf:RDF>
      <cc:Work
         rdf:about="">
        <dc:format>image/svg+xml</dc:format>
        <dc:type
           rdf:resource="http://purl.org/dc/dcmitype/StillImage" />
        <dc:title></dc:title>
      </cc:Work>
    </rdf:RDF>
  </metadata>
  <g
     inkscape:label="Layer 1"
     inkscape:groupmode="layer"
     id="layer1"
     transform="translate(0,-974.40946)">
    <g
       id="g4161"
       transform="matrix(0.51372699,0,0,1.0056427,6.5996275,6.4701048)">
      <path
         sodipodi:nodetypes="ccccccccccc"
         inkscape:connector-curvature="0"
         id="rect4136"
         d="m 5.5355296,974.83301 c 34.8546234,9.39639 49.9651464,21.92952 87.7411354,12 l 0,8.71257 0,8.71252 0,8.7126 0,8.7126 c -34.426796,18.5107 -76.744851,-5.9018 -87.7411354,-12 l 0,-8.7126 0,-8.71256 0,-8.71256 z"
         style="opacity:1;fill:#ff0000;fill-opacity:1;stroke:#ff0000;stroke-opacity:1" />
      <path
         style="opacity:1;fill:#008000;fill-opacity:1;stroke:#008000;stroke-opacity:1"
         d="m 5.5351562,18.140625 0,8.712891 0,8.710937 0,8.712891 0,8.71289 C 9.9713143,55.450391 19.509608,60.89023 31.566406,65.291016 l 0,-38.929688 C 23.835543,23.759589 15.504045,20.828118 5.5351562,18.140625 Z"
         transform="translate(-3.8146975e-6,956.69292)"
         id="path4146"
         inkscape:connector-curvature="0" />
      <path
         sodipodi:nodetypes="ccccc"
         inkscape:connector-curvature="0"
         transform="translate(-3.8146975e-6,956.69292)"
         id="path4144"
         d="m 31.566406,26.361328 0,38.929688 c 9.642939,3.519715 20.898565,6.369516 32.451172,6.501953 l 0,-38.121094 C 52.523982,33.122566 42.680079,30.101516 31.566406,26.361328 Z"
         style="opacity:1;fill:#ffffff;fill-opacity:1;stroke:#ffffff;stroke-opacity:1" />
    </g>
    <g
       id="g4203"
       transform="matrix(0.81840341,0,0,1,6.3735636,0)">
      <path
         style="fill:#9dad99"
         d="m 30.2916,1030.9981 c -0.228267,-0.3363 -0.337347,-0.43 -0.477873,-0.4109 -0.233246,0.032 -0.487507,-0.1519 -0.487507,-0.3523 0,-0.092 -0.106183,-0.2045 -0.260184,-0.2756 -0.358792,-0.1657 -0.414581,-0.5077 -0.137623,-0.8437 0.210732,-0.2556 0.212512,-0.2744 0.02573,-0.272 -0.110362,0 -0.301446,-0.1069 -0.42463,-0.2407 -0.170166,-0.1849 -0.304601,-0.1804 -0.559607,0.019 -0.37252,0.2911 -0.750599,0.1234 -0.832666,-0.3694 -0.03687,-0.2214 -0.155065,-0.3955 -0.419349,-0.6177 -0.332147,-0.2793 -0.366166,-0.3454 -0.349065,-0.6782 0.01478,-0.2877 -0.03424,-0.4259 -0.222871,-0.6281 -0.325814,-0.3493 -0.415991,-0.5972 -0.502137,-1.3802 -0.07054,-0.6412 -0.06481,-0.6558 0.165155,-0.4204 0.131025,0.1341 0.324879,0.3566 0.430788,0.4945 0.171199,0.2228 0.185754,0.1987 0.1312,-0.2174 -0.07477,-0.5704 0.250213,-0.8345 0.660493,-0.5368 0.145749,0.1058 0.289879,0.1548 0.320288,0.1089 0.09347,-0.141 -0.184653,-0.5551 -0.808687,-1.2041 -0.545581,-0.5675 -0.594189,-0.6484 -0.566902,-0.9432 0.03591,-0.388 -0.193141,-0.8598 -0.711647,-1.4659 -0.352885,-0.4125 -0.57936,-0.9025 -0.57936,-1.2535 0,-0.273 0.58643,0.2732 0.875072,0.8149 0.298089,0.5596 1.176922,1.7793 1.397049,1.9391 0.07025,0.051 0.153853,0.018 0.185794,-0.074 0.09258,-0.2658 0.300261,-0.016 0.519775,0.6248 0.221961,0.6481 0.53121,1.0392 0.664524,0.8403 0.05999,-0.09 0.328405,0.05 0.920125,0.4799 0.765356,0.5554 0.837913,0.5841 0.865028,0.3422 0.0278,-0.2481 -0.01109,-0.2901 -0.640904,-0.6917 -0.546197,-0.3484 -0.766788,-0.5574 -1.189866,-1.1276 -0.28565,-0.385 -0.574697,-0.8312 -0.642327,-0.9914 -0.09258,-0.2195 -0.156681,-0.2773 -0.259416,-0.2342 -0.356807,0.1499 -1.92888,-1.6758 -2.192084,-2.5458 -0.05846,-0.1932 -0.188692,-0.4111 -0.289396,-0.4842 -0.482859,-0.3504 -1.502578,-2.5959 -1.362076,-2.9994 0.03885,-0.1116 -0.01775,-0.3661 -0.142662,-0.6416 -0.273258,-0.6025 -0.367945,-1.2415 -0.223607,-1.5091 0.0879,-0.163 0.08796,-0.284 2.53e-4,-0.4936 -0.06392,-0.1527 -0.09922,-0.378 -0.07843,-0.5007 0.03005,-0.1773 0.06815,-0.1155 0.185859,0.3012 0.09995,0.3538 0.243754,0.6166 0.442566,0.8086 0.217352,0.21 0.31438,0.4016 0.370383,0.7315 0.09933,0.5851 0.273787,0.9907 0.495351,1.1515 0.200984,0.1458 0.752259,1.3495 0.853584,1.8638 0.07207,0.3658 0.204194,0.5213 0.308833,0.3635 0.03652,-0.055 0.19312,0.01 0.347993,0.145 0.248464,0.2162 0.423599,0.268 1.004005,0.2967 0.07993,0 0.161306,-0.047 0.180827,-0.114 0.06421,-0.2194 -0.275592,-0.5193 -0.708176,-0.6252 -0.829491,-0.203 -1.484503,-0.9591 -1.484503,-1.7136 0,-0.4005 -0.166407,-0.9201 -0.619679,-1.9347 -0.433286,-0.9699 -0.4965,-1.5186 -0.233788,-2.0293 0.193768,-0.3767 0.140131,-0.5382 -0.361778,-1.0889 -0.235027,-0.258 -0.468336,-0.6333 -0.566536,-0.9115 -0.158242,-0.4482 -0.155971,-0.4801 0.04352,-0.6107 0.209875,-0.1375 0.211979,-0.136 0.737609,0.5094 0.822343,1.0098 1.037054,1.7598 0.845585,2.9538 -0.06415,0.4 -0.04489,0.5441 0.108247,0.8098 0.287368,0.4986 0.348743,0.4797 0.231161,-0.071 -0.280661,-1.3152 0.125597,-2.3602 1.017949,-2.6187 0.226597,-0.066 0.411995,-0.1706 0.411995,-0.2334 0,-0.1572 -0.880747,-1.1973 -1.226097,-1.4479 -0.33803,-0.2453 -0.528564,-0.8158 -0.634846,-1.9008 -0.08097,-0.8265 0.0193,-0.9848 0.687929,-1.086 0.343408,-0.052 0.408775,-0.021 0.538765,0.2524 0.129989,0.2738 0.128476,0.3494 -0.01248,0.6234 -0.204505,0.3976 -0.202002,0.4348 0.04108,0.6112 0.294958,0.2141 1.009219,-0.2089 1.009219,-0.5977 0,-0.1951 0.07608,-0.3007 0.192465,-0.2673 0.105856,0.03 0.217642,-0.017 0.248413,-0.1053 0.03077,-0.088 0.121177,-0.079 0.200901,0.021 0.07972,0.1001 0.174007,0.1382 0.209517,0.085 0.07028,-0.106 0.651954,0.4195 0.808392,0.7303 0.19248,0.3824 0.35817,0.3775 0.35817,-0.011 0,-0.5604 0.199411,-0.7179 0.765064,-0.604 0.957762,0.1929 2.304684,1.4601 3.62272,3.4085 0.461592,0.6823 0.957125,1.3261 1.101185,1.4306 0.195088,0.1416 0.261925,0.2615 0.261925,0.47 0,0.154 0.09462,0.4577 0.210261,0.6749 0.674853,1.2677 1.824895,4.4557 2.058267,5.7057 0.04136,0.2215 0.154683,0.5858 0.251829,0.8095 0.185556,0.4273 0.174845,1.0858 -0.08172,5.0246 -0.12289,1.8866 -0.581726,2.6928 -0.724855,1.2737 -0.03856,-0.3824 -0.06989,-0.4654 -0.122297,-0.3238 -0.09261,0.2501 -0.380771,-0.1115 -0.380771,-0.4779 0,-0.1968 -0.04685,-0.2877 -0.159591,-0.3098 -0.08778,-0.017 -0.181874,-0.047 -0.209109,-0.067 -0.02723,-0.02 0.04205,0.1912 0.153954,0.4688 0.111909,0.2776 0.180045,0.572 0.151413,0.6543 -0.09729,0.2794 -1.259604,-0.1443 -2.132535,-0.7773 l -0.578686,-0.4197 0.0084,0.5978 c 0.01368,0.9714 0.03452,1.1043 0.19104,1.2178 0.08196,0.06 0.221885,0.01 0.31095,-0.1155 0.200461,-0.2769 0.804215,-0.3452 0.989985,-0.112 0.07582,0.095 0.310646,0.1645 0.521835,0.154 0.312492,-0.015 0.42913,0.042 0.626489,0.3094 0.205954,0.279 0.270658,0.3015 0.429243,0.1487 0.141892,-0.1367 0.21527,-0.1205 0.305573,0.068 0.09079,0.189 0.05676,0.2585 -0.144178,0.2944 -0.161047,0.029 -0.263017,0.1752 -0.263017,0.3774 0,0.2459 -0.0903,0.3169 -0.353125,0.2778 -0.262375,-0.039 -0.353125,0.032 -0.353125,0.2767 0,0.3686 -0.42417,0.6875 -0.804843,0.605 -0.168079,-0.036 -0.250685,0.053 -0.252232,0.2728 -0.0026,0.3758 -0.35339,0.4248 -0.790853,0.1105 -0.448094,-0.3219 -0.696974,-0.265 -0.576904,0.1318 0.123307,0.4076 -0.0028,0.4803 -0.520123,0.2997 -0.204704,-0.071 -0.537142,-0.076 -0.738752,-0.01 -0.264862,0.087 -0.518504,0.027 -0.914198,-0.2147 -0.301197,-0.1841 -0.547632,-0.2865 -0.547632,-0.2276 0,0.4136 1.426807,1.2718 1.875898,1.1283 0.415552,-0.1328 1.517089,0.4779 1.613443,0.8945 0.09904,0.4281 0.56169,0.6787 0.860888,0.4662 0.145238,-0.1031 0.322758,-0.3956 0.39449,-0.65 0.126342,-0.4481 0.868346,-1.25 1.040844,-1.125 0.04681,0.034 0.109532,0.2083 0.139375,0.3875 0.0339,0.2036 0.109163,0.3366 0.200592,0.3545 0.08048,0.016 0.18802,0.059 0.238973,0.096 0.1279,0.093 0.496213,-0.1638 0.496213,-0.3457 0,-0.088 -0.0872,-0.1738 -0.214383,-0.2103 -0.132562,-0.038 -0.245539,-0.1539 -0.29602,-0.3033 -0.109449,-0.3239 -0.02489,-0.4226 0.213679,-0.2495 0.135655,0.098 0.196003,0.046 0.196394,-0.1709 0.0017,-0.9391 0.498736,-1.7697 0.926018,-1.5475 0.117393,0.061 0.304532,0.01 0.415862,-0.1178 0.194213,-0.2196 0.195646,-0.2582 0.03535,-0.954 -0.171058,-0.7426 -0.231459,-2.2252 -0.08636,-2.1199 0.04439,0.032 0.133509,0.1698 0.198036,0.3057 0.08917,0.1878 0.143834,0.1701 0.2278,-0.074 0.216104,-0.6278 0.299528,-0.5967 0.683981,0.2557 0.269329,0.5971 0.364408,0.9445 0.400194,1.4623 0.04503,0.6516 0.02801,0.69 -0.41877,0.9463 -0.256138,0.1468 -0.465706,0.3069 -0.465706,0.3556 0,0.049 0.113505,0.1411 0.252233,0.2051 0.186515,0.086 0.252232,0.1763 0.252232,0.346 0,0.2939 -0.26511,0.2449 -0.439362,-0.081 -0.176968,-0.3312 -0.266888,-0.2535 -0.266888,0.2306 0,0.3281 0.04253,0.4255 0.252232,0.5777 0.297536,0.2159 0.305649,0.3038 0.08578,0.9299 -0.222745,0.6344 -0.566346,0.8729 -1.103772,0.7662 -0.465957,-0.092 -0.587245,0.064 -0.243174,0.3137 0.113941,0.083 0.201786,0.2393 0.201786,0.3597 0,0.3206 -0.29368,0.201 -0.438951,-0.1787 -0.117586,-0.3073 -0.13642,-0.3216 -0.265158,-0.2009 -0.07622,0.072 -0.173074,0.4559 -0.215232,0.8541 -0.114401,1.0808 -0.397642,1.2097 -1.277386,0.581 -0.709954,-0.5073 -1.053599,-0.578 -1.552433,-0.3191 -0.147597,0.077 -0.261101,0.2594 -0.252233,0.4063 0.011,0.1822 -0.128198,0.2612 -0.437894,0.2486 -0.534059,-0.022 -0.907083,-0.2598 -1.542469,-0.9848 -0.255594,-0.2917 -0.485877,-0.5165 -0.511738,-0.4996 -0.02586,0.017 -0.229528,-0.2466 -0.452592,-0.5857 -0.223064,-0.3391 -0.432384,-0.599 -0.465155,-0.5775 -0.120382,0.079 0.05987,0.5219 0.457578,1.1248 0.437025,0.6626 0.478379,1.0103 0.08274,0.6958 -0.133111,-0.1058 -0.278328,-0.1328 -0.322704,-0.06 -0.103087,0.169 -0.250195,0.052 -0.61867,-0.4903 z m -0.930887,-2.6816 c 0.497656,-0.2436 0.671758,-0.1247 0.671758,0.459 0,0.4563 0.05389,0.4171 0.132445,-0.096 l 0.06054,-0.3958 -0.626179,-0.553 c -0.438777,-0.3876 -0.756022,-0.7676 -1.060031,-1.2697 -0.484805,-0.8008 -1.153682,-1.3799 -1.485244,-1.2858 -0.163815,0.046 -0.172095,0.1022 -0.05634,0.3787 0.10574,0.2526 0.167077,0.311 0.277865,0.2645 0.111214,-0.047 0.201669,0.044 0.415409,0.4172 0.15028,0.2624 0.49557,0.774 0.767311,1.1371 0.483819,0.6464 0.490301,0.6631 0.312265,0.8055 -0.346476,0.2771 0.09538,0.381 0.590207,0.1388 z m 4.28886,-0.5583 c 0.129305,-0.085 0.111388,-0.1337 -0.145776,-0.3987 -0.16126,-0.1662 -0.44127,-0.513 -0.622243,-0.7707 -0.268428,-0.3823 -0.365751,-0.4636 -0.528318,-0.4414 -0.109602,0.015 -0.275032,-0.028 -0.367623,-0.095 -0.156699,-0.1137 -0.156794,-0.096 -0.0014,0.2537 0.09184,0.2068 0.166977,0.4584 0.166977,0.5592 0,0.2537 1.295563,1.0257 1.498352,0.8929 z m -3.234935,-5.5967 c -0.02401,-0.3341 0.01464,-0.3805 0.22319,-0.2677 0.422648,0.2286 0.426516,0.079 0.02188,-0.8436 -0.28564,-0.6517 -0.426742,-0.8806 -0.533074,-0.8647 -0.243921,0.036 -1.534224,-0.9046 -1.706993,-1.2448 -0.08404,-0.1655 -0.284713,-0.4421 -0.445947,-0.6146 -0.372425,-0.3986 -0.618156,-0.211 -0.450287,0.3439 0.07523,0.2486 0.07409,0.3725 -0.0039,0.4236 -0.161426,0.1057 -0.134464,0.552 0.04712,0.7799 0.09393,0.118 0.26787,0.1316 0.431507,0.034 0.233547,-0.1394 0.333509,-0.1078 0.675004,0.2131 0.489247,0.4597 1.041246,1.2286 1.299309,1.8098 0.274873,0.619 0.477692,0.7251 0.442199,0.2312 z m 2.520905,1.3518 c -0.05529,-0.2691 -0.356582,-0.7315 -0.440735,-0.6764 -0.09599,0.063 0.152264,0.6312 0.332978,0.7624 0.08107,0.059 0.129557,0.02 0.107757,-0.086 z m 2.594348,-0.01 c -0.115897,-1.0792 -0.148732,-1.2241 -0.325557,-1.4367 -0.324897,-0.3906 -0.748459,-1.115 -0.867387,-1.4834 -0.06709,-0.2079 -0.223825,-0.441 -0.365636,-0.5439 -0.170169,-0.1235 -0.321618,-0.3838 -0.481674,-0.8278 -0.270215,-0.7496 -1.106166,-2.1003 -0.989055,-1.598 0.0377,0.1617 0.105253,0.5899 0.150116,0.9516 0.04486,0.3617 0.10917,0.7157 0.142904,0.7867 0.153695,0.3238 2.645595,4.5878 2.716879,4.649 0.04413,0.038 0.05287,-0.1859 0.01941,-0.4975 z m -9.471797,-8.4055 c 0.192326,-0.2102 0.175645,-0.281 -0.162231,-0.6888 -0.326197,-0.3937 -0.355125,-0.354 -0.239088,0.328 0.07296,0.4287 0.219023,0.5601 0.401319,0.3608 z m 1.568755,-1.3239 c -0.09042,-0.4542 -0.163932,-1.0864 -0.16336,-1.405 8.78e-4,-0.4886 -0.02427,-0.5789 -0.16073,-0.5771 -0.374026,0 -1.205111,0.5606 -1.205111,0.8057 0,0.5235 0.307118,0.9753 1.023396,1.5057 l 0.670205,0.4963 -0.1644,-0.8256 z m 0.484195,-3.1828 c 0.12405,-0.5303 0.0809,-0.6272 -0.252534,-0.5676 -0.163912,0.029 -0.241266,0.1424 -0.204934,0.2994 0.0321,0.1388 0.05836,0.3802 0.05836,0.5366 0,0.4405 0.276805,0.2543 0.39911,-0.2684 z m -3.323937,14.0675 c -0.167643,-0.4006 -0.05597,-0.6692 0.20072,-0.4829 0.114465,0.083 0.234474,0.2649 0.266686,0.4042 0.05797,0.2506 -0.119715,0.5381 -0.266686,0.4315 -0.0419,-0.03 -0.132226,-0.1892 -0.20072,-0.3528 z m 10.234128,7.4822 c -0.03728,-0.1103 -0.01919,-0.2324 0.04022,-0.2713 0.125904,-0.082 0.453436,0.4526 0.361723,0.5909 -0.07679,0.1158 -0.320217,-0.078 -0.401939,-0.3196 z m -11.483466,-9.3222 c -0.09033,-0.1353 -0.164228,-0.3173 -0.164228,-0.4043 0,-0.087 -0.09747,-0.3721 -0.216594,-0.6337 -0.179225,-0.3934 -0.194501,-0.4961 -0.08854,-0.5955 0.09894,-0.093 0.100938,-0.1849 0.0088,-0.405 -0.148154,-0.354 -0.03658,-1.221 0.140584,-1.0925 0.06846,0.05 0.20665,0.2753 0.307087,0.5014 0.100437,0.2261 0.224471,0.4415 0.27563,0.4786 0.155422,0.1128 0.623411,1.1798 0.916217,2.089 l 0.276551,0.8587 -0.280181,-0.1222 c -0.1541,-0.067 -0.444638,-0.1911 -0.64564,-0.2753 -0.204167,-0.086 -0.437941,-0.2618 -0.529688,-0.3992 z m 1.780717,1.0228 c -0.159195,-0.3353 0.05101,-0.7816 0.287343,-0.6101 0.291346,0.2114 0.42074,0.782 0.203173,0.8959 -0.213339,0.1118 -0.335565,0.041 -0.490516,-0.2858 z m 9.093135,6.5613 c -0.09176,-0.3967 0.117373,-0.5336 0.282821,-0.1852 0.09513,0.2004 0.08489,0.2807 -0.04674,0.3669 -0.157446,0.1031 -0.172975,0.091 -0.236082,-0.1817 z m -12.396818,-11.5736 c -0.0334,-0.1695 -0.04781,-0.3822 -0.03202,-0.4726 0.01643,-0.094 -0.07916,-0.2647 -0.223526,-0.3989 -0.357202,-0.3321 -0.504465,-0.6464 -0.504465,-1.0765 0,-0.2051 -0.05341,-0.4854 -0.118687,-0.6229 -0.09099,-0.1917 -0.0768,-0.2835 0.0608,-0.3936 0.09872,-0.079 0.158357,-0.2408 0.132531,-0.3598 -0.02583,-0.1189 0.0131,-0.337 0.08652,-0.4847 0.07341,-0.1477 0.105015,-0.3285 0.07023,-0.4017 -0.03478,-0.073 0.01139,-0.079 0.102591,-0.013 0.09121,0.066 0.245239,0.3503 0.342295,0.6314 0.09706,0.2811 0.234309,0.6032 0.305005,0.7158 0.0707,0.1126 0.128538,0.3232 0.128538,0.4681 0,0.1449 0.0454,0.3351 0.100893,0.4227 0.05549,0.088 0.100893,0.3164 0.100893,0.5085 0,0.192 0.04757,0.5063 0.105702,0.6985 0.09691,0.3203 0.123947,0.3449 0.325127,0.2964 0.28724,-0.069 0.34745,-0.016 0.480658,0.4241 0.157335,0.52 -0.04879,0.6756 -0.444917,0.3358 -0.25141,-0.2157 -0.333726,-0.2119 -0.443584,0.02 -0.15552,0.3287 -0.484724,0.1579 -0.574581,-0.2981 z m -1.36537,-5.3134 c 0,-0.432 0.127801,-0.4394 0.388276,-0.023 0.204009,0.3265 0.09587,0.706 -0.162298,0.5695 -0.191965,-0.1015 -0.225978,-0.1838 -0.225978,-0.547 z m 17.416633,12.9357 c -0.07977,-0.2361 0.105277,-0.4146 0.228341,-0.2203 0.161974,0.2557 0.137995,0.5972 -0.03321,0.473 -0.07996,-0.058 -0.16777,-0.1718 -0.195129,-0.2527 z M 21.67854,1014.2272 c -0.18015,-0.3794 -0.147104,-0.607 0.0886,-0.6101 0.286938,0 0.49658,0.2897 0.49658,0.6952 0,0.4572 -0.352011,0.406 -0.585179,-0.085 z m -0.907207,-1.9241 c -0.406433,-0.8666 -0.525356,-1.353 -0.336717,-1.3771 0.04832,-0.01 0.115291,-0.1806 0.148817,-0.3877 0.04291,-0.265 0.119422,-0.3341 0.258465,-0.2332 0.10863,0.079 0.224896,0.044 0.25837,-0.077 0.0699,-0.2533 0.538438,-0.1238 0.687443,0.19 0.193238,0.407 0.123982,1.6759 -0.127,2.3269 -0.132696,0.3442 -0.291561,0.5894 -0.353033,0.5447 -0.06147,-0.045 -0.302827,-0.4885 -0.536345,-0.9864 z"
         id="path4217"
         inkscape:connector-curvature="0" />
      <path
         style="fill:#c49e5b"
         d="m 29.366694,1030.2583 c -0.04314,-0.1277 0.0995,-0.2917 0.35351,-0.4064 0.341611,-0.1542 0.43719,-0.3009 0.48323,-0.7413 0.03156,-0.302 0.09126,-0.5245 0.132645,-0.4945 0.168772,0.1225 0.320599,0.6672 0.26284,0.943 -0.06109,0.2917 0.157703,0.8056 0.70642,1.6592 0.393213,0.6118 0.01729,0.3761 -0.472696,-0.2963 -0.318511,-0.4371 -0.536824,-0.6675 -0.579841,-0.6118 -0.07881,0.1019 -0.677855,0.2607 -0.75964,0.2014 -0.02978,-0.022 -0.08669,-0.1356 -0.126468,-0.2533 z m 0.993678,0.6511 c -0.139502,-0.179 -0.173387,-0.4515 -0.04451,-0.3579 0.04489,0.033 0.16974,0.2152 0.277455,0.4058 0.145941,0.2583 0.157283,0.317 0.04451,0.2302 -0.08324,-0.064 -0.208092,-0.1892 -0.277456,-0.2781 z m -1.437723,-1.4179 c 0,-0.1138 0.158906,-0.2272 0.353125,-0.2519 0.292143,-0.037 0.353125,-0.1273 0.353125,-0.5212 0,-0.2619 0.0454,-0.4432 0.100893,-0.4029 0.05549,0.04 0.100893,0.285 0.100893,0.5439 0,0.3889 -0.07887,0.5027 -0.454018,0.6549 -0.301874,0.1224 -0.454018,0.1148 -0.454018,-0.023 z m -1.614286,-1.4074 c 0,-0.2491 -0.04351,-0.3051 -0.346579,-0.4466 -0.426118,-0.1988 -0.621968,-0.4689 -0.454176,-0.6262 0.173169,-0.1624 0.04399,-0.558 -0.274296,-0.84 -0.229189,-0.2031 -0.292771,-0.3454 -0.35136,-0.7864 -0.03934,-0.2962 -0.05625,-0.5485 -0.03757,-0.5607 0.01868,-0.012 0.156917,0.1782 0.307187,0.4231 0.263023,0.4288 0.278402,0.4394 0.412178,0.2839 0.135224,-0.1572 0.146975,-0.1475 0.437044,0.3591 0.276614,0.483 0.305097,0.5083 0.395447,0.351 0.08969,-0.1562 0.111933,-0.1413 0.282197,0.1886 0.101659,0.197 0.332391,0.5685 0.512737,0.8255 0.180346,0.2569 0.32756,0.5437 0.327143,0.6372 -0.0011,0.253 -0.847855,0.7392 -1.042015,0.5983 -0.101919,-0.074 -0.167941,-0.2339 -0.167941,-0.4068 z m 5.195983,3.4844 c -0.530888,-0.5197 -0.967059,-1.0732 -1.185307,-1.5043 -0.267462,-0.5282 -0.214974,-0.6122 0.196179,-0.3138 0.239042,0.1734 0.511356,0.2386 0.75852,0.1815 0.41473,-0.096 1.390876,0.3702 1.390876,0.664 0,0.086 0.102154,0.2321 0.227009,0.3239 0.124855,0.092 0.290373,0.2683 0.367817,0.3922 0.108266,0.1732 0.0652,0.2243 -0.186331,0.2214 -0.241987,0 -0.313834,0.076 -0.276025,0.3031 0.08784,0.5274 -0.632794,0.3781 -1.292738,-0.268 z m -7.612143,-6.8244 c -0.156564,-0.374 -0.07035,-0.6866 0.14607,-0.5295 0.224889,0.1632 0.30679,0.6248 0.131246,0.7398 -0.130844,0.086 -0.163946,0.061 -0.277316,-0.2103 z m 10.127493,7.3945 c -0.07606,-0.2251 0.150538,-0.3161 0.27961,-0.1124 0.04427,0.07 0.08049,0.2174 0.08049,0.3278 0,0.2364 -0.259991,0.081 -0.360097,-0.2154 z m -5.336861,-4.3789 c -0.597974,-0.4848 -0.909426,-0.8926 -0.803567,-1.0522 0.03041,-0.046 -0.08889,-0.188 -0.265105,-0.3159 -0.287648,-0.2087 -0.31545,-0.2646 -0.272009,-0.5468 0.03794,-0.2465 0.02021,-0.3025 -0.08209,-0.2595 -0.07176,0.03 -0.303901,-0.091 -0.515865,-0.2687 -0.366149,-0.3073 -0.38387,-0.3443 -0.354942,-0.7414 0.03628,-0.4979 -0.05275,-0.6553 -0.787144,-1.392 -0.499391,-0.501 -0.555369,-0.5932 -0.559492,-0.9215 -0.0027,-0.2114 -0.108722,-0.5578 -0.252232,-0.8237 -0.196019,-0.3633 -0.221891,-0.4765 -0.124092,-0.5429 0.09844,-0.067 0.246225,0.078 0.726992,0.7135 0.511413,0.6758 0.621386,0.7805 0.721161,0.687 0.168351,-0.1579 0.371558,0.028 0.446496,0.4082 0.03542,0.1798 0.199726,0.5217 0.36513,0.7598 0.165403,0.2381 0.345004,0.6028 0.399113,0.8104 0.08389,0.3219 0.09119,0.3074 0.04952,-0.098 -0.02831,-0.2758 0.0024,-0.4947 0.07298,-0.5206 0.07077,-0.026 0.473591,0.2478 0.96105,0.6533 0.89479,0.7442 0.980309,0.7587 0.978136,0.1662 -0.0014,-0.3785 0.03436,-0.3462 -1.07188,-0.9686 -0.371738,-0.2092 -0.568008,-0.4083 -0.976565,-0.9906 -0.281228,-0.4008 -0.538233,-0.8084 -0.571122,-0.9057 -0.03448,-0.102 -0.349443,-0.3536 -0.743798,-0.5942 -0.7921,-0.4831 -1.178376,-0.9621 -1.702639,-2.1115 -0.177517,-0.3892 -0.415079,-0.7747 -0.527916,-0.8565 -0.112836,-0.082 -0.415782,-0.5804 -0.673212,-1.1077 -0.397724,-0.8147 -0.461283,-1.0176 -0.422993,-1.3499 0.03488,-0.3028 0.0014,-0.4421 -0.148285,-0.6162 -0.10634,-0.1238 -0.257156,-0.4822 -0.335147,-0.7965 -0.202856,-0.8174 -0.02748,-1.196 0.407755,-0.8801 0.29295,0.2125 0.329816,0.2953 0.504657,1.1322 0.103741,0.4967 0.240442,0.9406 0.30378,0.9866 0.167484,0.1215 0.725768,1.3768 0.809379,1.8198 0.06604,0.3499 0.107621,0.3979 0.540817,0.6239 0.258105,0.1347 0.613807,0.1986 0.790451,0.142 0.176643,-0.057 0.393727,-0.05 0.482407,0.014 0.08868,0.064 0.187371,0.042 0.219312,-0.05 0.08675,-0.2492 0.261875,-0.062 0.189035,0.2015 -0.03456,0.1253 -0.01587,0.383 0.04153,0.5727 0.0789,0.2607 0.06671,0.3607 -0.04996,0.4097 -0.08514,0.036 -0.140726,0.2362 -0.123996,0.447 0.03534,0.4454 0.236118,0.6183 0.795321,0.6848 0.306514,0.036 0.400605,0.099 0.619302,0.4149 0.141832,0.2045 0.368733,0.423 0.504226,0.4855 0.182497,0.084 0.289362,0.2356 0.412291,0.5839 0.09127,0.2585 0.325999,0.666 0.521625,0.9057 0.258653,0.3168 0.355685,0.5183 0.355685,0.7388 0,0.3885 0.268869,0.9134 0.41787,0.8158 0.132331,-0.087 0.04244,-0.5687 -0.21908,-1.1747 -0.296118,-0.6863 -0.262666,-1.1319 0.07089,-0.9444 0.386113,0.2171 0.388741,0.01 0.01181,-0.9444 -0.440179,-1.111 -0.664087,-1.4607 -0.793986,-1.2401 -0.07182,0.122 -0.156859,0.094 -0.316959,-0.1038 -0.120344,-0.1488 -0.392871,-0.3358 -0.605614,-0.4157 -0.31292,-0.1174 -0.421496,-0.2136 -0.56841,-0.5038 -0.09988,-0.1973 -0.24738,-0.4064 -0.327772,-0.4647 -0.08039,-0.058 -0.235725,-0.2558 -0.345181,-0.4387 -0.316224,-0.5284 -1.096285,-1.1885 -1.32004,-1.1171 -0.419306,0.134 -1.249955,-0.8108 -1.249955,-1.4217 0,-0.4018 -0.360213,-1.4271 -0.713363,-2.0305 -0.341163,-0.5829 -0.381817,-1.0653 -0.141909,-1.6839 0.187033,-0.4823 0.06604,-1.0274 -0.253929,-1.1441 -0.486058,-0.1772 -1.080572,-1.3611 -0.854628,-1.7018 0.145109,-0.2189 0.871432,0.5842 1.187465,1.3129 0.259494,0.5983 0.28711,0.749 0.244911,1.3363 -0.02616,0.364 -0.08029,0.7451 -0.120297,0.8468 -0.05266,0.1339 0.04064,0.4131 0.33806,1.0114 0.284478,0.5723 0.436,1.0158 0.492764,1.4424 0.0522,0.3922 0.144485,0.6778 0.254126,0.7865 0.09469,0.094 0.172158,0.091 0.172158,-0.01 0,-0.098 0.142124,-0.2769 0.315831,-0.3983 l 0.315832,-0.2207 -0.349338,-0.455 c -0.836936,-1.0901 -1.044378,-2.4978 -0.480892,-3.2633 0.168243,-0.2286 0.425942,-0.437 0.572665,-0.4633 0.146722,-0.026 0.372312,-0.1284 0.501312,-0.2269 0.280737,-0.2145 0.166162,-0.6058 -0.270053,-0.9223 -0.152884,-0.111 -0.33774,-0.3445 -0.41079,-0.5191 -0.08721,-0.2083 -0.226159,-0.3592 -0.404617,-0.4395 -0.361107,-0.1623 -0.55329,-0.6235 -0.631697,-1.5159 -0.07752,-0.8823 -0.02591,-1.0272 0.384425,-1.0796 0.459948,-0.059 0.490218,0 0.254521,0.4632 -0.189285,0.3749 -0.19255,0.4278 -0.03834,0.6214 0.155484,0.1952 0.15474,0.2155 -0.0096,0.2622 -0.200169,0.057 -0.140361,0.5092 0.08936,0.6759 0.0812,0.059 0.252496,-0.021 0.380659,-0.1765 0.210533,-0.2562 0.943588,-0.9201 1.366087,-1.2372 0.09081,-0.068 0.247974,-0.064 0.349247,0.01 0.101273,0.073 0.184223,0.087 0.184334,0.029 4.23e-4,-0.2229 0.629033,0.3065 0.936814,0.7889 0.17828,0.2795 0.41495,0.5709 0.525932,0.6477 0.191685,0.1327 0.190423,0.1205 -0.02522,-0.2437 -0.26965,-0.4553 -0.304423,-1.1184 -0.06395,-1.2194 0.515854,-0.2167 1.585022,0.3959 2.671799,1.5308 0.299779,0.3131 0.924743,1.1198 1.388809,1.7929 0.464065,0.673 0.952134,1.3023 1.084598,1.3984 0.164041,0.119 0.240843,0.2542 0.240843,0.4237 0,0.137 0.230102,0.727 0.511338,1.3113 0.622786,1.2938 1.276446,3.1193 1.648269,4.6033 0.152486,0.6086 0.332701,1.2408 0.400476,1.4049 0.127024,0.3076 0.0934,1.6155 -0.117767,4.5806 -0.147182,2.0667 -0.471977,2.5828 -0.477712,0.7591 -0.0039,-1.2383 -0.20466,-1.6207 -0.298803,-0.5692 -0.03923,0.4382 -0.107041,0.7708 -0.150689,0.7391 -0.04365,-0.032 -0.111831,-0.4416 -0.151516,-0.9109 -0.09916,-1.1726 -0.18021,-1.332 -0.308802,-0.6071 l -0.109454,0.617 -0.144768,-0.9407 c -0.106819,-0.6942 -0.190037,-0.9741 -0.317458,-1.0677 -0.09498,-0.07 -0.228914,-0.2454 -0.297634,-0.3901 -0.06872,-0.1448 -0.186465,-0.3078 -0.261657,-0.3624 -0.07519,-0.055 -0.2453,-0.517 -0.378019,-1.0276 -0.238222,-0.9165 -0.41012,-1.3225 -0.527388,-1.2457 -0.03307,0.022 -0.0057,0.2439 0.06094,0.494 0.176284,0.662 0.03238,0.6303 -0.241129,-0.053 -0.299428,-0.7482 -0.325046,-0.7988 -0.78385,-1.5456 -0.283513,-0.4616 -0.394749,-0.5843 -0.432147,-0.4769 -0.05978,0.1717 0.212211,2.0578 0.329162,2.2826 0.15866,0.3048 2.600739,4.4698 2.884073,4.9188 0.404205,0.6405 0.325959,0.9394 -0.18098,0.6912 -0.221237,-0.1083 -0.629258,-0.2934 -0.906713,-0.4114 -0.66161,-0.2813 -1.304746,-0.8916 -1.673905,-1.5883 -0.240091,-0.4531 -0.325985,-0.5496 -0.444751,-0.4997 -0.228692,0.096 -0.01009,0.656 0.455639,1.1671 0.422246,0.4634 0.467968,0.6046 0.297861,0.9199 -0.06387,0.1184 -0.0712,0.3913 -0.01899,0.7074 0.072,0.4358 0.141967,0.5686 0.457303,0.8682 0.243325,0.2312 0.44214,0.3369 0.573902,0.3051 0.264268,-0.064 0.257825,-0.2648 -0.01163,-0.3631 -0.191089,-0.07 -0.201198,-0.1001 -0.09734,-0.2926 0.138312,-0.2564 0.411471,-0.099 0.411471,0.2376 0,0.1723 0.118256,0.1665 0.428795,-0.021 0.58805,-0.3548 0.805381,-0.3363 1.100776,0.094 0.308953,0.4497 0.336259,1.2188 0.03847,1.0835 -0.324824,-0.1475 -0.660009,-0.024 -0.660009,0.2432 0,0.1376 -0.139689,0.3111 -0.31042,0.3855 -0.273724,0.1193 -0.400097,0.07 -1.069031,-0.4152 -0.528575,-0.3835 -0.845407,-0.6842 -1.044845,-0.9916 -0.254599,-0.3924 -0.348453,-0.4657 -0.849207,-0.6632 -0.704477,-0.2779 -0.9563,-0.135 -0.432235,0.2453 0.39878,0.2894 0.540495,0.665 0.370075,0.981 -0.0585,0.1084 -0.08867,0.4424 -0.06704,0.7421 l 0.03932,0.545 0.01696,-0.5748 c 0.02023,-0.6855 0.149075,-0.7179 0.916265,-0.2307 0.615265,0.3908 0.805653,0.7689 0.365727,0.7264 -0.216532,-0.021 -0.253624,0.049 -0.205543,0.3857 0.05273,0.3697 0.01815,0.4004 -0.34157,0.3033 -0.22013,-0.06 -0.471715,-0.1978 -0.559078,-0.3075 -0.111377,-0.1398 -0.158841,-0.1175 -0.158841,0.075 0,0.1996 -0.0686,0.2244 -0.252232,0.091 -0.147493,-0.107 -0.252232,-0.103 -0.252232,0.01 0,0.3465 -0.32204,0.1579 -1.863029,-1.0913 z m -2.576258,-11.6632 c 0,-0.1577 -0.0454,-0.281 -0.100893,-0.2739 -0.05549,0.01 -0.100893,0.1032 -0.100893,0.2136 0,0.1104 0.0454,0.2336 0.100893,0.2739 0.05549,0.04 0.100893,-0.056 0.100893,-0.2136 z m 1.156866,-0.3007 c -0.04434,-0.4773 -0.141012,-0.8989 -0.247382,-1.0789 -0.158541,-0.2684 -0.35903,-1.1876 -0.426417,-1.9552 -0.03013,-0.3431 0.201139,-1.2471 0.390667,-1.527 0.204703,-0.3023 0.434025,-1.1321 0.349676,-1.2653 -0.04257,-0.067 -0.225107,-0.1054 -0.405639,-0.085 -0.270299,0.031 -0.325117,0.1188 -0.310551,0.4987 0.03918,1.0217 0.01513,1.0696 -0.58289,1.1597 -0.748224,0.1127 -1.17578,0.4856 -1.099694,0.9592 0.125647,0.7819 0.297318,1.0537 0.99923,1.5817 0.767662,0.5774 1.042722,1.0191 1.143872,1.8369 0.105901,0.8561 0.270197,0.7476 0.189128,-0.125 z m 8.283312,5.3811 c -0.118544,-0.2497 -0.149368,-0.038 -0.07925,0.5441 l 0.07256,0.6025 0.03192,-0.5131 c 0.01755,-0.2823 0.0062,-0.5673 -0.02522,-0.6335 z m -6.17512,-11.826 c -0.0614,-0.2655 -0.238272,-0.4628 -0.238272,-0.2658 0,0.1473 0.110285,0.3818 0.215435,0.4581 0.0445,0.032 0.05478,-0.054 0.02284,-0.1923 z m -3.855407,15.4833 c -0.181984,-0.3833 -0.137268,-0.596 0.135552,-0.6448 0.300225,-0.054 0.55569,0.2296 0.55569,0.6163 0,0.363 -0.522225,0.3845 -0.691242,0.029 z m 8.717064,6.0473 c 0.11969,-0.6729 0.21289,-0.836 0.604756,-1.0585 0.330812,-0.1878 0.370183,-0.1805 0.321899,0.059 -0.06372,0.3167 0.08442,0.4638 0.374175,0.3715 0.107715,-0.034 0.30227,0.015 0.432344,0.1093 0.202554,0.147 0.221508,0.1994 0.132055,0.3652 -0.05744,0.1065 -0.104442,0.42 -0.104442,0.6966 0,0.3484 -0.07615,0.5529 -0.247647,0.6652 -0.21309,0.1395 -0.34091,0.094 -0.916051,-0.3229 l -0.668407,-0.485 0.07132,-0.4009 z m -11.657966,-8.3922 c 0,-0.1525 -0.102154,-0.4504 -0.227008,-0.6619 -0.193866,-0.3284 -0.204914,-0.3891 -0.07567,-0.4158 0.124677,-0.026 0.12912,-0.097 0.02522,-0.4038 -0.152636,-0.4508 -0.165785,-0.9622 -0.02206,-0.8579 0.05723,0.042 0.130193,0.1885 0.162134,0.3266 0.03194,0.1381 0.142423,0.3123 0.245516,0.3871 0.103093,0.075 0.236038,0.2966 0.295434,0.4929 0.0594,0.1963 0.174498,0.4052 0.255782,0.4642 0.08128,0.059 0.147789,0.2035 0.147789,0.3211 0,0.1176 0.07057,0.4137 0.156822,0.658 0.185268,0.5248 0.145215,0.5426 -0.484723,0.2157 -0.435313,-0.226 -0.479242,-0.2742 -0.479242,-0.5262 z m 1.715179,1.0896 c 0,-0.1438 0.07038,-0.291 0.156403,-0.3272 0.128916,-0.054 0.184535,-0.01 0.316476,0.2715 0.215973,0.4548 0.09668,0.7306 -0.21748,0.5026 -0.182585,-0.1325 -0.255399,-0.2599 -0.255399,-0.4469 z m 9.130806,6.7482 c -0.08228,-0.2435 0.03836,-0.4168 0.158311,-0.2274 0.122545,0.1935 0.121749,0.5699 -10e-4,0.4808 -0.05222,-0.038 -0.122999,-0.1519 -0.157294,-0.2534 z m -0.718358,-2.1164 c -0.09069,-0.3921 0.05056,-0.4575 0.415679,-0.1926 0.406572,0.2951 0.515086,0.5482 0.296399,0.6914 -0.199859,0.1309 -0.637303,-0.1756 -0.712078,-0.4988 z m 4.04239,2.7056 c -0.103973,-0.3077 0.12987,-0.4043 0.269053,-0.1111 0.116422,0.2452 0.04356,0.4894 -0.112281,0.3763 -0.04894,-0.035 -0.119489,-0.1548 -0.156772,-0.2652 z m -15.68341,-12.1348 c 0,-0.2518 0.05421,-0.3089 0.195832,-0.2061 0.257537,0.1869 0.356666,0.4986 0.204072,0.6417 -0.191539,0.1796 -0.399904,-0.047 -0.399904,-0.4356 z m 14.794879,10.5698 c -0.120583,-0.2539 -0.06515,-0.5077 0.08682,-0.3975 0.08324,0.061 0.151339,0.2002 0.151339,0.3106 0,0.2327 -0.144002,0.2853 -0.23816,0.087 z m 0.609211,0.4474 c -0.0376,-0.079 -0.06837,-0.5003 -0.06837,-0.9359 0,-0.8805 0.301184,-1.4778 0.659352,-1.3077 0.109031,0.052 0.300391,0.038 0.425246,-0.03 l 0.227009,-0.1242 0,0.5118 c 0,0.453 0.02895,0.5328 0.252232,0.6948 0.306393,0.2224 0.309906,0.3875 0.02107,0.9903 -0.153262,0.3199 -0.348873,0.4668 -0.626422,0.4705 -0.504188,0.01 -0.80171,-0.083 -0.89011,-0.2695 z m -12.542766,-9.6211 c -0.230937,-0.4437 -0.263476,-0.5713 -0.162959,-0.6393 0.203517,-0.1377 0.681547,0.5087 0.681547,0.9216 0,0.4657 -0.18044,0.3675 -0.518588,-0.2823 z m -2.006466,-1.4086 c -0.09116,-0.2698 0.14099,-0.4488 0.368211,-0.2839 0.134799,0.098 0.189432,0.2379 0.189432,0.4857 0,0.2763 -0.05084,0.3113 -0.246278,0.1695 -0.135453,-0.098 -0.275567,-0.2654 -0.311365,-0.3713 z m -1.056643,-0.9661 c -0.333913,-0.3615 -0.446245,-0.5474 -0.424634,-0.7027 0.01616,-0.1162 -0.02305,-0.3846 -0.08714,-0.5964 -0.09579,-0.3166 -0.08605,-0.3866 0.05477,-0.3932 0.121722,-0.01 0.152982,-0.122 0.108016,-0.402 -0.0658,-0.4097 0.103666,-0.7176 0.259522,-0.4715 0.0492,0.078 0.08946,0.2629 0.08946,0.4116 0,0.1487 0.0681,0.3197 0.151339,0.3801 0.08486,0.062 0.151339,0.2342 0.151339,0.3928 0,0.1556 0.06094,0.3595 0.135431,0.453 0.138706,0.1741 0.211041,1.4195 0.08246,1.4197 -0.0366,0 -0.270857,-0.2211 -0.520566,-0.4914 z m 14.528574,8.585 c 0,-0.1125 0.0681,-0.1552 0.151339,-0.095 0.08324,0.06 0.151339,0.1658 0.151339,0.2342 0,0.069 -0.0681,0.1111 -0.151339,0.095 -0.09219,-0.018 -0.151339,-0.1096 -0.151339,-0.2342 z m 2.870014,1.4481 c -0.103972,-0.3077 0.12987,-0.4043 0.269053,-0.1112 0.116422,0.2452 0.04356,0.4895 -0.112281,0.3764 -0.04894,-0.035 -0.119488,-0.1549 -0.156772,-0.2652 z m -18.542041,-13.9539 c -0.147823,-0.3113 -0.06273,-0.6491 0.128569,-0.5103 0.257538,0.1869 0.356667,0.4986 0.204073,0.6417 -0.133196,0.1249 -0.228892,0.087 -0.332642,-0.1314 z m 17.405031,12.5068 c 0.04563,-0.2694 0.224691,-0.158 0.265646,0.1653 0.02127,0.1679 -0.02822,0.2233 -0.132132,0.1479 -0.09693,-0.07 -0.152547,-0.2008 -0.133514,-0.3132 z m 0.589582,-0.1861 c -0.297698,-1.0216 -0.25599,-1.6538 0.09243,-1.4009 0.07971,0.058 0.182583,-0.068 0.228607,-0.28 0.111509,-0.5131 0.260643,-0.5063 0.380856,0.017 0.05401,0.2354 0.145855,0.4625 0.204094,0.5047 0.151796,0.1102 0.323724,0.9359 0.259105,1.2445 -0.05429,0.2592 -0.737536,0.7762 -0.884693,0.6694 -0.04211,-0.031 -0.168288,-0.3703 -0.280398,-0.7551 z M 21.72988,1014.2054 c -0.03934,-0.083 -0.07152,-0.2656 -0.07152,-0.406 0,-0.1922 0.07665,-0.1998 0.309696,-0.031 0.263456,0.1911 0.304882,0.268 0.277455,0.5147 -0.03183,0.2863 -0.366689,0.2356 -0.515633,-0.078 z m -0.964095,-2.1924 c -0.287779,-0.6188 -0.308214,-0.7105 -0.171131,-0.768 0.08562,-0.036 0.155672,-0.2145 0.155672,-0.3966 0,-0.2397 0.05645,-0.2902 0.204283,-0.1829 0.125067,0.091 0.24147,0.04 0.300181,-0.1304 0.11728,-0.3407 0.453691,-0.1593 0.374364,0.2019 -0.02901,0.1321 -0.01459,0.3004 0.03204,0.374 0.210951,0.3331 -0.208004,1.8663 -0.459998,1.6834 -0.05973,-0.043 -0.255665,-0.395 -0.435407,-0.7814 z m 2.305077,0.3971 c 0,-0.1149 0.0454,-0.176 0.100893,-0.1357 0.05549,0.04 0.100893,0.1672 0.100893,0.2821 0,0.1149 -0.0454,0.176 -0.100893,0.1357 -0.05549,-0.04 -0.100893,-0.1672 -0.100893,-0.2821 z"
         id="path4215"
         inkscape:connector-curvature="0" />
      <path
         style="fill:#4eaeb6"
         d="m 30.299116,1030.7482 c -0.173548,-0.3655 -0.427535,-0.5839 -0.518878,-0.4461 -0.0343,0.052 -0.116428,0.052 -0.182517,10e-4 -0.06609,-0.051 0.05218,-0.1782 0.262822,-0.2822 0.263618,-0.1303 0.401377,-0.3324 0.441997,-0.6485 0.03246,-0.2526 0.09394,-0.4339 0.136624,-0.4029 0.130129,0.094 0.05619,1.1454 -0.07879,1.12 -0.138141,-0.026 -0.175971,0.3666 -0.04451,0.462 0.04489,0.033 0.16974,0.2152 0.277455,0.4058 0.170033,0.3009 0.173524,0.331 0.02649,0.2282 -0.09315,-0.065 -0.237458,-0.2619 -0.320695,-0.4373 z m -1.376467,-1.2567 c 0,-0.1138 0.158906,-0.2272 0.353125,-0.2519 0.292143,-0.037 0.353125,-0.1273 0.353125,-0.5212 0,-0.2619 0.0454,-0.4432 0.100893,-0.4029 0.05549,0.04 0.100893,0.285 0.100893,0.5439 0,0.3889 -0.07887,0.5027 -0.454018,0.6549 -0.301874,0.1224 -0.454018,0.1148 -0.454018,-0.023 z m -1.614286,-1.4074 c 0,-0.2491 -0.04351,-0.3051 -0.346579,-0.4466 -0.426118,-0.1988 -0.621968,-0.4689 -0.454176,-0.6262 0.173169,-0.1624 0.04399,-0.558 -0.274296,-0.84 -0.229189,-0.2031 -0.292771,-0.3454 -0.35136,-0.7864 -0.03934,-0.2962 -0.05846,-0.5471 -0.04248,-0.5575 0.01598,-0.01 0.169608,0.1943 0.341392,0.4551 0.303099,0.4601 0.316716,0.4691 0.460478,0.3037 0.148002,-0.1703 0.148202,-0.1702 0.211329,0.154 0.211097,1.0839 0.573052,1.7211 0.639269,1.1255 0.03706,-0.3333 0.186403,-0.257 0.466284,0.2383 0.107715,0.1907 0.277972,0.4062 0.378348,0.4791 0.294643,0.2138 0.211023,0.4606 -0.255673,0.7546 -0.476186,0.3 -0.772539,0.2027 -0.772539,-0.2536 z m 5.195983,3.4844 c -0.530888,-0.5197 -0.967059,-1.0732 -1.185307,-1.5043 -0.267462,-0.5282 -0.214974,-0.6122 0.196179,-0.3138 0.239042,0.1734 0.511356,0.2386 0.75852,0.1815 0.41473,-0.096 1.390876,0.3702 1.390876,0.664 0,0.086 0.102154,0.2321 0.227009,0.3239 0.124855,0.092 0.290373,0.2683 0.367817,0.3922 0.108266,0.1732 0.0652,0.2243 -0.186331,0.2214 -0.241987,0 -0.313834,0.076 -0.276025,0.3031 0.08784,0.5274 -0.632794,0.3781 -1.292738,-0.268 z m -2.841681,-3.8224 c -0.383701,-0.3088 -0.668703,-0.6121 -0.743828,-0.7915 -0.145671,-0.3481 -0.240623,-0.4011 1.315419,0.7353 1.001055,0.731 1.267371,0.966 1.29127,1.1392 0.01656,0.12 -0.07424,0.181 -0.201786,0.1356 -0.229043,-0.082 -0.442762,-0.2383 -1.661075,-1.2186 z m 5.570627,3.1354 c 0.11969,-0.6729 0.21289,-0.836 0.604756,-1.0585 0.330812,-0.1878 0.370183,-0.1805 0.321899,0.059 -0.06372,0.3167 0.08442,0.4638 0.374175,0.3715 0.107715,-0.034 0.30227,0.015 0.432344,0.1093 0.202554,0.147 0.221508,0.1994 0.132055,0.3652 -0.05744,0.1065 -0.104442,0.42 -0.104442,0.6966 0,0.3484 -0.07615,0.5529 -0.247647,0.6652 -0.21309,0.1395 -0.34091,0.094 -0.916051,-0.3229 l -0.668407,-0.485 0.07132,-0.4009 z m -11.657966,-8.3922 c 0,-0.1525 -0.102154,-0.4504 -0.227008,-0.6619 -0.193866,-0.3284 -0.204914,-0.3891 -0.07567,-0.4158 0.124677,-0.026 0.12912,-0.097 0.02522,-0.4038 -0.152636,-0.4508 -0.165785,-0.9622 -0.02206,-0.8579 0.05723,0.042 0.130193,0.1885 0.162134,0.3266 0.03194,0.1381 0.146925,0.3155 0.25552,0.3943 0.161995,0.1176 0.191758,0.2205 0.165768,0.573 -0.02758,0.3742 -0.003,0.4464 0.189983,0.5587 0.14597,0.085 0.293015,0.3191 0.430621,0.6857 0.241516,0.6435 0.21835,0.6613 -0.425272,0.3273 -0.435313,-0.226 -0.479242,-0.2742 -0.479242,-0.5262 z m 8.542264,6.0732 c -0.03699,-0.078 -0.06726,-0.4111 -0.06726,-0.7404 0,-0.7148 0.120801,-0.749 0.899305,-0.2546 0.615265,0.3908 0.805653,0.7689 0.365727,0.7264 -0.215215,-0.021 -0.253492,0.05 -0.206408,0.3797 0.05013,0.3514 0.01288,0.3951 -0.280564,0.3286 -0.379138,-0.086 -0.610835,-0.2292 -0.710798,-0.4397 z m -4.737061,-3.57 c -0.0343,-0.072 -0.03729,-0.2862 -0.0067,-0.4755 0.06773,-0.4184 -0.03339,-0.5931 -0.771766,-1.3338 -0.499391,-0.501 -0.555369,-0.5932 -0.559491,-0.9215 -0.0027,-0.2114 -0.108723,-0.5578 -0.252233,-0.8237 -0.196019,-0.3633 -0.22189,-0.4765 -0.124092,-0.5429 0.09844,-0.067 0.246225,0.078 0.726992,0.7135 0.511413,0.6758 0.621386,0.7805 0.721161,0.687 0.166236,-0.1559 0.371263,0.026 0.44382,0.3947 0.03395,0.1722 0.213688,0.5473 0.399427,0.8333 0.29484,0.4542 0.343305,0.61 0.381802,1.2274 0.02425,0.389 9.18e-4,0.7542 -0.05186,0.8117 -0.09768,0.1064 -0.79357,-0.3311 -0.907112,-0.5702 z m 2.828504,0.9279 c -0.222533,-0.2413 -0.222439,-0.4419 4.04e-4,-0.8087 0.0969,-0.1595 0.176185,-0.4467 0.176185,-0.6382 0,-0.3776 0.03597,-0.3451 -1.0706,-0.9677 -0.371738,-0.2092 -0.568008,-0.4083 -0.976565,-0.9906 -0.281228,-0.4008 -0.538233,-0.8083 -0.571122,-0.9057 -0.03448,-0.102 -0.349442,-0.3536 -0.743798,-0.5941 -0.7921,-0.4832 -1.178376,-0.9622 -1.702638,-2.1116 -0.177544,-0.3892 -0.415106,-0.7747 -0.527943,-0.8565 -0.112836,-0.082 -0.410263,-0.5691 -0.660947,-1.0826 -0.567371,-1.1622 -0.609254,-1.6631 -0.13761,-1.6457 0.174999,0.01 0.370401,0.05 0.434226,0.096 0.168194,0.1221 0.726437,1.3763 0.810265,1.8205 0.06553,0.3473 0.109242,0.3986 0.520966,0.6122 l 0.449428,0.233 0.161273,0.6839 c 0.169247,0.7176 0.258202,0.8392 0.675434,0.9229 0.170767,0.034 0.276873,0.1153 0.320633,0.2448 0.07172,0.2123 0.212597,0.2767 0.757182,0.3461 0.305988,0.039 0.400981,0.1032 0.619302,0.418 0.141832,0.2045 0.368733,0.423 0.504226,0.4855 0.182497,0.084 0.289362,0.2356 0.412291,0.5838 0.09127,0.2586 0.325999,0.6661 0.521625,0.9058 0.258653,0.3168 0.355685,0.5183 0.355685,0.7388 0,0.3804 0.269064,0.9132 0.413433,0.8187 0.131281,-0.086 0.0067,-0.873 -0.174184,-1.1 -0.212384,-0.2666 -0.179169,-1.0087 0.03821,-0.8536 0.56502,0.4032 0.498816,-0.1177 -0.209352,-1.6471 -0.468521,-1.0119 -0.528051,-1.086 -0.602061,-0.7489 -0.0446,0.203 -0.09321,0.1912 -0.30586,-0.075 -0.16303,-0.2038 -0.384579,-0.3615 -0.623766,-0.4439 -0.290787,-0.1002 -0.407093,-0.1975 -0.538275,-0.4504 -0.328103,-0.6327 -0.885138,-1.2979 -1.471759,-1.7577 -0.405542,-0.3179 -0.608986,-0.421 -0.637675,-0.3232 -0.05914,0.2014 -0.642248,-0.249 -0.910902,-0.7038 -0.123329,-0.2087 -0.224235,-0.5096 -0.224235,-0.6686 0,-0.4018 -0.360213,-1.4271 -0.713363,-2.0305 -0.340111,-0.5811 -0.381841,-1.0653 -0.144554,-1.6771 0.120172,-0.3099 0.126912,-0.4799 0.033,-0.8326 -0.09101,-0.3418 -0.08997,-0.4615 0.0045,-0.5234 0.09612,-0.063 0.144344,-0.02 0.223694,0.2009 0.106066,0.2948 0.06975,1.4811 -0.05506,1.7984 -0.05266,0.1339 0.04064,0.4131 0.33806,1.0114 0.28508,0.5735 0.435789,1.0151 0.492467,1.4429 0.06107,0.4609 0.135711,0.6664 0.295907,0.8148 0.140356,0.13 0.235508,0.1213 0.275922,-0.025 0.03393,-0.1229 0.151333,-0.2705 0.260898,-0.3279 0.273994,-0.1434 0.25212,-0.267 -0.136975,-0.7738 -1.113273,-1.45 -1.000025,-3.4606 0.210844,-3.7433 0.207665,-0.048 0.43558,-0.1752 0.506476,-0.2817 0.11552,-0.1735 0.09726,-0.2414 -0.175924,-0.6543 -0.167656,-0.2533 -0.305115,-0.5433 -0.305466,-0.6444 -0.0012,-0.3456 0.208104,-0.5711 0.400529,-0.4314 0.327024,0.2373 0.327066,-0.018 8e-5,-0.4891 l -0.311601,-0.4486 0.306415,-0.2594 c 0.168529,-0.1427 0.373688,-0.3902 0.45591,-0.5501 0.170739,-0.3319 0.348806,-0.3329 0.651691,0 0.116334,0.1264 0.211517,0.1672 0.211517,0.091 0,-0.2596 0.467544,0.075 0.81322,0.5816 0.357299,0.5238 0.801066,0.9221 0.801066,0.719 0,-0.064 -0.113505,-0.2707 -0.252232,-0.4587 -0.262992,-0.3562 -0.291717,-0.5067 -0.186099,-0.9747 0.04182,-0.1853 0.215806,-0.2604 0.511451,-0.2208 0.554622,0.074 0.812546,0.235 0.638732,0.398 -0.09665,0.091 -0.07056,0.1931 0.134046,0.5267 0.340033,0.5543 0.667495,0.6441 0.667495,0.1831 0,-0.3205 0.02761,-0.3223 0.327902,-0.022 0.806522,0.8074 1.380284,1.5159 1.942188,2.3981 0.332946,0.5227 0.730212,1.0434 0.882812,1.157 0.152601,0.1136 0.277456,0.2822 0.277456,0.3747 0,0.092 0.238359,0.7109 0.529687,1.3742 1.05141,2.3939 1.417593,3.4362 1.75174,4.9861 0.07857,0.3645 0.2332,0.8156 0.343626,1.0025 0.131257,0.2222 0.184455,0.4336 0.153643,0.6107 -0.08151,0.4685 -0.141977,1.3941 -0.214514,3.2834 -0.069,1.7972 -0.207266,2.6658 -0.398953,2.5061 -0.05331,-0.044 -0.09819,-0.4875 -0.09973,-0.9848 -0.0039,-1.2474 -0.204244,-1.6367 -0.298803,-0.5806 -0.03923,0.4382 -0.107041,0.7708 -0.150689,0.7391 -0.04365,-0.032 -0.111831,-0.4416 -0.151516,-0.9109 -0.09916,-1.1726 -0.18021,-1.332 -0.308802,-0.6071 l -0.109454,0.617 -0.144768,-0.9407 c -0.106819,-0.6942 -0.190037,-0.9741 -0.317458,-1.0677 -0.09498,-0.07 -0.228914,-0.2454 -0.297634,-0.3901 -0.06872,-0.1448 -0.184411,-0.3063 -0.257093,-0.3591 -0.07268,-0.053 -0.256558,-0.5433 -0.408616,-1.0902 -0.38174,-1.373 -0.697656,-1.7246 -0.378012,-0.4208 0.137819,0.5622 -0.145831,0.1421 -0.414896,-0.6145 -0.146889,-0.413 -0.323018,-0.7915 -0.391397,-0.8411 -0.06838,-0.05 -0.246344,-0.3113 -0.395477,-0.5815 -0.149134,-0.2701 -0.296988,-0.4743 -0.328566,-0.4536 -0.06486,0.042 0.147704,1.8762 0.253938,2.1906 0.03798,0.1124 0.772166,1.4118 1.631531,2.8877 0.962555,1.653 1.562483,2.7742 1.562483,2.92 0,0.1674 -0.118089,0.1787 -0.403572,0.039 -0.221964,-0.1089 -0.63058,-0.2944 -0.908035,-0.4124 -0.66161,-0.2813 -1.304746,-0.8916 -1.673905,-1.5883 -0.242218,-0.4571 -0.325327,-0.5499 -0.446871,-0.4988 -0.258688,0.1086 -0.16422,0.4422 0.301519,1.0646 0.402656,0.5381 0.445477,0.639 0.400707,0.9445 -0.02757,0.1882 -0.01159,0.5578 0.03552,0.8214 0.07009,0.3921 0.153111,0.5433 0.457066,0.8321 0.242439,0.2303 0.441432,0.3359 0.573024,0.3042 0.264268,-0.064 0.257825,-0.2648 -0.01163,-0.3631 -0.191089,-0.07 -0.201198,-0.1001 -0.09734,-0.2926 0.135946,-0.252 0.411471,-0.101 0.411471,0.2256 0,0.188 0.02621,0.215 0.155811,0.1605 0.130246,-0.055 0.180848,0 0.3084,0.3461 0.08392,0.2263 0.218117,0.459 0.298206,0.5171 0.253344,0.1839 0.157678,0.6328 -0.164801,0.7734 -0.273724,0.1193 -0.400097,0.07 -1.069031,-0.4152 -0.528575,-0.3835 -0.845407,-0.6842 -1.044845,-0.9916 -0.254599,-0.3924 -0.348453,-0.4657 -0.849207,-0.6632 -0.595967,-0.2351 -0.820047,-0.1665 -0.729857,0.2234 0.113963,0.4927 -0.662776,0.3845 -1.1674,-0.1626 z m -3.052009,-9.7113 c 0,-0.3897 -0.295512,-0.561 -0.336096,-0.1948 -0.02591,0.2338 0.0081,0.3206 0.15134,0.3865 0.105127,0.048 0.184756,-0.034 0.184756,-0.1917 z m 1.223078,0.1987 c 0.06571,-0.1887 -0.146755,-1.3244 -0.291779,-1.5596 -0.129576,-0.2101 -0.477281,-1.8318 -0.477281,-2.2259 0,-0.1691 0.06255,-0.4395 0.139002,-0.6009 0.07645,-0.1614 0.216596,-0.4879 0.311435,-0.7255 0.09484,-0.2376 0.234071,-0.5587 0.309406,-0.7135 0.117732,-0.2419 0.115489,-0.3266 -0.01596,-0.6035 -0.197557,-0.4161 -0.193378,-0.4141 -0.59604,-0.2823 -0.317956,0.104 -0.338899,0.1583 -0.285154,0.7386 0.04355,0.4703 0.0176,0.6433 -0.104126,0.6945 -0.08917,0.037 -0.162132,0.1409 -0.162132,0.2299 0,0.089 -0.135217,0.174 -0.300482,0.1889 -0.465021,0.042 -1.009279,0.5096 -1.01025,0.8685 -4.84e-4,0.1779 0.126063,0.5908 0.281211,0.9176 0.253749,0.5344 0.334073,0.6249 0.799615,0.901 0.456796,0.2709 0.548014,0.3711 0.77729,0.854 0.142867,0.3009 0.259759,0.6649 0.259759,0.8088 0,0.4487 0.260315,0.8115 0.365489,0.5094 z m 8.166653,4.7691 c -0.118544,-0.2497 -0.149368,-0.038 -0.07925,0.5441 l 0.07256,0.6025 0.03192,-0.5131 c 0.01755,-0.2823 0.0062,-0.5673 -0.02522,-0.6335 z m -6.110713,-11.8489 c -0.12263,-0.4054 -0.302679,-0.5913 -0.302679,-0.3125 0,0.2379 0.09799,0.4425 0.272598,0.5692 0.106809,0.077 0.11362,0.019 0.03008,-0.2567 z m 7.029981,20.4707 c -0.0376,-0.079 -0.06837,-0.5003 -0.06837,-0.9359 0,-0.8805 0.301184,-1.4778 0.659352,-1.3077 0.109031,0.052 0.300391,0.038 0.425246,-0.03 l 0.227009,-0.1242 0,0.5118 c 0,0.453 0.02895,0.5328 0.252232,0.6948 0.306393,0.2224 0.309906,0.3875 0.02107,0.9903 -0.153262,0.3199 -0.348873,0.4668 -0.626422,0.4705 -0.504188,0.01 -0.80171,-0.083 -0.89011,-0.2695 z m -15.605875,-11.9949 c -0.333731,-0.362 -0.446233,-0.5484 -0.424634,-0.7036 0.01616,-0.1162 -0.02305,-0.3846 -0.08714,-0.5964 -0.09579,-0.3166 -0.08605,-0.3866 0.05477,-0.3932 0.121722,-0.01 0.152982,-0.122 0.108016,-0.402 -0.0658,-0.4097 0.103666,-0.7176 0.259522,-0.4715 0.0492,0.078 0.08946,0.2629 0.08946,0.4116 0,0.1487 0.04746,0.3048 0.105464,0.3469 0.06589,0.048 0.0806,0.2414 0.03922,0.5159 -0.05765,0.3824 -0.04023,0.4583 0.134156,0.5849 0.144575,0.1049 0.218321,0.2821 0.264722,0.636 0.08493,0.6479 -0.0015,0.6593 -0.54356,0.071 z m 16.85116,8.399 c -0.297698,-1.0216 -0.25599,-1.6538 0.09243,-1.4009 0.07971,0.058 0.182583,-0.068 0.228607,-0.28 0.111509,-0.5131 0.260643,-0.5063 0.380856,0.017 0.05401,0.2354 0.145855,0.4625 0.204094,0.5047 0.151796,0.1102 0.323724,0.9359 0.259105,1.2445 -0.05429,0.2592 -0.737536,0.7762 -0.884693,0.6694 -0.04211,-0.031 -0.168288,-0.3703 -0.280398,-0.7551 z M 20.765785,1012.013 c -0.287779,-0.6188 -0.308214,-0.7105 -0.171131,-0.768 0.08562,-0.036 0.155672,-0.2145 0.155672,-0.3966 0,-0.2397 0.05645,-0.2902 0.204283,-0.1829 0.125067,0.091 0.24147,0.04 0.300181,-0.1304 0.05275,-0.1532 0.162547,-0.2303 0.244007,-0.1712 0.214889,0.156 0.154708,1.0717 -0.07113,1.0823 -0.210416,0.01 -0.225697,0.316 -0.02815,0.564 0.118242,0.1484 0.123426,0.2442 0.02833,0.523 -0.148135,0.4343 -0.258418,0.3476 -0.66206,-0.5202 z m 4.500156,-3.7509 c -0.08975,-0.202 -0.177684,-0.6572 -0.19542,-1.0114 -0.02815,-0.5623 0.0115,-0.6794 0.312205,-0.9223 0.413658,-0.3341 0.576684,-0.2655 0.361797,0.1522 -0.08609,0.1674 -0.200757,0.2722 -0.254823,0.233 -0.186828,-0.1356 -0.09755,0.1893 0.122345,0.4452 0.209469,0.2438 0.211384,0.2595 0.03779,0.3087 -0.226878,0.064 -0.13771,0.5159 0.141966,0.7189 0.137691,0.1 0.204953,0.2401 0.204953,0.4273 0,0.1532 -0.06439,0.2318 -0.143088,0.1747 -0.0787,-0.057 -0.206418,-0.1162 -0.283821,-0.1314 -0.0774,-0.015 -0.214162,-0.1929 -0.303906,-0.3949 z"
         id="path4213"
         inkscape:connector-curvature="0" />
      <path
         style="fill:#4c965d"
         d="m 29.860543,1030.0209 c 0.263618,-0.1303 0.401377,-0.3324 0.441997,-0.6485 0.03246,-0.2526 0.09394,-0.4339 0.136624,-0.4029 0.130129,0.094 0.05619,1.1454 -0.07879,1.12 -0.06936,-0.013 -0.126116,0.072 -0.126116,0.1894 0,0.1183 -0.08724,0.15 -0.195831,0.071 -0.107707,-0.078 -0.223891,-0.1 -0.258187,-0.048 -0.0343,0.052 -0.116428,0.052 -0.182517,10e-4 -0.06609,-0.051 0.05218,-0.1782 0.262822,-0.2822 z m -2.55218,-1.9368 c 0,-0.2491 -0.04351,-0.3051 -0.346579,-0.4466 -0.426118,-0.1988 -0.621968,-0.4689 -0.454176,-0.6262 0.173169,-0.1624 0.04399,-0.558 -0.274296,-0.84 -0.229189,-0.2031 -0.292771,-0.3454 -0.35136,-0.7864 -0.03934,-0.2962 -0.05846,-0.5471 -0.04248,-0.5575 0.01598,-0.01 0.169608,0.1943 0.341392,0.4551 0.303099,0.4601 0.316716,0.4691 0.460478,0.3037 0.148002,-0.1703 0.148202,-0.1702 0.211329,0.154 0.211097,1.0839 0.573052,1.7211 0.639269,1.1255 0.03706,-0.3333 0.186403,-0.257 0.466284,0.2383 0.107715,0.1907 0.277972,0.4062 0.378348,0.4791 0.289276,0.2099 0.216218,0.4109 -0.26355,0.7251 -0.482797,0.3161 -0.764662,0.2335 -0.764662,-0.2241 z m 5.195983,3.4844 c -0.530888,-0.5197 -0.967059,-1.0732 -1.185307,-1.5043 -0.267462,-0.5282 -0.214974,-0.6122 0.196179,-0.3138 0.239042,0.1734 0.511356,0.2386 0.75852,0.1815 0.41473,-0.096 1.390876,0.3702 1.390876,0.664 0,0.086 0.102154,0.2321 0.227009,0.3239 0.124855,0.092 0.290373,0.2683 0.367817,0.3922 0.108266,0.1732 0.0652,0.2243 -0.186331,0.2214 -0.241987,0 -0.313834,0.076 -0.276025,0.3031 0.08784,0.5274 -0.632794,0.3781 -1.292738,-0.268 z m -2.875447,-4.2518 c 0.844395,0.51 1.793695,1.1909 1.750371,1.2555 -0.02591,0.039 -0.50979,-0.276 -1.075299,-0.6992 -0.565508,-0.4233 -0.869291,-0.6736 -0.675072,-0.5563 z m -0.624275,-0.5976 c 0.07283,0.013 0.159853,0.081 0.193378,0.1513 0.03353,0.071 -0.02606,0.06 -0.132421,-0.023 -0.117535,-0.092 -0.141442,-0.1424 -0.06096,-0.1284 z m 6.228668,4.1624 c 0.11969,-0.6729 0.21289,-0.836 0.604756,-1.0585 0.330812,-0.1878 0.370183,-0.1805 0.321899,0.059 -0.06372,0.3167 0.08442,0.4638 0.374175,0.3715 0.107715,-0.034 0.30227,0.015 0.432344,0.1093 0.202554,0.147 0.221508,0.1994 0.132055,0.3652 -0.05744,0.1065 -0.104442,0.42 -0.104442,0.6966 0,0.3484 -0.07615,0.5529 -0.247647,0.6652 -0.21309,0.1395 -0.34091,0.094 -0.916051,-0.3229 l -0.668407,-0.485 0.07132,-0.4009 z M 23.575326,1022.47 c 0,-0.1553 -0.09034,-0.4146 -0.200765,-0.5763 -0.169589,-0.2483 -0.181732,-0.3222 -0.0782,-0.476 0.09629,-0.143 0.09607,-0.2378 -0.001,-0.4423 -0.150024,-0.316 -0.164569,-0.9308 -0.01953,-0.8255 0.05723,0.042 0.130193,0.1885 0.162134,0.3266 0.03194,0.1381 0.146925,0.3155 0.25552,0.3943 0.161995,0.1176 0.191758,0.2205 0.165768,0.573 -0.02758,0.3742 -0.003,0.4464 0.189983,0.5587 0.14597,0.085 0.293015,0.3191 0.430621,0.6857 0.240468,0.6407 0.220804,0.6553 -0.425272,0.3158 -0.4369,-0.2296 -0.479242,-0.2768 -0.479242,-0.534 z m 6.633707,3.4504 c -0.222533,-0.2413 -0.222439,-0.4419 4.04e-4,-0.8087 0.0969,-0.1595 0.176185,-0.4467 0.176185,-0.6382 0,-0.38 -0.03176,-0.4101 -0.987052,-0.9362 -0.368506,-0.2029 -0.600299,-0.4211 -0.980529,-0.9228 -0.273868,-0.3614 -0.550178,-0.7819 -0.614023,-0.9344 -0.08824,-0.2108 -0.278998,-0.3747 -0.795245,-0.6831 -0.615896,-0.3679 -0.722058,-0.4715 -1.139617,-1.1123 -0.253249,-0.3887 -0.53349,-0.9136 -0.622757,-1.1664 -0.100814,-0.2855 -0.258057,-0.5293 -0.414893,-0.6431 -0.164588,-0.1194 -0.409782,-0.5144 -0.703924,-1.1339 -0.556248,-1.1716 -0.594649,-1.6393 -0.133183,-1.6223 0.174999,0.01 0.370401,0.05 0.434226,0.096 0.168194,0.1221 0.726437,1.3763 0.810265,1.8205 0.06553,0.3473 0.109242,0.3986 0.520966,0.6122 l 0.449428,0.233 0.161273,0.6839 c 0.169247,0.7176 0.258202,0.8392 0.675434,0.9229 0.170767,0.034 0.276873,0.1153 0.320633,0.2448 0.07172,0.2123 0.212597,0.2767 0.757182,0.3461 0.305988,0.039 0.400981,0.1032 0.619302,0.418 0.141832,0.2045 0.368733,0.423 0.504226,0.4855 0.182497,0.084 0.289362,0.2356 0.412291,0.5838 0.09127,0.2586 0.325999,0.6661 0.521625,0.9058 0.258653,0.3168 0.355685,0.5183 0.355685,0.7388 0,0.3804 0.269064,0.9132 0.413433,0.8187 0.131281,-0.086 0.0067,-0.873 -0.174184,-1.1 -0.212384,-0.2666 -0.179169,-1.0087 0.03821,-0.8536 0.56502,0.4032 0.498816,-0.1177 -0.209352,-1.6471 -0.468521,-1.0119 -0.528051,-1.086 -0.602061,-0.7489 -0.0446,0.203 -0.09321,0.1912 -0.30586,-0.075 -0.16303,-0.2038 -0.384579,-0.3615 -0.623766,-0.4439 -0.290787,-0.1002 -0.407093,-0.1975 -0.538275,-0.4504 -0.328103,-0.6327 -0.885138,-1.2979 -1.471759,-1.7577 -0.405542,-0.3179 -0.608986,-0.421 -0.637675,-0.3232 -0.05914,0.2014 -0.642248,-0.249 -0.910902,-0.7038 -0.123329,-0.2087 -0.224235,-0.5096 -0.224235,-0.6686 0,-0.4018 -0.360213,-1.4271 -0.713363,-2.0305 -0.340111,-0.5811 -0.381841,-1.0653 -0.144554,-1.6771 0.120172,-0.3099 0.126912,-0.4799 0.033,-0.8326 -0.09101,-0.3418 -0.08997,-0.4615 0.0045,-0.5234 0.09612,-0.063 0.144344,-0.02 0.223694,0.2009 0.106066,0.2948 0.06975,1.4811 -0.05506,1.7984 -0.05266,0.1339 0.04064,0.4131 0.33806,1.0114 0.28508,0.5735 0.435789,1.0151 0.492467,1.4429 0.06107,0.4609 0.135711,0.6664 0.295907,0.8148 0.140356,0.13 0.235508,0.1213 0.275922,-0.025 0.03393,-0.1229 0.151333,-0.2705 0.260898,-0.3279 0.273994,-0.1434 0.25212,-0.267 -0.136975,-0.7738 -1.113273,-1.45 -1.000025,-3.4606 0.210844,-3.7433 0.207665,-0.048 0.43558,-0.1752 0.506476,-0.2817 0.11552,-0.1735 0.09726,-0.2414 -0.175924,-0.6543 -0.167656,-0.2533 -0.305115,-0.5433 -0.305466,-0.6444 -0.0012,-0.3456 0.208104,-0.5711 0.400529,-0.4314 0.327024,0.2373 0.327066,-0.018 8e-5,-0.4891 l -0.311601,-0.4486 0.306415,-0.2594 c 0.168529,-0.1427 0.373688,-0.3902 0.45591,-0.5501 0.170739,-0.3319 0.348806,-0.3329 0.651691,0 0.116334,0.1264 0.211517,0.1672 0.211517,0.091 0,-0.2596 0.467544,0.075 0.81322,0.5816 0.357299,0.5238 0.801066,0.9221 0.801066,0.719 0,-0.064 -0.113505,-0.2707 -0.252232,-0.4587 -0.262992,-0.3562 -0.291717,-0.5067 -0.186099,-0.9747 0.04182,-0.1853 0.215806,-0.2604 0.511451,-0.2208 0.554622,0.074 0.812546,0.235 0.638732,0.398 -0.09665,0.091 -0.07056,0.1931 0.134046,0.5267 0.340033,0.5543 0.667495,0.6441 0.667495,0.1831 0,-0.3205 0.02761,-0.3223 0.327902,-0.022 0.806522,0.8074 1.380284,1.5159 1.942188,2.3981 0.332946,0.5227 0.730212,1.0434 0.882812,1.157 0.152601,0.1136 0.277456,0.2822 0.277456,0.3747 0,0.092 0.238359,0.7109 0.529687,1.3742 1.05141,2.3939 1.417593,3.4362 1.75174,4.9861 0.07857,0.3645 0.2332,0.8156 0.343626,1.0025 0.131257,0.2222 0.184455,0.4336 0.153643,0.6107 -0.08151,0.4685 -0.141977,1.3941 -0.214514,3.2834 -0.069,1.7972 -0.207266,2.6658 -0.398953,2.5061 -0.05331,-0.044 -0.09819,-0.4875 -0.09973,-0.9848 -0.0039,-1.2474 -0.204244,-1.6367 -0.298803,-0.5806 -0.03923,0.4382 -0.107041,0.7708 -0.150689,0.7391 -0.04365,-0.032 -0.111831,-0.4416 -0.151516,-0.9109 -0.09916,-1.1726 -0.18021,-1.332 -0.308802,-0.6071 l -0.109454,0.617 -0.144768,-0.9407 c -0.106819,-0.6942 -0.190037,-0.9741 -0.317458,-1.0677 -0.09498,-0.07 -0.228914,-0.2454 -0.297634,-0.3901 -0.06872,-0.1448 -0.184411,-0.3063 -0.257093,-0.3591 -0.07268,-0.053 -0.256558,-0.5433 -0.408616,-1.0902 -0.38174,-1.373 -0.697656,-1.7246 -0.378012,-0.4208 0.137819,0.5622 -0.145831,0.1421 -0.414896,-0.6145 -0.146889,-0.413 -0.323018,-0.7915 -0.391397,-0.8411 -0.06838,-0.05 -0.246344,-0.3113 -0.395477,-0.5815 -0.149134,-0.2701 -0.296988,-0.4743 -0.328566,-0.4536 -0.06486,0.042 0.147704,1.8762 0.253938,2.1906 0.03798,0.1124 0.772166,1.4118 1.631531,2.8877 0.962555,1.653 1.562483,2.7742 1.562483,2.92 0,0.1674 -0.118089,0.1787 -0.403572,0.039 -0.221964,-0.1089 -0.63058,-0.2944 -0.908035,-0.4124 -0.66161,-0.2813 -1.304746,-0.8916 -1.673905,-1.5883 -0.242218,-0.4571 -0.325327,-0.5499 -0.446871,-0.4988 -0.258688,0.1086 -0.16422,0.4422 0.301519,1.0646 0.402656,0.5381 0.445477,0.639 0.400707,0.9445 -0.02757,0.1882 -0.01159,0.5578 0.03552,0.8214 0.07009,0.3921 0.153111,0.5433 0.457066,0.8321 0.242439,0.2303 0.441432,0.3359 0.573024,0.3042 0.264268,-0.064 0.257825,-0.2648 -0.01163,-0.3631 -0.191089,-0.07 -0.201198,-0.1001 -0.09734,-0.2926 0.135946,-0.252 0.411471,-0.101 0.411471,0.2256 0,0.188 0.02621,0.215 0.155811,0.1605 0.130246,-0.055 0.180848,0 0.3084,0.3461 0.08392,0.2263 0.218117,0.459 0.298206,0.5171 0.232662,0.1688 0.168553,0.6012 -0.112998,0.762 -0.354283,0.2024 -1.599411,-0.5884 -2.111843,-1.3412 -0.303369,-0.4457 -0.391122,-0.5155 -0.901058,-0.7166 -0.597818,-0.2358 -0.822103,-0.1676 -0.731842,0.2226 0.113963,0.4927 -0.662776,0.3845 -1.1674,-0.1626 z m -3.052009,-9.7113 c 0,-0.3897 -0.295512,-0.561 -0.336096,-0.1948 -0.02591,0.2338 0.0081,0.3206 0.15134,0.3865 0.105127,0.048 0.184756,-0.034 0.184756,-0.1917 z m 1.223078,0.1987 c 0.06571,-0.1887 -0.146755,-1.3244 -0.291779,-1.5596 -0.129576,-0.2101 -0.477281,-1.8318 -0.477281,-2.2259 0,-0.1691 0.06255,-0.4395 0.139002,-0.6009 0.07645,-0.1614 0.216596,-0.4879 0.311435,-0.7255 0.09484,-0.2376 0.234071,-0.5587 0.309406,-0.7135 0.117732,-0.2419 0.115489,-0.3266 -0.01596,-0.6035 -0.197557,-0.4161 -0.193378,-0.4141 -0.59604,-0.2823 -0.317956,0.104 -0.338899,0.1583 -0.285154,0.7386 0.04355,0.4703 0.0176,0.6433 -0.104126,0.6945 -0.08917,0.037 -0.162132,0.1409 -0.162132,0.2299 0,0.089 -0.135217,0.174 -0.300482,0.1889 -0.465021,0.042 -1.009279,0.5096 -1.01025,0.8685 -4.84e-4,0.1779 0.126063,0.5908 0.281211,0.9176 0.253749,0.5344 0.334073,0.6249 0.799615,0.901 0.456796,0.2709 0.548014,0.3711 0.77729,0.854 0.142867,0.3009 0.259759,0.6649 0.259759,0.8088 0,0.4487 0.260315,0.8115 0.365489,0.5094 z m 8.166653,4.7691 c -0.118544,-0.2497 -0.149368,-0.038 -0.07925,0.5441 l 0.07256,0.6025 0.03192,-0.5131 c 0.01755,-0.2823 0.0062,-0.5673 -0.02522,-0.6335 z m -6.110713,-11.8489 c -0.12263,-0.4054 -0.302679,-0.5913 -0.302679,-0.3125 0,0.2379 0.09799,0.4425 0.272598,0.5692 0.106809,0.077 0.11362,0.019 0.03008,-0.2567 z m 7.029981,20.4707 c -0.0376,-0.079 -0.06837,-0.5003 -0.06837,-0.9359 0,-0.8805 0.301184,-1.4778 0.659352,-1.3077 0.109031,0.052 0.300391,0.038 0.425246,-0.03 l 0.227009,-0.1242 0,0.5118 c 0,0.453 0.02895,0.5328 0.252232,0.6948 0.306393,0.2224 0.309906,0.3875 0.02107,0.9903 -0.153262,0.3199 -0.348873,0.4668 -0.626422,0.4705 -0.504188,0.01 -0.80171,-0.083 -0.89011,-0.2695 z m -15.605875,-12.015 c -0.24971,-0.2752 -0.474449,-0.5202 -0.49942,-0.5444 -0.02497,-0.024 0.0061,-0.078 0.06909,-0.1192 0.08539,-0.056 0.07295,-0.1926 -0.04893,-0.5379 -0.15206,-0.4307 -0.151013,-0.4634 0.01507,-0.4712 0.128687,-0.01 0.160831,-0.1183 0.115208,-0.4024 -0.0658,-0.4097 0.103666,-0.7176 0.259522,-0.4715 0.0492,0.078 0.08946,0.2629 0.08946,0.4116 0,0.1487 0.04746,0.3048 0.105464,0.3469 0.06589,0.048 0.0806,0.2414 0.03922,0.5159 -0.05765,0.3824 -0.04023,0.4583 0.134156,0.5849 0.144575,0.1049 0.218321,0.2821 0.264722,0.636 0.03538,0.2699 0.0297,0.5044 -0.01261,0.5211 -0.04231,0.017 -0.281239,-0.1946 -0.530948,-0.4698 z m 16.85116,8.4191 c -0.297698,-1.0216 -0.25599,-1.6538 0.09243,-1.4009 0.07971,0.058 0.182583,-0.068 0.228607,-0.28 0.111509,-0.5131 0.260643,-0.5063 0.380856,0.017 0.05401,0.2354 0.145855,0.4625 0.204094,0.5047 0.151796,0.1102 0.323724,0.9359 0.259105,1.2445 -0.05429,0.2592 -0.737536,0.7762 -0.884693,0.6694 -0.04211,-0.031 -0.168288,-0.3703 -0.280398,-0.7551 z m -17.891659,-14.0759 c -0.275857,-0.5977 -0.352571,-0.9795 -0.170216,-0.8472 0.05549,0.04 0.100893,-0.1148 0.100893,-0.3446 0,-0.3267 0.04456,-0.3855 0.204283,-0.2696 0.125067,0.091 0.24147,0.04 0.300181,-0.1304 0.05275,-0.1532 0.162547,-0.2303 0.244007,-0.1712 0.214889,0.156 0.154708,1.0717 -0.07113,1.0823 -0.210416,0.01 -0.225697,0.316 -0.02815,0.564 0.118242,0.1484 0.123426,0.2442 0.02833,0.523 -0.144073,0.4224 -0.262126,0.3435 -0.608196,-0.4063 z m 4.446292,-3.8648 c -0.08975,-0.202 -0.177684,-0.6572 -0.19542,-1.0114 -0.02815,-0.5623 0.0115,-0.6794 0.312205,-0.9223 0.413658,-0.3341 0.576684,-0.2655 0.361797,0.1522 -0.08609,0.1674 -0.200757,0.2722 -0.254823,0.233 -0.186828,-0.1356 -0.09755,0.1893 0.122345,0.4452 0.209469,0.2438 0.211384,0.2595 0.03779,0.3087 -0.226878,0.064 -0.13771,0.5159 0.141966,0.7189 0.137691,0.1 0.204953,0.2401 0.204953,0.4273 0,0.1532 -0.06439,0.2318 -0.143088,0.1747 -0.0787,-0.057 -0.206418,-0.1162 -0.283821,-0.1314 -0.0774,-0.015 -0.214162,-0.1929 -0.303906,-0.3949 z"
         id="path4211"
         inkscape:connector-curvature="0" />
      <path
         style="fill:#9b581e"
         d="m 29.860543,1030.0209 c 0.263618,-0.1303 0.401377,-0.3324 0.441997,-0.6485 0.07745,-0.6027 0.234666,-0.4782 0.206155,0.1632 -0.02305,0.5187 -0.244673,0.7791 -0.662965,0.7792 -0.395025,0 -0.390299,-0.094 0.01481,-0.2939 z m 0.34849,-4.1001 c -0.185251,-0.2013 -0.249954,-0.6425 -0.07567,-0.5161 0.05549,0.04 0.100893,0.138 0.100893,0.217 0,0.079 0.102154,0.2746 0.227009,0.4345 0.233085,0.2985 0.0632,0.2073 -0.252232,-0.1354 z m 0.956673,0.3724 c 0.06931,-0.103 0.167535,-0.157 0.218278,-0.1202 0.05074,0.037 0.01009,0.1327 -0.09035,0.213 -0.100438,0.08 -0.198663,0.1344 -0.218278,0.1202 -0.01962,-0.014 0.02104,-0.1101 0.09035,-0.213 z m -0.27487,-2.9539 c -0.297608,-0.6591 -0.340224,-1.2522 -0.07645,-1.0639 0.09711,0.069 0.237597,0.1169 0.312193,0.1057 0.189061,-0.028 -0.04423,-0.7864 -0.585457,-1.9027 -0.32783,-0.6761 -0.434594,-0.83 -0.503674,-0.7258 -0.05638,0.085 -0.319109,-0.019 -0.73626,-0.2906 -0.530153,-0.3456 -0.72988,-0.5414 -1.093704,-1.0724 -0.549531,-0.8021 -1.418582,-1.6136 -1.723616,-1.6096 -0.181365,0 -0.24191,-0.057 -0.353013,-0.3476 -0.197144,-0.5153 -0.164999,-0.8048 0.118129,-1.0639 0.323245,-0.2957 0.317344,-0.4379 -0.03951,-0.9516 -0.302891,-0.436 -0.549064,-1.307 -0.449905,-1.5918 0.07483,-0.2149 0.07395,-0.2159 0.413092,0.4984 0.260965,0.5496 0.342768,0.6444 0.762482,0.8837 0.60908,0.3472 0.932974,0.8634 1.079391,1.7203 0.115615,0.6767 0.239441,0.8814 0.346726,0.5733 0.0844,-0.2424 -0.149522,-1.6831 -0.290057,-1.7864 -0.118584,-0.087 -0.460167,-1.6531 -0.460167,-2.1095 0,-0.1596 0.06255,-0.4221 0.139002,-0.5835 0.07645,-0.1614 0.216596,-0.4879 0.311435,-0.7255 0.09484,-0.2376 0.234071,-0.5587 0.309406,-0.7135 0.117732,-0.2419 0.115489,-0.3266 -0.01596,-0.6035 -0.197557,-0.4161 -0.193378,-0.4141 -0.59604,-0.2823 -0.319572,0.1046 -0.339097,0.1562 -0.284056,0.7505 0.03701,0.3996 0.01695,0.6435 -0.05368,0.6526 -0.06295,0.01 -0.112783,-0.073 -0.112783,-0.184 0,-0.1091 -0.09679,-0.4385 -0.215086,-0.732 -0.163345,-0.4052 -0.272564,-0.5553 -0.454018,-0.6241 -0.17603,-0.067 -0.238932,-0.1487 -0.238932,-0.3114 0,-0.3796 0.200671,-0.6139 0.401167,-0.4684 0.327024,0.2373 0.327066,-0.018 8e-5,-0.4891 l -0.311601,-0.4486 0.306415,-0.2594 c 0.168529,-0.1427 0.373688,-0.3902 0.45591,-0.5501 0.170739,-0.3319 0.348806,-0.3329 0.651691,0 0.116334,0.1264 0.211517,0.1672 0.211517,0.091 0,-0.2596 0.467544,0.075 0.81322,0.5816 0.343429,0.5034 0.801066,0.9243 0.801066,0.7366 0,-0.054 -0.12001,-0.3184 -0.266689,-0.5863 -0.233401,-0.4263 -0.254474,-0.5288 -0.168829,-0.8214 0.07581,-0.2589 0.209771,-0.3085 0.594592,-0.2198 0.602971,0.139 0.709215,0.207 0.552778,0.3537 -0.09665,0.091 -0.07056,0.1931 0.134046,0.5267 0.340033,0.5543 0.667495,0.6441 0.667495,0.1831 0,-0.3205 0.02761,-0.3223 0.327902,-0.022 0.806522,0.8074 1.380284,1.5159 1.942188,2.3981 0.332946,0.5227 0.730212,1.0434 0.882812,1.157 0.168092,0.1251 0.277456,0.2831 0.277456,0.4006 0,0.1067 0.218508,0.6779 0.485573,1.2693 0.821556,1.8193 1.203969,2.82 1.525749,3.9925 0.16998,0.6194 0.309091,1.2001 0.309134,1.2904 4.4e-5,0.09 0.07682,0.3259 0.17061,0.5234 0.143035,0.3013 0.166998,0.6123 0.148619,1.9293 -0.01205,0.8636 -0.06609,1.6985 -0.120083,1.8554 -0.054,0.1569 -0.09879,0.7038 -0.09955,1.2153 -0.0015,0.9952 -0.07431,1.504 -0.202017,1.4113 -0.04343,-0.032 -0.108378,-0.8778 -0.144326,-1.8806 -0.07643,-2.132 -0.120754,-2.5301 -0.286581,-2.5739 -0.08941,-0.024 -0.112698,0.4126 -0.08641,1.6186 0.02491,1.1428 0.0016,1.626 -0.07567,1.5699 -0.06141,-0.045 -0.111655,-0.265 -0.111655,-0.4898 0,-0.9207 -0.396845,-1.8572 -0.4104,-0.9685 -0.0075,0.4887 7.06e-4,0.5097 -0.357538,-0.921 -0.120635,-0.4818 -0.182948,-0.6187 -0.213132,-0.4681 -0.06983,0.3484 -0.203659,0.1307 -0.297242,-0.4836 -0.08836,-0.5799 -0.335974,-1.0583 -0.335974,-0.6491 0,0.1213 -0.0454,0.1876 -0.100893,0.1473 -0.05549,-0.04 -0.100893,-0.1588 -0.100893,-0.2633 0,-0.2867 -0.396562,-1.212 -0.574845,-1.3413 -0.12285,-0.089 -0.142536,-0.01 -0.09129,0.3864 0.06336,0.4849 0.06064,0.4874 -0.08964,0.083 -0.160041,-0.4308 -1.003108,-1.8856 -1.157848,-1.9979 -0.04808,-0.035 -0.104323,-0.01 -0.124974,0.065 -0.04208,0.1438 0.235405,1.9448 0.351697,2.2828 0.04122,0.1198 0.755441,1.3799 1.587166,2.8002 0.831724,1.4203 1.512227,2.6699 1.512227,2.7768 0,0.107 -0.102155,0.1491 -0.227009,0.094 -0.124855,-0.055 -0.363215,-0.157 -0.529688,-0.2256 -0.166473,-0.069 -0.626393,-0.3312 -1.022045,-0.5835 -0.693684,-0.4424 -0.732446,-0.4842 -1.085712,-1.1687 -0.301403,-0.5841 -0.392977,-0.6987 -0.516572,-0.6468 -0.288151,0.121 -0.175938,0.5674 0.303793,1.2085 0.505161,0.6751 0.520599,0.7274 0.296958,1.0059 -0.182835,0.2277 -0.372191,0.125 -0.54919,-0.2979 -0.183374,-0.4381 -0.526817,-0.6384 -0.943628,-0.5504 l -0.366429,0.077 -0.253007,-0.5603 z m -3.719851,-6.9789 c 0.03194,-0.092 0.02998,-0.2882 -0.0044,-0.4367 -0.05056,-0.2186 -0.09098,-0.2579 -0.21258,-0.2069 -0.08258,0.035 -0.150145,0.1808 -0.150145,0.3246 0,0.3111 0.283942,0.5578 0.367086,0.319 z m 3.26178,-7.0433 c -0.122212,-0.4039 -0.400294,-0.653 -0.400294,-0.3586 0,0.2227 0.303318,0.7305 0.426913,0.7147 0.04295,-0.01 0.03098,-0.1657 -0.02662,-0.3561 z"
         id="path4209"
         inkscape:connector-curvature="0" />
      <path
         style="fill:#60340f"
         d="m 31.259836,1023.5907 c 0.265141,-0.3937 1.128883,0.042 1.430658,0.7208 0.09184,0.2067 0.166977,0.418 0.166977,0.4694 0,0.1741 -0.277192,-0.1064 -0.403571,-0.4083 -0.170814,-0.4081 -0.436499,-0.5792 -0.91519,-0.5894 -0.394488,-0.01 -0.400165,-0.012 -0.278874,-0.1925 z m -0.01665,-0.7086 c 0,-0.068 0.0681,-0.111 0.151339,-0.095 0.186607,0.037 0.201264,-0.3607 0.01821,-0.4936 -0.07322,-0.053 -0.198078,-0.3474 -0.277456,-0.654 -0.07938,-0.3065 -0.243996,-0.6901 -0.365817,-0.8523 -0.121821,-0.1622 -0.277049,-0.4786 -0.344951,-0.703 -0.155102,-0.5127 -0.492931,-0.7852 -0.492931,-0.3976 0,0.3193 -0.03773,0.3076 -0.314252,-0.097 -0.143493,-0.2102 -0.302863,-0.3208 -0.563401,-0.3912 -0.324658,-0.088 -0.380481,-0.1403 -0.524747,-0.4946 -0.1558,-0.3827 -0.391373,-0.671 -1.100976,-1.3472 -0.257707,-0.2456 -0.319489,-0.3599 -0.269981,-0.4994 0.0765,-0.2156 0.0766,-0.2167 0.06041,-0.6711 -0.01258,-0.3533 -0.05523,-0.4299 -0.885634,-1.59 -0.310083,-0.4333 -0.538027,-1.0558 -0.538027,-1.4693 0,-0.1113 0.03749,-0.1752 0.08331,-0.142 0.120501,0.088 0.522051,0.9955 0.522051,1.1805 0,0.2171 0.18305,0.4853 0.60193,0.882 0.241969,0.2291 0.388976,0.4636 0.457445,0.7297 0.07045,0.2737 0.160203,0.4138 0.297429,0.4642 0.257498,0.094 0.459268,0.4834 0.459268,0.8854 0,0.1957 0.114132,0.5167 0.29133,0.8195 0.264692,0.4522 0.30355,0.4863 0.424986,0.3724 0.112904,-0.1059 0.105037,-0.175 -0.05067,-0.4452 -0.298314,-0.5176 -0.476606,-1.2293 -0.361436,-1.4428 0.07489,-0.1389 0.04388,-0.3584 -0.124079,-0.8785 -0.123159,-0.3813 -0.259474,-0.74 -0.302922,-0.7971 -0.109098,-0.1433 -0.100062,-1.0708 0.0097,-0.9912 0.04876,0.035 0.143719,0.2878 0.211023,0.561 0.189728,0.77 0.60836,1.1741 0.60836,0.5873 0,-0.1461 -0.06533,-0.5189 -0.145176,-0.8284 -0.07985,-0.3095 -0.172709,-0.7617 -0.206361,-1.0048 -0.04691,-0.3389 -0.105883,-0.4583 -0.252776,-0.5119 -0.269136,-0.098 -0.390352,-0.9352 -0.161888,-1.118 0.08846,-0.071 0.160844,-0.2288 0.160844,-0.3512 0,-0.1224 0.139645,-0.2174 0.310323,-0.2111 0.249225,0.01 0.349649,0.073 0.510062,0.3251 0.165914,0.2606 0.216564,0.285 0.299103,0.1443 0.07212,-0.1228 0.146664,-0.1002 0.271858,0.083 0.09487,0.1386 0.246214,0.3364 0.336316,0.4395 0.0901,0.1032 0.192835,0.4221 0.228292,0.7088 0.03546,0.2867 0.131995,0.6908 0.214526,0.898 0.147784,0.3712 0.152456,0.3744 0.308594,0.2134 0.196823,-0.2031 0.123535,-1.0867 -0.126044,-1.5197 -0.129225,-0.2242 -0.166649,-0.4592 -0.145681,-0.9148 0.01834,-0.3984 -0.03036,-0.7789 -0.139145,-1.087 -0.187325,-0.5306 -0.159922,-0.6331 0.08655,-0.3237 0.09118,0.1145 0.16578,0.3544 0.16578,0.5332 0,0.1788 0.04916,0.4027 0.109243,0.4976 0.06008,0.095 0.194675,0.5096 0.299092,0.9217 0.104419,0.412 0.234187,0.7814 0.288376,0.8207 0.172057,0.1248 0.233177,-0.1141 0.106557,-0.4166 -0.07159,-0.1711 -0.09692,-0.4476 -0.0612,-0.6683 0.08243,-0.5092 -0.402024,-2.3493 -0.705793,-2.6808 -0.242293,-0.2644 -0.679709,-1.1855 -0.776485,-1.635 -0.09811,-0.4557 0.20675,-0.308 0.416522,0.2019 0.215141,0.5229 1.042954,1.3107 1.274903,1.2132 0.109414,-0.046 0.198517,0.016 0.35775,0.2494 0.116625,0.1708 0.294148,0.3341 0.394494,0.363 0.138792,0.04 0.273814,0.3087 0.564288,1.1234 0.352271,0.9881 0.392323,1.0589 0.517214,0.9137 0.122936,-0.1429 0.141258,-0.1319 0.199393,0.1194 0.03521,0.1522 0.170648,0.3542 0.300974,0.4487 0.621647,0.4511 1.708565,2.9264 2.519308,5.7372 0.290496,1.0072 0.395379,1.2529 0.597371,1.3995 0.31159,0.2261 0.368444,0.401 0.270968,0.8334 -0.07373,0.3271 -0.0848,0.3264 -0.191211,-0.011 -0.08492,-0.2696 -0.141882,-0.3401 -0.229518,-0.284 -0.142544,0.091 0.03952,1.6396 0.27183,2.3118 0.117031,0.3387 0.125948,0.5079 0.04121,0.782 -0.05948,0.1924 -0.108763,0.763 -0.10952,1.2682 -0.0015,0.9844 -0.07474,1.4919 -0.202017,1.3995 -0.04343,-0.032 -0.108378,-0.8778 -0.144326,-1.8806 -0.07643,-2.132 -0.120754,-2.5301 -0.286581,-2.5739 -0.08941,-0.024 -0.112698,0.4126 -0.08641,1.6186 0.02491,1.1428 0.0016,1.626 -0.07567,1.5699 -0.06141,-0.045 -0.111655,-0.265 -0.111655,-0.4898 0,-0.9207 -0.396845,-1.8572 -0.4104,-0.9685 -0.0075,0.4887 7.06e-4,0.5097 -0.357538,-0.921 -0.120635,-0.4818 -0.182948,-0.6187 -0.213132,-0.4681 -0.06983,0.3484 -0.203659,0.1307 -0.297242,-0.4836 -0.08836,-0.5799 -0.335974,-1.0583 -0.335974,-0.6491 0,0.1213 -0.0454,0.1876 -0.100893,0.1473 -0.05549,-0.04 -0.100893,-0.1588 -0.100893,-0.2633 0,-0.2867 -0.396562,-1.212 -0.574845,-1.3413 -0.122321,-0.089 -0.14288,0 -0.09386,0.3845 l 0.06277,0.4983 -0.208507,-0.5977 c -0.114679,-0.3287 -0.307506,-0.7115 -0.428504,-0.8506 -0.120998,-0.139 -0.301218,-0.4294 -0.40049,-0.6451 -0.09927,-0.2158 -0.246826,-0.4404 -0.327902,-0.4992 -0.205278,-0.149 -0.195417,0.054 0.102131,2.0987 0.02794,0.192 0.683919,1.406 1.663916,3.0794 0.889788,1.5193 1.617796,2.8433 1.617796,2.9422 0,0.099 -0.102155,0.1345 -0.227009,0.079 -0.124855,-0.055 -0.363215,-0.157 -0.529688,-0.2256 -0.166473,-0.069 -0.626393,-0.3312 -1.022045,-0.5835 -0.694643,-0.443 -0.73205,-0.4834 -1.088408,-1.1739 l -0.369041,-0.7152 -0.56419,0.3758 c -0.54051,0.3599 -0.739799,0.3933 -0.739799,0.1238 z m -1.614286,-5.4389 c 0,-0.2245 -0.268534,-0.6322 -0.371854,-0.5646 -0.07186,0.047 0.156138,0.6214 0.283315,0.7137 0.0487,0.035 0.08854,-0.032 0.08854,-0.1491 z m 0.646788,0.1952 c -0.07801,-0.4857 0.09208,-0.3934 0.29791,0.1616 0.142189,0.3834 0.366909,0.528 0.366909,0.236 0,-0.076 -0.154143,-0.4689 -0.34254,-0.8734 -0.279862,-0.6009 -0.391128,-0.7539 -0.608069,-0.8362 -0.221821,-0.084 -0.244949,-0.052 -0.140509,0.198 0.102005,0.2437 0.08857,0.3109 -0.07296,0.3649 -0.116881,0.039 -0.152178,0.1234 -0.08617,0.206 0.0615,0.077 0.1977,0.2919 0.302679,0.4778 0.278139,0.4925 0.354184,0.5101 0.282747,0.065 z m 1.169284,0.091 c 0,-0.1643 -0.196777,-0.4829 -0.269048,-0.4356 -0.07227,0.047 0.05507,0.4114 0.17411,0.4978 0.05222,0.038 0.09494,0.01 0.09494,-0.062 z m -1.614286,-2.3635 c 0,-0.115 -0.03716,-0.2359 -0.08259,-0.2689 -0.04542,-0.033 -0.156025,-0.3169 -0.24578,-0.631 -0.15671,-0.5485 -0.163448,-0.5573 -0.169644,-0.2238 -0.0068,0.3667 0.241879,1.1467 0.40284,1.2635 0.05234,0.038 0.09517,-0.025 0.09517,-0.1398 z m 0.728211,-0.514 c -0.05052,-1.091 -0.325379,-1.6439 -0.471164,-0.9478 -0.07502,0.3582 0.218771,1.4977 0.396823,1.5391 0.05655,0.013 0.09001,-0.253 0.07434,-0.5913 z m -0.627318,-0.1871 c 0,-0.1578 -0.0454,-0.281 -0.100893,-0.2739 -0.05549,0.01 -0.100893,0.1031 -0.100893,0.2135 0,0.1104 0.0454,0.2337 0.100893,0.274 0.05549,0.04 0.100893,-0.056 0.100893,-0.2136 z m 3.127679,1.86 c 0,-0.1532 -0.0454,-0.3115 -0.100893,-0.3518 -0.05549,-0.04 -0.100893,0.052 -0.100893,0.2054 0,0.1532 0.0454,0.3115 0.100893,0.3517 0.05549,0.04 0.100893,-0.052 0.100893,-0.2053 z m -2.017858,-1.7429 c 0,-0.077 -0.04808,-0.1742 -0.106847,-0.2168 -0.05877,-0.043 -0.07879,0.01 -0.04449,0.107 0.0343,0.1015 0.08238,0.1991 0.106848,0.2168 0.02447,0.018 0.04449,-0.03 0.04449,-0.107 z m 1.152781,0.7436 c 0.0355,-0.1019 0.02356,-0.2717 -0.02654,-0.3772 -0.05419,-0.1141 -0.111168,-0.061 -0.140655,0.1301 -0.05509,0.3579 0.06621,0.5372 0.167194,0.2471 z m 1.571327,0.842 c 0,-0.2918 -0.064,-0.6978 -0.142227,-0.9023 -0.138283,-0.3614 -0.14792,-0.3687 -0.347548,-0.2642 l -0.205321,0.1075 0.260062,0.7313 c 0.143035,0.4022 0.299431,0.7598 0.347549,0.7947 0.04812,0.035 0.08749,-0.1752 0.08749,-0.467 z m -4.063445,-2.8773 c 0.079,-0.182 0.07038,-0.3351 -0.03425,-0.6086 -0.07689,-0.201 -0.139804,-0.4788 -0.139804,-0.6174 0,-0.3009 -0.132278,-0.4224 -0.294315,-0.2705 -0.08896,0.084 -0.08905,0.2849 -3.73e-4,0.8355 0.12759,0.7921 0.303938,1.0408 0.468747,0.661 z m 5.657552,4.1189 c 0.09417,-0.062 0.147977,-0.023 0.242143,0.1757 0.226019,0.476 0.30888,0.3929 0.258607,-0.2593 -0.0464,-0.602 -0.438793,-1.8977 -0.552207,-1.8234 -0.02729,0.018 0.05204,0.3559 0.176298,0.7513 0.286132,0.9105 0.219738,1.0923 -0.30255,0.8286 -0.233357,-0.1178 -0.390039,-0.1308 -0.355817,-0.029 0.08445,0.2499 0.387318,0.4523 0.533526,0.3566 z m -1.029952,-1.3913 c -0.169975,-0.5771 -0.440305,-1.1188 -0.52929,-1.0605 -0.06654,0.044 0.470637,1.3846 0.598306,1.4937 0.04304,0.037 0.01199,-0.1582 -0.06902,-0.4332 z m -1.77487,-1.5216 c -0.06908,-0.165 -0.171002,-0.333 -0.226493,-0.3733 -0.05628,-0.041 -0.04536,0.059 0.02471,0.2269 0.06908,0.165 0.171002,0.333 0.226493,0.3733 0.05628,0.041 0.04536,-0.059 -0.02471,-0.2269 z m -2.655186,-2.1618 c -0.03221,-0.1345 -0.05611,-0.1188 -0.06096,0.04 -0.0044,0.1437 0.01947,0.2432 0.05299,0.2213 0.03353,-0.022 0.03711,-0.1395 0.008,-0.2612 z m 5.177508,4.0004 c 0,-0.034 -0.0454,-0.1331 -0.100892,-0.2207 -0.05549,-0.088 -0.100893,-0.093 -0.100893,-0.012 0,0.081 0.0454,0.1804 0.100893,0.2207 0.05549,0.04 0.100892,0.046 0.100892,0.012 z m -3.329465,-2.6947 c 0,-0.034 -0.0454,-0.1331 -0.100892,-0.2207 -0.05549,-0.088 -0.100893,-0.093 -0.100893,-0.012 0,0.081 0.0454,0.1805 0.100893,0.2208 0.05549,0.04 0.100892,0.046 0.100892,0.012 z m 1.311608,0.4643 c 0,-0.1487 -0.0454,-0.342 -0.100893,-0.4296 -0.05722,-0.09 -0.100893,0 -0.100893,0.1971 0,0.1961 0.0454,0.3894 0.100893,0.4297 0.05549,0.04 0.100893,-0.048 0.100893,-0.1972 z m 0.403571,-0.8229 c 0,-0.1405 -0.0746,-0.3491 -0.16578,-0.4636 -0.230451,-0.2893 -0.259666,-0.228 -0.13991,0.2938 0.110891,0.4831 0.30569,0.5913 0.30569,0.1698 z m -1.343579,-1.1471 c -0.03221,-0.1345 -0.05612,-0.1188 -0.06096,0.04 -0.0044,0.1437 0.01946,0.2432 0.05299,0.2213 0.03352,-0.022 0.03711,-0.1395 0.008,-0.2612 z m 1.43738,-0.4282 c 0.0094,-0.225 -0.113346,-0.302 -0.351972,-0.2206 -0.193684,0.066 -0.193644,0.071 0.0037,0.4243 0.181043,0.3243 0.206084,0.3393 0.270364,0.1614 0.03896,-0.1079 0.07403,-0.2721 0.07793,-0.3651 z m -1.859426,-1.802 c 0.0343,-0.052 0.01427,-0.1289 -0.04449,-0.1715 -0.05877,-0.043 -0.106847,-0.015 -0.106847,0.062 0,0.077 0.02002,0.1538 0.04449,0.1716 0.02447,0.018 0.07255,-0.01 0.106848,-0.062 z m 0.353125,0.2563 c 0,-0.077 -0.02002,-0.1538 -0.04449,-0.1716 -0.02447,-0.018 -0.07255,0.01 -0.106847,0.062 -0.0343,0.052 -0.01428,0.1289 0.04449,0.1715 0.05877,0.043 0.106847,0.015 0.106847,-0.062 z m -5.448215,-1.0368 c 0,-0.081 0.0454,-0.076 0.100893,0.012 0.05549,0.088 0.100893,0.1869 0.100893,0.2207 0,0.034 -0.0454,0.029 -0.100893,-0.012 -0.05549,-0.04 -0.100893,-0.1396 -0.100893,-0.2207 z m 0.655803,0.066 c -0.0343,-0.1015 -0.01427,-0.1497 0.04449,-0.107 0.05876,0.043 0.106847,0.1402 0.106847,0.2168 0,0.077 -0.02002,0.1247 -0.04449,0.107 -0.02447,-0.018 -0.07255,-0.1153 -0.106848,-0.2168 z m 1.079554,0.3376 c -0.173566,-0.3655 -0.152276,-0.4361 0.123499,-0.4095 0.193125,0.019 0.270555,0.086 0.368097,0.3188 0.09993,0.2387 0.08694,0.3068 -0.06801,0.3563 -0.236612,0.076 -0.272259,0.053 -0.423587,-0.2656 z m -1.375188,-1.4332 c -0.137749,-0.239 -0.155784,-0.3321 -0.06655,-0.3435 0.06732,-0.01 0.169677,-0.1475 0.22746,-0.3088 l 0.10506,-0.2933 0.08888,0.384 c 0.07367,0.3182 0.122568,0.3835 0.285656,0.3814 0.249187,0 0.784019,0.38 0.865126,0.6201 0.03464,0.1025 -0.0035,0.1006 -0.08705,0 -0.214281,-0.269 -0.594523,-0.2278 -0.52858,0.057 0.03818,0.1651 -0.01887,0.1846 -0.185709,0.064 -0.132447,-0.096 -0.302582,-0.1869 -0.378077,-0.2016 -0.07549,-0.015 -0.222291,-0.1745 -0.326214,-0.3548 z m 1.556795,0.1222 c 0,-0.1195 0.04614,-0.1443 0.102539,-0.055 0.0564,0.089 0.07642,0.2013 0.04449,0.2494 -0.08649,0.1305 -0.147031,0.05 -0.147031,-0.1941 z m -0.655803,-0.8159 c 0.0343,-0.052 0.107757,-0.061 0.163248,-0.021 0.05549,0.04 0.07283,0.1155 0.03854,0.1672 -0.0343,0.052 -0.107757,0.061 -0.163248,0.021 -0.05549,-0.04 -0.07283,-0.1155 -0.03854,-0.1672 z m 1.639509,1.233 c -0.201826,-0.2193 -0.24048,-0.4954 -0.05045,-0.3604 0.06936,0.049 0.22827,0.126 0.353125,0.1704 0.183077,0.065 0.227009,0.1378 0.227009,0.3756 0,0.2939 -0.13033,0.2483 -0.529688,-0.1856 z m -0.882813,-1.0437 c 0,-0.246 0.217198,-0.046 0.279558,0.258 0.02197,0.1069 -0.03195,0.1422 -0.119811,0.078 -0.08786,-0.064 -0.159747,-0.2151 -0.159747,-0.3364 z m 0.70625,-0.2502 c 0,-0.081 0.0454,-0.076 0.100893,0.012 0.05549,0.088 0.100893,0.1869 0.100893,0.2207 0,0.034 -0.0454,0.029 -0.100893,-0.012 -0.05549,-0.04 -0.100893,-0.1396 -0.100893,-0.2207 z"
         id="path4207"
         inkscape:connector-curvature="0" />
      <path
         style="fill:#2c1f11"
         d="m 33.507291,1023.8347 c -0.169765,-0.173 -0.469838,-0.6195 -0.66683,-0.9923 -0.444138,-0.8405 -0.573517,-1.737 -0.324135,-2.2462 0.160776,-0.3282 0.162165,-0.3279 0.377374,0.095 0.118802,0.2334 0.638258,1.2176 1.154346,2.1871 0.51609,0.9694 0.91364,1.7787 0.883447,1.7985 -0.0302,0.02 -0.180038,-0.036 -0.332986,-0.1248 -0.15295,-0.088 -0.391594,-0.2152 -0.530321,-0.2818 -0.138728,-0.067 -0.391131,-0.2626 -0.560895,-0.4356 z m 0.76268,0.2059 c 0,-0.026 -0.102154,-0.2416 -0.227009,-0.4781 l -0.227009,-0.4301 0.1922,0.4529 c 0.180621,0.4256 0.261818,0.5668 0.261818,0.4553 z m -0.05045,-1.327 c -0.610402,-1.1669 -1.211976,-2.255 -1.336831,-2.4181 -0.195189,-0.2548 -0.324061,-0.6523 -0.176878,-0.5455 0.07274,0.053 2.481072,4.1576 2.749647,4.6866 0.124855,0.2459 0.227009,0.4988 0.227009,0.5621 0,0.3461 -0.473199,-0.3931 -1.462947,-2.2851 z m 2.637819,1.5638 c -0.03578,-0.4985 -0.0653,-1.2264 -0.06561,-1.6176 -7.06e-4,-0.8954 -0.175117,-1.9184 -0.333807,-1.9579 -0.08494,-0.021 -0.109283,0.3879 -0.08391,1.4102 0.03802,1.532 -0.06742,1.7668 -0.266655,0.5938 -0.138578,-0.8158 -0.267913,-0.993 -0.378361,-0.5183 -0.07189,0.309 -0.08611,0.2772 -0.248843,-0.557 -0.182383,-0.9349 -0.397829,-1.3748 -0.410714,-0.8386 -0.0066,0.2763 -0.02369,0.248 -0.126116,-0.2092 -0.157582,-0.7033 -0.235384,-0.8463 -0.41868,-0.7693 -0.116077,0.049 -0.153778,0.024 -0.153778,-0.1026 0,-0.092 -0.170256,-0.5286 -0.378348,-0.9702 -0.613737,-1.3024 -0.745458,-1.6674 -0.706924,-1.9588 0.03301,-0.2497 0.05502,-0.2182 0.232964,0.3332 0.285578,0.8851 0.550701,1.5351 0.657845,1.6128 0.140428,0.1019 0.114027,-0.1508 -0.09338,-0.894 -0.172646,-0.6186 -0.221153,-1.603 -0.08343,-1.6932 0.03233,-0.021 0.08948,0.1527 0.127011,0.3863 0.05591,0.3482 0.110313,0.4408 0.301405,0.5133 0.128248,0.049 0.264547,0.1812 0.302887,0.2947 0.04232,0.1252 0.228024,0.2918 0.472626,0.424 0.552887,0.2989 0.649916,0.4477 0.887328,1.3609 0.162681,0.6258 0.227246,0.7654 0.304531,0.6587 0.08479,-0.117 0.116933,-0.088 0.237263,0.2167 0.07655,0.1936 0.169851,0.606 0.207332,0.9165 0.03748,0.3105 0.12708,0.7338 0.199108,0.9408 0.09838,0.2827 0.113803,0.7349 0.062,1.8179 -0.03793,0.7928 -0.09365,1.4576 -0.123821,1.4774 -0.03017,0.02 -0.08413,-0.372 -0.119904,-0.8705 z m -1.00311,-3.8793 c -0.02946,-0.1554 -0.101563,-0.5055 -0.160234,-0.7779 -0.05867,-0.2723 -0.132344,-0.6907 -0.163716,-0.9295 -0.06031,-0.4592 -0.278445,-0.649 -0.334451,-0.291 -0.04387,0.2805 0.444776,2.0872 0.593717,2.1952 0.06575,0.048 0.09447,-0.04 0.06468,-0.1968 z m -0.975812,-1.5438 c -0.04802,-0.2455 -0.114623,-0.6386 -0.148014,-0.8735 -0.06276,-0.4415 -0.359544,-0.8029 -0.359544,-0.4378 0,0.3895 0.324692,1.5616 0.459725,1.6596 0.101323,0.074 0.113291,-0.014 0.04783,-0.3483 z m -5.753987,-4.0013 c 0,-0.115 0.01784,-0.196 0.03965,-0.1802 0.02181,0.016 0.06579,0.1418 0.09773,0.2798 0.03194,0.1381 0.0141,0.2192 -0.03965,0.1802 -0.05375,-0.039 -0.09773,-0.1649 -0.09773,-0.2798 z m 3.485097,1.9466 c -0.09183,-0.4404 -0.321105,-0.7483 -0.396349,-0.5322 -0.03059,0.088 -0.102455,0.1258 -0.159689,0.084 -0.191767,-0.1392 -0.100345,-0.4184 0.160983,-0.4917 0.228709,-0.064 0.276058,-0.036 0.408415,0.2428 0.09003,0.1896 0.132085,0.4627 0.105489,0.685 -0.04101,0.3428 -0.04966,0.3437 -0.118849,0.012 z m 3.702661,1.9749 c -0.239276,-0.3336 -0.313331,-0.5143 -0.272071,-0.6638 0.09063,-0.3285 -0.161136,-1.4482 -0.509546,-2.2663 -0.176705,-0.415 -0.443356,-1.1115 -0.592557,-1.5479 -0.1492,-0.4365 -0.449628,-1.0932 -0.667617,-1.4595 -0.387234,-0.6507 -0.501211,-0.951 -0.30759,-0.8105 0.494746,0.359 1.746693,3.3444 2.392839,5.706 0.156917,0.5735 0.330325,1.1198 0.385352,1.214 0.06614,0.1133 0.06614,0.1908 0,0.2289 -0.06259,0.036 -0.223144,-0.1141 -0.42881,-0.4009 z m 0.841594,0.7398 c -0.04346,-0.1286 -0.05177,-0.2517 -0.01847,-0.2735 0.0903,-0.059 0.188747,0.1957 0.139978,0.3623 -0.03417,0.1167 -0.05794,0.099 -0.121506,-0.089 z m -5.854385,-4.8158 c -0.189244,-0.41 -0.261873,-0.68 -0.217354,-0.8078 0.05096,-0.1464 0.09487,-0.133 0.184623,0.056 0.06477,0.1364 0.19789,0.3062 0.295822,0.3772 0.251317,0.1824 0.437526,0.8316 0.280697,0.9787 -0.166836,0.1565 -0.220011,0.097 -0.543788,-0.6041 z m 3.417381,1.994 c -0.106844,-0.1854 -0.168318,-0.3541 -0.136609,-0.3748 0.03171,-0.021 0.14507,0.1139 0.251915,0.2993 0.106844,0.1854 0.168318,0.354 0.136609,0.3748 -0.03171,0.021 -0.145071,-0.1139 -0.251915,-0.2993 z m 0.5424,-0.018 c -0.223491,-0.7258 -0.964984,-2.5503 -1.236128,-3.0415 -0.141651,-0.2566 -0.257548,-0.6034 -0.257548,-0.7707 0,-0.2706 0.06049,-0.1889 0.548622,0.7411 0.385144,0.7337 0.646855,1.3938 0.878284,2.215 0.181314,0.6435 0.346834,1.2294 0.367822,1.3021 0.101848,0.3527 -0.186785,-0.075 -0.301052,-0.446 z m -1.994932,-2.1354 c -0.0018,-0.1408 0.06084,-0.298 0.139122,-0.3493 0.07828,-0.051 0.166169,-0.1553 0.195304,-0.2313 0.03691,-0.096 0.116114,0.01 0.261241,0.3418 0.283018,0.6522 0.264011,0.8176 -0.05469,0.4759 -0.189823,-0.2035 -0.301176,-0.2401 -0.400364,-0.1315 -0.13197,0.1445 -0.137531,0.1403 -0.140613,-0.1056 z m -0.911244,-0.764 c 0,-0.081 0.0454,-0.076 0.100893,0.012 0.05549,0.088 0.100892,0.1869 0.100892,0.2207 0,0.034 -0.0454,0.029 -0.100892,-0.012 -0.05549,-0.04 -0.100893,-0.1396 -0.100893,-0.2207 z m 0.05946,-1.1326 c -0.07478,-0.4656 0.02225,-1.0285 0.16006,-0.9285 0.05321,0.039 0.06783,0.1751 0.03248,0.3032 -0.03535,0.1281 0.0035,0.4697 0.08636,0.7591 0.139564,0.4875 0.137177,0.5164 -0.03248,0.3933 -0.111179,-0.081 -0.207985,-0.2878 -0.246421,-0.5271 z m -0.06766,-1.5382 c -0.0045,-0.027 -0.01726,-0.2249 -0.02835,-0.44 -0.01108,-0.215 -0.128643,-0.6292 -0.261249,-0.9203 -0.271138,-0.5952 -0.203087,-0.7929 0.104698,-0.3042 0.110715,0.1758 0.239711,0.3147 0.286658,0.3087 0.04695,-0.01 0.145109,0.1319 0.218139,0.3064 0.111575,0.2665 0.105251,0.3185 -0.0396,0.3253 -0.118443,0.01 -0.153855,0.1234 -0.113175,0.3767 0.03256,0.2027 0.01012,0.3749 -0.04986,0.3825 -0.05999,0.01 -0.112757,-0.01 -0.117265,-0.035 z m -1.603662,-2.3938 c -0.192883,-0.2026 -0.432378,-0.5669 -0.53221,-0.8095 -0.211179,-0.5133 -0.17171,-0.6127 0.09235,-0.2327 0.101862,0.1466 0.431215,0.5249 0.731896,0.8405 0.497127,0.5219 0.529681,0.5788 0.359064,0.6272 -0.103195,0.029 -0.213001,0.028 -0.244013,0 -0.03101,-0.03 -0.2142,-0.221 -0.407084,-0.4236 z"
         id="path4205"
         inkscape:connector-curvature="0" />
    </g>
  </g>
</svg>
